<mxfile host="65bd71144e">
    <diagram id="Vy5iLT1wYtvnRWf1Y6nP" name="Page-1">
        <mxGraphModel dx="1613" dy="2331" grid="1" gridSize="10" guides="1" tooltips="1" connect="1" arrows="1" fold="1" page="1" pageScale="1" pageWidth="850" pageHeight="1100" math="0" shadow="0">
            <root>
                <mxCell id="0"/>
                <mxCell id="1" parent="0"/>
                <mxCell id="611" value="" style="rounded=1;whiteSpace=wrap;html=1;labelBackgroundColor=none;strokeColor=#000000;fontFamily=Tahoma;fontSize=13;fontColor=#333333;fillColor=#f5f5f5;strokeWidth=7;" vertex="1" parent="1">
                    <mxGeometry x="2216" y="360.15" width="378" height="330" as="geometry"/>
                </mxCell>
                <mxCell id="3" value="" style="rounded=0;whiteSpace=wrap;html=1;fillColor=#f5f5f5;strokeColor=#666666;gradientColor=none;" vertex="1" parent="1">
                    <mxGeometry x="1409" y="1850" width="440" height="240" as="geometry"/>
                </mxCell>
                <mxCell id="4" value="" style="rounded=0;whiteSpace=wrap;html=1;fillColor=#636363;gradientColor=none;strokeColor=#666666;" vertex="1" parent="1">
                    <mxGeometry x="1409" y="1850" width="440" height="20" as="geometry"/>
                </mxCell>
                <mxCell id="5" value="" style="ellipse;whiteSpace=wrap;html=1;aspect=fixed;fillColor=#FF0000;strokeColor=#FF0000;fontColor=#ffffff;" vertex="1" parent="1">
                    <mxGeometry x="1419" y="1855" width="10" height="10" as="geometry"/>
                </mxCell>
                <mxCell id="8" value="" style="ellipse;whiteSpace=wrap;html=1;aspect=fixed;fillColor=#FFFF00;strokeColor=#FFFF00;fontColor=#000000;" vertex="1" parent="1">
                    <mxGeometry x="1433" y="1855" width="10" height="10" as="geometry"/>
                </mxCell>
                <mxCell id="9" value="" style="ellipse;whiteSpace=wrap;html=1;aspect=fixed;fillColor=#66CC00;strokeColor=#66CC00;fontColor=#ffffff;" vertex="1" parent="1">
                    <mxGeometry x="1447" y="1855" width="10" height="10" as="geometry"/>
                </mxCell>
                <mxCell id="21" value="" style="rounded=0;whiteSpace=wrap;html=1;fillColor=#f5f5f5;strokeColor=#666666;gradientColor=none;" vertex="1" parent="1">
                    <mxGeometry x="2180" y="-183.15" width="460" height="470" as="geometry"/>
                </mxCell>
                <mxCell id="22" value="" style="rounded=0;whiteSpace=wrap;html=1;fillColor=#636363;gradientColor=none;strokeColor=#666666;" vertex="1" parent="1">
                    <mxGeometry x="2180" y="-183.15" width="460" height="20" as="geometry"/>
                </mxCell>
                <mxCell id="23" value="" style="ellipse;whiteSpace=wrap;html=1;aspect=fixed;fillColor=#FF0000;strokeColor=#FF0000;fontColor=#ffffff;" vertex="1" parent="1">
                    <mxGeometry x="2190" y="-178.15" width="10" height="10" as="geometry"/>
                </mxCell>
                <mxCell id="24" value="" style="ellipse;whiteSpace=wrap;html=1;aspect=fixed;fillColor=#FFFF00;strokeColor=#FFFF00;fontColor=#000000;" vertex="1" parent="1">
                    <mxGeometry x="2204" y="-178.15" width="10" height="10" as="geometry"/>
                </mxCell>
                <mxCell id="25" value="" style="ellipse;whiteSpace=wrap;html=1;aspect=fixed;fillColor=#66CC00;strokeColor=#66CC00;fontColor=#ffffff;" vertex="1" parent="1">
                    <mxGeometry x="2218" y="-178.15" width="10" height="10" as="geometry"/>
                </mxCell>
                <mxCell id="26" value="" style="shape=ext;double=1;rounded=0;whiteSpace=wrap;html=1;strokeColor=#00FFFF;fontFamily=Tahoma;fontSize=45;fontColor=#00FFFF;fillColor=#00FFFF;gradientColor=none;" vertex="1" parent="1">
                    <mxGeometry x="2180" y="-163.15" width="460" height="20" as="geometry"/>
                </mxCell>
                <mxCell id="27" value="" style="endArrow=none;html=1;fontFamily=Tahoma;fontSize=45;fontColor=#00FFFF;fillColor=#0050ef;strokeColor=#001DBC;" edge="1" parent="1">
                    <mxGeometry width="50" height="50" relative="1" as="geometry">
                        <mxPoint x="2603" y="-156.15" as="sourcePoint"/>
                        <mxPoint x="2613" y="-156.15" as="targetPoint"/>
                    </mxGeometry>
                </mxCell>
                <mxCell id="28" value="" style="endArrow=none;html=1;fontFamily=Tahoma;fontSize=45;fontColor=#00FFFF;fillColor=#0050ef;strokeColor=#001DBC;" edge="1" parent="1">
                    <mxGeometry width="50" height="50" relative="1" as="geometry">
                        <mxPoint x="2603" y="-153.15" as="sourcePoint"/>
                        <mxPoint x="2613" y="-153.15" as="targetPoint"/>
                    </mxGeometry>
                </mxCell>
                <mxCell id="29" value="" style="endArrow=none;html=1;fontFamily=Tahoma;fontSize=45;fontColor=#00FFFF;fillColor=#0050ef;strokeColor=#001DBC;" edge="1" parent="1">
                    <mxGeometry width="50" height="50" relative="1" as="geometry">
                        <mxPoint x="2603" y="-150.15" as="sourcePoint"/>
                        <mxPoint x="2613" y="-150.15" as="targetPoint"/>
                    </mxGeometry>
                </mxCell>
                <mxCell id="42" value="" style="rounded=0;whiteSpace=wrap;html=1;fillColor=#f5f5f5;strokeColor=#666666;gradientColor=none;" vertex="1" parent="1">
                    <mxGeometry x="542" y="60" width="440" height="240" as="geometry"/>
                </mxCell>
                <mxCell id="43" value="" style="rounded=0;whiteSpace=wrap;html=1;fillColor=#636363;gradientColor=none;strokeColor=#666666;" vertex="1" parent="1">
                    <mxGeometry x="542" y="60" width="440" height="20" as="geometry"/>
                </mxCell>
                <mxCell id="44" value="" style="ellipse;whiteSpace=wrap;html=1;aspect=fixed;fillColor=#FF0000;strokeColor=#FF0000;fontColor=#ffffff;" vertex="1" parent="1">
                    <mxGeometry x="552" y="65" width="10" height="10" as="geometry"/>
                </mxCell>
                <mxCell id="45" value="" style="ellipse;whiteSpace=wrap;html=1;aspect=fixed;fillColor=#FFFF00;strokeColor=#FFFF00;fontColor=#000000;" vertex="1" parent="1">
                    <mxGeometry x="566" y="65" width="10" height="10" as="geometry"/>
                </mxCell>
                <mxCell id="46" value="" style="ellipse;whiteSpace=wrap;html=1;aspect=fixed;fillColor=#66CC00;strokeColor=#66CC00;fontColor=#ffffff;" vertex="1" parent="1">
                    <mxGeometry x="580" y="65" width="10" height="10" as="geometry"/>
                </mxCell>
                <mxCell id="47" value="" style="shape=ext;double=1;rounded=0;whiteSpace=wrap;html=1;strokeColor=#00FFFF;fontFamily=Tahoma;fontSize=45;fontColor=#00FFFF;fillColor=#00FFFF;gradientColor=none;" vertex="1" parent="1">
                    <mxGeometry x="542" y="80" width="440" height="20" as="geometry"/>
                </mxCell>
                <mxCell id="48" value="" style="endArrow=none;html=1;fontFamily=Tahoma;fontSize=45;fontColor=#00FFFF;fillColor=#0050ef;strokeColor=#001DBC;" edge="1" parent="1">
                    <mxGeometry width="50" height="50" relative="1" as="geometry">
                        <mxPoint x="965" y="87" as="sourcePoint"/>
                        <mxPoint x="975" y="87" as="targetPoint"/>
                    </mxGeometry>
                </mxCell>
                <mxCell id="49" value="" style="endArrow=none;html=1;fontFamily=Tahoma;fontSize=45;fontColor=#00FFFF;fillColor=#0050ef;strokeColor=#001DBC;" edge="1" parent="1">
                    <mxGeometry width="50" height="50" relative="1" as="geometry">
                        <mxPoint x="965" y="90" as="sourcePoint"/>
                        <mxPoint x="975" y="90" as="targetPoint"/>
                    </mxGeometry>
                </mxCell>
                <mxCell id="50" value="" style="endArrow=none;html=1;fontFamily=Tahoma;fontSize=45;fontColor=#00FFFF;fillColor=#0050ef;strokeColor=#001DBC;" edge="1" parent="1">
                    <mxGeometry width="50" height="50" relative="1" as="geometry">
                        <mxPoint x="965" y="93" as="sourcePoint"/>
                        <mxPoint x="975" y="93" as="targetPoint"/>
                    </mxGeometry>
                </mxCell>
                <mxCell id="51" value="" style="endArrow=classic;html=1;fontFamily=Tahoma;fontSize=9;fontColor=#000000;strokeColor=#B20000;fillColor=#e51400;strokeWidth=2;" edge="1" parent="1">
                    <mxGeometry width="50" height="50" relative="1" as="geometry">
                        <mxPoint x="983" y="84" as="sourcePoint"/>
                        <mxPoint x="1010" y="84" as="targetPoint"/>
                    </mxGeometry>
                </mxCell>
                <mxCell id="53" value="" style="shape=ext;double=1;rounded=0;whiteSpace=wrap;html=1;strokeColor=#00FFFF;fontFamily=Tahoma;fontSize=9;fontColor=#000000;fillColor=#00FFFF;gradientColor=none;" vertex="1" parent="1">
                    <mxGeometry x="1010" y="58.85000000000002" width="100" height="120" as="geometry"/>
                </mxCell>
                <mxCell id="54" value="&lt;span style=&quot;font-size: 14px;&quot;&gt;my profile&lt;/span&gt;" style="text;strokeColor=none;fillColor=none;html=1;fontSize=24;fontStyle=1;verticalAlign=middle;align=center;fontFamily=Tahoma;fontColor=#000000;" vertex="1" parent="1">
                    <mxGeometry x="1010" y="68.85000000000002" width="100" height="10" as="geometry"/>
                </mxCell>
                <mxCell id="55" value="&lt;font style=&quot;font-size: 14px;&quot;&gt;shows&lt;/font&gt;" style="text;strokeColor=none;fillColor=none;html=1;fontSize=24;fontStyle=1;verticalAlign=middle;align=center;fontFamily=Tahoma;fontColor=#000000;" vertex="1" parent="1">
                    <mxGeometry x="1010" y="88.85000000000002" width="100" height="10" as="geometry"/>
                </mxCell>
                <mxCell id="56" value="&lt;font style=&quot;font-size: 14px;&quot;&gt;bravolebrities&lt;/font&gt;" style="text;strokeColor=none;fillColor=none;html=1;fontSize=24;fontStyle=1;verticalAlign=middle;align=center;fontFamily=Tahoma;fontColor=#000000;" vertex="1" parent="1">
                    <mxGeometry x="1010" y="108.85000000000002" width="100" height="10" as="geometry"/>
                </mxCell>
                <mxCell id="57" value="&lt;span style=&quot;font-size: 14px;&quot;&gt;locations&lt;/span&gt;" style="text;strokeColor=none;fillColor=none;html=1;fontSize=24;fontStyle=1;verticalAlign=middle;align=center;fontFamily=Tahoma;fontColor=#000000;" vertex="1" parent="1">
                    <mxGeometry x="1010" y="128.85000000000002" width="100" height="10" as="geometry"/>
                </mxCell>
                <mxCell id="58" value="&lt;span style=&quot;font-size: 14px;&quot;&gt;products&lt;/span&gt;" style="text;strokeColor=none;fillColor=none;html=1;fontSize=24;fontStyle=1;verticalAlign=middle;align=center;fontFamily=Tahoma;fontColor=#000000;" vertex="1" parent="1">
                    <mxGeometry x="1010" y="148.85000000000002" width="100" height="10" as="geometry"/>
                </mxCell>
                <mxCell id="31" value="" style="whiteSpace=wrap;html=1;shape=mxgraph.basic.roundRectCallout;dx=30;dy=15;size=5;boundedLbl=1;strokeColor=#000000;fillColor=#000000;" vertex="1" parent="1">
                    <mxGeometry x="667" y="150" width="190" height="110" as="geometry"/>
                </mxCell>
                <mxCell id="32" value="&lt;font style=&quot;font-size: 45px;&quot;&gt;bravo&lt;/font&gt;" style="text;strokeColor=none;fillColor=none;html=1;fontSize=24;fontStyle=1;verticalAlign=middle;align=center;" vertex="1" parent="1">
                    <mxGeometry x="671.5" y="175" width="181" height="42" as="geometry"/>
                </mxCell>
                <mxCell id="33" value="&lt;font color=&quot;#00ffff&quot;&gt;bestie&lt;/font&gt;" style="text;strokeColor=none;fillColor=none;html=1;fontSize=24;fontStyle=1;verticalAlign=middle;align=center;fontFamily=Tahoma;fontColor=#FFFFFF;" vertex="1" parent="1">
                    <mxGeometry x="754.5" y="209" width="100" height="40" as="geometry"/>
                </mxCell>
                <mxCell id="60" value="" style="rounded=0;whiteSpace=wrap;html=1;fillColor=#f5f5f5;strokeColor=#666666;gradientColor=none;" vertex="1" parent="1">
                    <mxGeometry x="1164.3" y="331.85" width="440" height="240" as="geometry"/>
                </mxCell>
                <mxCell id="61" value="" style="rounded=0;whiteSpace=wrap;html=1;fillColor=#636363;gradientColor=none;strokeColor=#666666;" vertex="1" parent="1">
                    <mxGeometry x="1164.3" y="331.85" width="440" height="20" as="geometry"/>
                </mxCell>
                <mxCell id="62" value="" style="ellipse;whiteSpace=wrap;html=1;aspect=fixed;fillColor=#FF0000;strokeColor=#FF0000;fontColor=#ffffff;" vertex="1" parent="1">
                    <mxGeometry x="1174.3" y="336.85" width="10" height="10" as="geometry"/>
                </mxCell>
                <mxCell id="63" value="" style="ellipse;whiteSpace=wrap;html=1;aspect=fixed;fillColor=#FFFF00;strokeColor=#FFFF00;fontColor=#000000;" vertex="1" parent="1">
                    <mxGeometry x="1188.3" y="336.85" width="10" height="10" as="geometry"/>
                </mxCell>
                <mxCell id="64" value="" style="ellipse;whiteSpace=wrap;html=1;aspect=fixed;fillColor=#66CC00;strokeColor=#66CC00;fontColor=#ffffff;" vertex="1" parent="1">
                    <mxGeometry x="1202.3" y="336.85" width="10" height="10" as="geometry"/>
                </mxCell>
                <mxCell id="65" value="" style="shape=ext;double=1;rounded=0;whiteSpace=wrap;html=1;strokeColor=#00FFFF;fontFamily=Tahoma;fontSize=45;fontColor=#00FFFF;fillColor=#00FFFF;gradientColor=none;" vertex="1" parent="1">
                    <mxGeometry x="1164.3" y="351.85" width="440" height="20" as="geometry"/>
                </mxCell>
                <mxCell id="66" value="" style="endArrow=none;html=1;fontFamily=Tahoma;fontSize=45;fontColor=#00FFFF;fillColor=#0050ef;strokeColor=#001DBC;" edge="1" parent="1">
                    <mxGeometry width="50" height="50" relative="1" as="geometry">
                        <mxPoint x="1587.3" y="358.85" as="sourcePoint"/>
                        <mxPoint x="1597.3" y="358.85" as="targetPoint"/>
                    </mxGeometry>
                </mxCell>
                <mxCell id="67" value="" style="endArrow=none;html=1;fontFamily=Tahoma;fontSize=45;fontColor=#00FFFF;fillColor=#0050ef;strokeColor=#001DBC;" edge="1" parent="1">
                    <mxGeometry width="50" height="50" relative="1" as="geometry">
                        <mxPoint x="1587.3" y="361.85" as="sourcePoint"/>
                        <mxPoint x="1597.3" y="361.85" as="targetPoint"/>
                    </mxGeometry>
                </mxCell>
                <mxCell id="68" value="" style="endArrow=none;html=1;fontFamily=Tahoma;fontSize=45;fontColor=#00FFFF;fillColor=#0050ef;strokeColor=#001DBC;" edge="1" parent="1">
                    <mxGeometry width="50" height="50" relative="1" as="geometry">
                        <mxPoint x="1587.3" y="364.85" as="sourcePoint"/>
                        <mxPoint x="1597.3" y="364.85" as="targetPoint"/>
                    </mxGeometry>
                </mxCell>
                <mxCell id="69" value="Shows" style="text;strokeColor=none;fillColor=none;html=1;fontSize=24;fontStyle=1;verticalAlign=middle;align=center;labelBackgroundColor=none;fontFamily=Tahoma;fontColor=#000000;" vertex="1" parent="1">
                    <mxGeometry x="1334.3" y="371.85" width="100" height="30" as="geometry"/>
                </mxCell>
                <mxCell id="70" value="" style="rounded=1;whiteSpace=wrap;html=1;labelBackgroundColor=none;fontFamily=Tahoma;fontSize=23;fillColor=none;strokeColor=#000000;" vertex="1" parent="1">
                    <mxGeometry x="1212.3" y="501.85" width="90" height="50" as="geometry"/>
                </mxCell>
                <mxCell id="71" value="" style="rounded=1;whiteSpace=wrap;html=1;labelBackgroundColor=none;fontFamily=Tahoma;fontSize=23;fillColor=none;strokeColor=#000000;" vertex="1" parent="1">
                    <mxGeometry x="1212.3" y="441.85" width="90" height="50" as="geometry"/>
                </mxCell>
                <mxCell id="72" value="" style="rounded=1;whiteSpace=wrap;html=1;labelBackgroundColor=none;fontFamily=Tahoma;fontSize=23;fillColor=none;strokeColor=#000000;" vertex="1" parent="1">
                    <mxGeometry x="1339.3" y="441.85" width="90" height="50" as="geometry"/>
                </mxCell>
                <mxCell id="73" value="" style="rounded=1;whiteSpace=wrap;html=1;labelBackgroundColor=none;fontFamily=Tahoma;fontSize=23;fillColor=none;strokeColor=#000000;" vertex="1" parent="1">
                    <mxGeometry x="1339.3" y="501.85" width="90" height="50" as="geometry"/>
                </mxCell>
                <mxCell id="74" value="" style="rounded=1;whiteSpace=wrap;html=1;labelBackgroundColor=none;fontFamily=Tahoma;fontSize=23;fillColor=none;strokeColor=#000000;" vertex="1" parent="1">
                    <mxGeometry x="1464.3" y="501.85" width="90" height="50" as="geometry"/>
                </mxCell>
                <mxCell id="75" value="" style="rounded=1;whiteSpace=wrap;html=1;labelBackgroundColor=none;fontFamily=Tahoma;fontSize=23;fillColor=none;strokeColor=#000000;" vertex="1" parent="1">
                    <mxGeometry x="1464.3" y="441.85" width="90" height="50" as="geometry"/>
                </mxCell>
                <mxCell id="76" value="" style="rounded=1;whiteSpace=wrap;html=1;labelBackgroundColor=none;fontFamily=Tahoma;fontSize=23;fillColor=none;strokeColor=#000000;" vertex="1" parent="1">
                    <mxGeometry x="1224.3" y="411.85" width="320" height="20" as="geometry"/>
                </mxCell>
                <mxCell id="77" value="&lt;font style=&quot;font-size: 11px;&quot;&gt;search&lt;/font&gt;" style="text;html=1;strokeColor=none;fillColor=none;align=center;verticalAlign=middle;whiteSpace=wrap;rounded=0;labelBackgroundColor=none;fontFamily=Tahoma;fontSize=23;fontColor=#000000;" vertex="1" parent="1">
                    <mxGeometry x="1228.8" y="401.85" width="57" height="30" as="geometry"/>
                </mxCell>
                <mxCell id="81" value="" style="endArrow=classic;html=1;fontFamily=Tahoma;fontSize=9;fontColor=#000000;strokeColor=#B20000;fillColor=#e51400;entryX=-0.003;entryY=0.966;entryDx=0;entryDy=0;entryPerimeter=0;strokeWidth=2;" edge="1" parent="1" target="21">
                    <mxGeometry width="50" height="50" relative="1" as="geometry">
                        <mxPoint x="1544.3" y="470.35" as="sourcePoint"/>
                        <mxPoint x="1669" y="370" as="targetPoint"/>
                        <Array as="points">
                            <mxPoint x="1630" y="470"/>
                            <mxPoint x="1630" y="270"/>
                        </Array>
                    </mxGeometry>
                </mxCell>
                <mxCell id="82" value="Show Title" style="text;strokeColor=none;fillColor=none;html=1;fontSize=24;fontStyle=1;verticalAlign=middle;align=center;labelBackgroundColor=none;fontFamily=Tahoma;fontColor=#000000;" vertex="1" parent="1">
                    <mxGeometry x="2370" y="-143.15" width="100" height="30" as="geometry"/>
                </mxCell>
                <mxCell id="83" value="" style="rounded=1;whiteSpace=wrap;html=1;labelBackgroundColor=none;fontFamily=Tahoma;fontSize=23;fillColor=none;strokeColor=#000000;" vertex="1" parent="1">
                    <mxGeometry x="2218" y="-98.15" width="182" height="185" as="geometry"/>
                </mxCell>
                <mxCell id="84" value="img" style="text;html=1;align=center;verticalAlign=middle;resizable=0;points=[];autosize=1;strokeColor=none;fillColor=none;fontSize=11;fontFamily=Tahoma;fontColor=#000000;labelBackgroundColor=none;" vertex="1" parent="1">
                    <mxGeometry x="1364.3" y="451.85" width="40" height="30" as="geometry"/>
                </mxCell>
                <mxCell id="85" value="img" style="text;html=1;align=center;verticalAlign=middle;resizable=0;points=[];autosize=1;strokeColor=none;fillColor=none;fontSize=11;fontFamily=Tahoma;fontColor=#000000;labelBackgroundColor=none;" vertex="1" parent="1">
                    <mxGeometry x="1489.3" y="451.85" width="40" height="30" as="geometry"/>
                </mxCell>
                <mxCell id="86" value="img" style="text;html=1;align=center;verticalAlign=middle;resizable=0;points=[];autosize=1;strokeColor=none;fillColor=none;fontSize=11;fontFamily=Tahoma;fontColor=#000000;labelBackgroundColor=none;" vertex="1" parent="1">
                    <mxGeometry x="1237.3" y="451.85" width="40" height="30" as="geometry"/>
                </mxCell>
                <mxCell id="87" value="img" style="text;html=1;align=center;verticalAlign=middle;resizable=0;points=[];autosize=1;strokeColor=none;fillColor=none;fontSize=11;fontFamily=Tahoma;fontColor=#000000;labelBackgroundColor=none;" vertex="1" parent="1">
                    <mxGeometry x="1237.3" y="511.85" width="40" height="30" as="geometry"/>
                </mxCell>
                <mxCell id="88" value="img" style="text;html=1;align=center;verticalAlign=middle;resizable=0;points=[];autosize=1;strokeColor=none;fillColor=none;fontSize=11;fontFamily=Tahoma;fontColor=#000000;labelBackgroundColor=none;" vertex="1" parent="1">
                    <mxGeometry x="1364.3" y="511.85" width="40" height="30" as="geometry"/>
                </mxCell>
                <mxCell id="89" value="img" style="text;html=1;align=center;verticalAlign=middle;resizable=0;points=[];autosize=1;strokeColor=none;fillColor=none;fontSize=11;fontFamily=Tahoma;fontColor=#000000;labelBackgroundColor=none;" vertex="1" parent="1">
                    <mxGeometry x="1489.3" y="511.85" width="40" height="30" as="geometry"/>
                </mxCell>
                <mxCell id="90" value="img" style="text;html=1;align=center;verticalAlign=middle;resizable=0;points=[];autosize=1;strokeColor=none;fillColor=none;fontSize=11;fontFamily=Tahoma;fontColor=#000000;labelBackgroundColor=none;" vertex="1" parent="1">
                    <mxGeometry x="2290" y="-20.65" width="40" height="30" as="geometry"/>
                </mxCell>
                <mxCell id="92" value="" style="rounded=0;whiteSpace=wrap;html=1;labelBackgroundColor=none;strokeColor=#000000;fontFamily=Tahoma;fontSize=11;fontColor=#000000;fillColor=none;gradientColor=none;" vertex="1" parent="1">
                    <mxGeometry x="2440" y="-98.15" width="168" height="190" as="geometry"/>
                </mxCell>
                <mxCell id="91" value="" style="triangle;whiteSpace=wrap;html=1;labelBackgroundColor=none;strokeColor=#000000;fontFamily=Tahoma;fontSize=11;fontColor=#000000;fillColor=default;gradientColor=none;rotation=90;" vertex="1" parent="1">
                    <mxGeometry x="2458" y="-92.65" width="5" height="9" as="geometry"/>
                </mxCell>
                <mxCell id="94" value="&lt;font style=&quot;font-size: 12px;&quot;&gt;Season 1&lt;/font&gt;" style="text;strokeColor=none;fillColor=none;html=1;fontSize=24;fontStyle=1;verticalAlign=middle;align=center;labelBackgroundColor=none;fontFamily=Tahoma;fontColor=#000000;" vertex="1" parent="1">
                    <mxGeometry x="2480" y="-102.15" width="80" height="20" as="geometry"/>
                </mxCell>
                <mxCell id="95" value="&lt;font style=&quot;font-size: 11px;&quot;&gt;Episode 1&lt;/font&gt;" style="text;html=1;strokeColor=none;fillColor=none;align=center;verticalAlign=middle;whiteSpace=wrap;rounded=0;labelBackgroundColor=none;fontFamily=Tahoma;fontSize=12;fontColor=#000000;" vertex="1" parent="1">
                    <mxGeometry x="2499" y="-86.65" width="60" height="30" as="geometry"/>
                </mxCell>
                <mxCell id="100" value="" style="edgeStyle=none;html=1;exitX=0.25;exitY=0;exitDx=0;exitDy=0;strokeColor=#FFFFFF;fontFamily=Tahoma;fontSize=12;fontColor=#000000;endArrow=none;" edge="1" parent="1" target="99">
                    <mxGeometry relative="1" as="geometry">
                        <mxPoint x="2481.935483870968" y="-92.65" as="sourcePoint"/>
                        <mxPoint x="2479.032258064516" y="-100.15" as="targetPoint"/>
                    </mxGeometry>
                </mxCell>
                <mxCell id="99" value="" style="rounded=0;whiteSpace=wrap;html=1;labelBackgroundColor=none;strokeColor=#000000;fontFamily=Tahoma;fontSize=12;fontColor=#000000;fillColor=none;gradientColor=none;" vertex="1" parent="1">
                    <mxGeometry x="2478" y="-93.15" width="10" height="10" as="geometry"/>
                </mxCell>
                <mxCell id="101" value="" style="rounded=0;whiteSpace=wrap;html=1;labelBackgroundColor=none;strokeColor=#000000;fontFamily=Tahoma;fontSize=12;fontColor=#000000;fillColor=none;gradientColor=none;" vertex="1" parent="1">
                    <mxGeometry x="2492" y="-76.15" width="10" height="10" as="geometry"/>
                </mxCell>
                <mxCell id="102" value="&lt;font style=&quot;font-size: 8px;&quot;&gt;episode description&lt;/font&gt;" style="text;html=1;strokeColor=none;fillColor=none;align=center;verticalAlign=middle;whiteSpace=wrap;rounded=0;labelBackgroundColor=none;fontFamily=Tahoma;fontSize=11;fontColor=#000000;" vertex="1" parent="1">
                    <mxGeometry x="2501" y="-72.15" width="89" height="30" as="geometry"/>
                </mxCell>
                <mxCell id="104" value="&lt;font style=&quot;font-size: 8px;&quot;&gt;episode description&lt;/font&gt;" style="text;html=1;strokeColor=none;fillColor=none;align=center;verticalAlign=middle;whiteSpace=wrap;rounded=0;labelBackgroundColor=none;fontFamily=Tahoma;fontSize=11;fontColor=#000000;" vertex="1" parent="1">
                    <mxGeometry x="2500" y="-45.15" width="89" height="30" as="geometry"/>
                </mxCell>
                <mxCell id="105" value="&lt;font style=&quot;font-size: 11px;&quot;&gt;Episode 2&lt;/font&gt;" style="text;html=1;strokeColor=none;fillColor=none;align=center;verticalAlign=middle;whiteSpace=wrap;rounded=0;labelBackgroundColor=none;fontFamily=Tahoma;fontSize=12;fontColor=#000000;" vertex="1" parent="1">
                    <mxGeometry x="2499" y="-59.15" width="60" height="30" as="geometry"/>
                </mxCell>
                <mxCell id="107" value="" style="rounded=0;whiteSpace=wrap;html=1;labelBackgroundColor=none;strokeColor=#000000;fontFamily=Tahoma;fontSize=12;fontColor=#000000;fillColor=none;gradientColor=none;" vertex="1" parent="1">
                    <mxGeometry x="2493" y="-49.15" width="10" height="10" as="geometry"/>
                </mxCell>
                <mxCell id="109" value="" style="triangle;whiteSpace=wrap;html=1;labelBackgroundColor=none;strokeColor=#000000;fontFamily=Tahoma;fontSize=11;fontColor=#000000;fillColor=default;gradientColor=none;rotation=90;" vertex="1" parent="1">
                    <mxGeometry x="2458" y="-19.65" width="5" height="9" as="geometry"/>
                </mxCell>
                <mxCell id="110" value="&lt;font style=&quot;font-size: 12px;&quot;&gt;Season 2&lt;/font&gt;" style="text;strokeColor=none;fillColor=none;html=1;fontSize=24;fontStyle=1;verticalAlign=middle;align=center;labelBackgroundColor=none;fontFamily=Tahoma;fontColor=#000000;" vertex="1" parent="1">
                    <mxGeometry x="2480" y="-29.150000000000006" width="80" height="20" as="geometry"/>
                </mxCell>
                <mxCell id="111" value="&lt;font style=&quot;font-size: 11px;&quot;&gt;Episode 1&lt;/font&gt;" style="text;html=1;strokeColor=none;fillColor=none;align=center;verticalAlign=middle;whiteSpace=wrap;rounded=0;labelBackgroundColor=none;fontFamily=Tahoma;fontSize=12;fontColor=#000000;" vertex="1" parent="1">
                    <mxGeometry x="2499" y="-13.649999999999999" width="60" height="30" as="geometry"/>
                </mxCell>
                <mxCell id="112" value="" style="edgeStyle=none;html=1;exitX=0.25;exitY=0;exitDx=0;exitDy=0;strokeColor=#FFFFFF;fontFamily=Tahoma;fontSize=12;fontColor=#000000;endArrow=none;" edge="1" parent="1" target="113">
                    <mxGeometry relative="1" as="geometry">
                        <mxPoint x="2481.935483870968" y="-19.65" as="sourcePoint"/>
                        <mxPoint x="2479.032258064516" y="-27.15" as="targetPoint"/>
                    </mxGeometry>
                </mxCell>
                <mxCell id="113" value="" style="rounded=0;whiteSpace=wrap;html=1;labelBackgroundColor=none;strokeColor=#000000;fontFamily=Tahoma;fontSize=12;fontColor=#000000;fillColor=none;gradientColor=none;" vertex="1" parent="1">
                    <mxGeometry x="2478" y="-20.15" width="10" height="10" as="geometry"/>
                </mxCell>
                <mxCell id="114" value="" style="rounded=0;whiteSpace=wrap;html=1;labelBackgroundColor=none;strokeColor=#000000;fontFamily=Tahoma;fontSize=12;fontColor=#000000;fillColor=none;gradientColor=none;" vertex="1" parent="1">
                    <mxGeometry x="2492" y="-3.1499999999999986" width="10" height="10" as="geometry"/>
                </mxCell>
                <mxCell id="115" value="&lt;font style=&quot;font-size: 8px;&quot;&gt;episode description&lt;/font&gt;" style="text;html=1;strokeColor=none;fillColor=none;align=center;verticalAlign=middle;whiteSpace=wrap;rounded=0;labelBackgroundColor=none;fontFamily=Tahoma;fontSize=11;fontColor=#000000;" vertex="1" parent="1">
                    <mxGeometry x="2501" y="0.8500000000000014" width="89" height="30" as="geometry"/>
                </mxCell>
                <mxCell id="116" value="&lt;font style=&quot;font-size: 8px;&quot;&gt;episode description&lt;/font&gt;" style="text;html=1;strokeColor=none;fillColor=none;align=center;verticalAlign=middle;whiteSpace=wrap;rounded=0;labelBackgroundColor=none;fontFamily=Tahoma;fontSize=11;fontColor=#000000;" vertex="1" parent="1">
                    <mxGeometry x="2500" y="27.85" width="89" height="30" as="geometry"/>
                </mxCell>
                <mxCell id="117" value="&lt;font style=&quot;font-size: 11px;&quot;&gt;Episode 2&lt;/font&gt;" style="text;html=1;strokeColor=none;fillColor=none;align=center;verticalAlign=middle;whiteSpace=wrap;rounded=0;labelBackgroundColor=none;fontFamily=Tahoma;fontSize=12;fontColor=#000000;" vertex="1" parent="1">
                    <mxGeometry x="2499" y="13.850000000000001" width="60" height="30" as="geometry"/>
                </mxCell>
                <mxCell id="118" value="" style="rounded=0;whiteSpace=wrap;html=1;labelBackgroundColor=none;strokeColor=#000000;fontFamily=Tahoma;fontSize=12;fontColor=#000000;fillColor=none;gradientColor=none;" vertex="1" parent="1">
                    <mxGeometry x="2493" y="23.85" width="10" height="10" as="geometry"/>
                </mxCell>
                <mxCell id="128" value="" style="triangle;whiteSpace=wrap;html=1;labelBackgroundColor=none;strokeColor=#000000;fontFamily=Tahoma;fontSize=11;fontColor=#000000;fillColor=default;gradientColor=none;rotation=0;" vertex="1" parent="1">
                    <mxGeometry x="2460" y="53.349999999999994" width="5" height="9" as="geometry"/>
                </mxCell>
                <mxCell id="129" value="&lt;font style=&quot;font-size: 12px;&quot;&gt;Season 4&lt;/font&gt;" style="text;strokeColor=none;fillColor=none;html=1;fontSize=24;fontStyle=1;verticalAlign=middle;align=center;labelBackgroundColor=none;fontFamily=Tahoma;fontColor=#000000;" vertex="1" parent="1">
                    <mxGeometry x="2482" y="43.85" width="80" height="20" as="geometry"/>
                </mxCell>
                <mxCell id="130" value="" style="edgeStyle=none;html=1;exitX=0.25;exitY=0;exitDx=0;exitDy=0;strokeColor=#FFFFFF;fontFamily=Tahoma;fontSize=12;fontColor=#000000;endArrow=none;" edge="1" parent="1" target="131">
                    <mxGeometry relative="1" as="geometry">
                        <mxPoint x="2483.935483870968" y="53.349999999999994" as="sourcePoint"/>
                        <mxPoint x="2481.032258064516" y="45.85" as="targetPoint"/>
                    </mxGeometry>
                </mxCell>
                <mxCell id="131" value="" style="rounded=0;whiteSpace=wrap;html=1;labelBackgroundColor=none;strokeColor=#000000;fontFamily=Tahoma;fontSize=12;fontColor=#000000;fillColor=none;gradientColor=none;" vertex="1" parent="1">
                    <mxGeometry x="2480" y="52.849999999999994" width="10" height="10" as="geometry"/>
                </mxCell>
                <mxCell id="133" value="&lt;font style=&quot;font-size: 12px;&quot;&gt;Season 5&lt;/font&gt;" style="text;strokeColor=none;fillColor=none;html=1;fontSize=24;fontStyle=1;verticalAlign=middle;align=center;labelBackgroundColor=none;fontFamily=Tahoma;fontColor=#000000;" vertex="1" parent="1">
                    <mxGeometry x="2482" y="60.849999999999994" width="80" height="20" as="geometry"/>
                </mxCell>
                <mxCell id="134" value="" style="edgeStyle=none;html=1;exitX=0.25;exitY=0;exitDx=0;exitDy=0;strokeColor=#FFFFFF;fontFamily=Tahoma;fontSize=12;fontColor=#000000;endArrow=none;" edge="1" parent="1" target="135">
                    <mxGeometry relative="1" as="geometry">
                        <mxPoint x="2483.935483870968" y="70.35" as="sourcePoint"/>
                        <mxPoint x="2481.032258064516" y="62.849999999999994" as="targetPoint"/>
                    </mxGeometry>
                </mxCell>
                <mxCell id="135" value="" style="rounded=0;whiteSpace=wrap;html=1;labelBackgroundColor=none;strokeColor=#000000;fontFamily=Tahoma;fontSize=12;fontColor=#000000;fillColor=none;gradientColor=none;" vertex="1" parent="1">
                    <mxGeometry x="2480" y="69.85" width="10" height="10" as="geometry"/>
                </mxCell>
                <mxCell id="136" value="" style="triangle;whiteSpace=wrap;html=1;labelBackgroundColor=none;strokeColor=#000000;fontFamily=Tahoma;fontSize=11;fontColor=#000000;fillColor=default;gradientColor=none;rotation=0;" vertex="1" parent="1">
                    <mxGeometry x="2460" y="69.35" width="5" height="9" as="geometry"/>
                </mxCell>
                <mxCell id="137" value="&lt;font style=&quot;font-size: 17px;&quot;&gt;Cast&lt;/font&gt;" style="text;strokeColor=none;fillColor=none;html=1;fontSize=24;fontStyle=1;verticalAlign=middle;align=center;labelBackgroundColor=none;fontFamily=Tahoma;fontColor=#000000;" vertex="1" parent="1">
                    <mxGeometry x="2360" y="106.85" width="100" height="30" as="geometry"/>
                </mxCell>
                <mxCell id="138" value="" style="rounded=1;whiteSpace=wrap;html=1;labelBackgroundColor=none;fontFamily=Tahoma;fontSize=23;fillColor=none;strokeColor=#FFFFFF;" vertex="1" parent="1">
                    <mxGeometry x="1990" y="1945" width="90" height="50" as="geometry"/>
                </mxCell>
                <mxCell id="139" value="" style="rounded=1;whiteSpace=wrap;html=1;labelBackgroundColor=none;fontFamily=Tahoma;fontSize=23;fillColor=none;strokeColor=#FFFFFF;" vertex="1" parent="1">
                    <mxGeometry x="2090" y="1945" width="90" height="50" as="geometry"/>
                </mxCell>
                <mxCell id="140" value="" style="rounded=1;whiteSpace=wrap;html=1;labelBackgroundColor=none;fontFamily=Tahoma;fontSize=23;fillColor=none;strokeColor=#FFFFFF;" vertex="1" parent="1">
                    <mxGeometry x="2190" y="1945" width="90" height="50" as="geometry"/>
                </mxCell>
                <mxCell id="141" value="" style="rounded=1;whiteSpace=wrap;html=1;labelBackgroundColor=none;fontFamily=Tahoma;fontSize=23;fillColor=none;strokeColor=#000000;" vertex="1" parent="1">
                    <mxGeometry x="2215" y="146.85" width="90" height="50" as="geometry"/>
                </mxCell>
                <mxCell id="142" value="" style="rounded=1;whiteSpace=wrap;html=1;labelBackgroundColor=none;fontFamily=Tahoma;fontSize=23;fillColor=none;strokeColor=#000000;" vertex="1" parent="1">
                    <mxGeometry x="2315" y="146.85" width="90" height="50" as="geometry"/>
                </mxCell>
                <mxCell id="143" value="" style="rounded=1;whiteSpace=wrap;html=1;labelBackgroundColor=none;fontFamily=Tahoma;fontSize=23;fillColor=none;strokeColor=#000000;" vertex="1" parent="1">
                    <mxGeometry x="2415" y="146.85" width="90" height="50" as="geometry"/>
                </mxCell>
                <mxCell id="144" value="" style="rounded=1;whiteSpace=wrap;html=1;labelBackgroundColor=none;fontFamily=Tahoma;fontSize=23;fillColor=none;strokeColor=#000000;" vertex="1" parent="1">
                    <mxGeometry x="2215" y="206.85" width="90" height="50" as="geometry"/>
                </mxCell>
                <mxCell id="145" value="" style="rounded=1;whiteSpace=wrap;html=1;labelBackgroundColor=none;fontFamily=Tahoma;fontSize=23;fillColor=none;strokeColor=#000000;" vertex="1" parent="1">
                    <mxGeometry x="2315" y="206.85" width="90" height="50" as="geometry"/>
                </mxCell>
                <mxCell id="146" value="" style="rounded=1;whiteSpace=wrap;html=1;labelBackgroundColor=none;fontFamily=Tahoma;fontSize=23;fillColor=none;strokeColor=#000000;" vertex="1" parent="1">
                    <mxGeometry x="2415" y="206.85" width="90" height="50" as="geometry"/>
                </mxCell>
                <mxCell id="147" value="" style="rounded=1;whiteSpace=wrap;html=1;labelBackgroundColor=none;fontFamily=Tahoma;fontSize=23;fillColor=none;strokeColor=#000000;" vertex="1" parent="1">
                    <mxGeometry x="2516" y="206.85" width="90" height="50" as="geometry"/>
                </mxCell>
                <mxCell id="148" value="" style="rounded=1;whiteSpace=wrap;html=1;labelBackgroundColor=none;fontFamily=Tahoma;fontSize=23;fillColor=none;strokeColor=#000000;" vertex="1" parent="1">
                    <mxGeometry x="2516" y="146.85" width="90" height="50" as="geometry"/>
                </mxCell>
                <mxCell id="152" value="" style="rounded=0;whiteSpace=wrap;html=1;fillColor=#f5f5f5;strokeColor=#666666;gradientColor=none;" vertex="1" parent="1">
                    <mxGeometry x="1164.3" y="621.85" width="440" height="240" as="geometry"/>
                </mxCell>
                <mxCell id="153" value="" style="rounded=0;whiteSpace=wrap;html=1;fillColor=#636363;gradientColor=none;strokeColor=#666666;" vertex="1" parent="1">
                    <mxGeometry x="1164.3" y="621.85" width="440" height="20" as="geometry"/>
                </mxCell>
                <mxCell id="154" value="" style="ellipse;whiteSpace=wrap;html=1;aspect=fixed;fillColor=#FF0000;strokeColor=#FF0000;fontColor=#ffffff;" vertex="1" parent="1">
                    <mxGeometry x="1174.3" y="626.85" width="10" height="10" as="geometry"/>
                </mxCell>
                <mxCell id="155" value="" style="ellipse;whiteSpace=wrap;html=1;aspect=fixed;fillColor=#FFFF00;strokeColor=#FFFF00;fontColor=#000000;" vertex="1" parent="1">
                    <mxGeometry x="1188.3" y="626.85" width="10" height="10" as="geometry"/>
                </mxCell>
                <mxCell id="156" value="" style="ellipse;whiteSpace=wrap;html=1;aspect=fixed;fillColor=#66CC00;strokeColor=#66CC00;fontColor=#ffffff;" vertex="1" parent="1">
                    <mxGeometry x="1202.3" y="626.85" width="10" height="10" as="geometry"/>
                </mxCell>
                <mxCell id="157" value="" style="shape=ext;double=1;rounded=0;whiteSpace=wrap;html=1;strokeColor=#00FFFF;fontFamily=Tahoma;fontSize=45;fontColor=#00FFFF;fillColor=#00FFFF;gradientColor=none;" vertex="1" parent="1">
                    <mxGeometry x="1164.3" y="641.85" width="440" height="20" as="geometry"/>
                </mxCell>
                <mxCell id="158" value="" style="endArrow=none;html=1;fontFamily=Tahoma;fontSize=45;fontColor=#00FFFF;fillColor=#0050ef;strokeColor=#001DBC;" edge="1" parent="1">
                    <mxGeometry width="50" height="50" relative="1" as="geometry">
                        <mxPoint x="1587.3" y="648.85" as="sourcePoint"/>
                        <mxPoint x="1597.3" y="648.85" as="targetPoint"/>
                    </mxGeometry>
                </mxCell>
                <mxCell id="159" value="" style="endArrow=none;html=1;fontFamily=Tahoma;fontSize=45;fontColor=#00FFFF;fillColor=#0050ef;strokeColor=#001DBC;" edge="1" parent="1">
                    <mxGeometry width="50" height="50" relative="1" as="geometry">
                        <mxPoint x="1587.3" y="651.85" as="sourcePoint"/>
                        <mxPoint x="1597.3" y="651.85" as="targetPoint"/>
                    </mxGeometry>
                </mxCell>
                <mxCell id="160" value="" style="endArrow=none;html=1;fontFamily=Tahoma;fontSize=45;fontColor=#00FFFF;fillColor=#0050ef;strokeColor=#001DBC;" edge="1" parent="1">
                    <mxGeometry width="50" height="50" relative="1" as="geometry">
                        <mxPoint x="1587.3" y="654.85" as="sourcePoint"/>
                        <mxPoint x="1597.3" y="654.85" as="targetPoint"/>
                    </mxGeometry>
                </mxCell>
                <mxCell id="161" value="Bravolebs" style="text;strokeColor=none;fillColor=none;html=1;fontSize=24;fontStyle=1;verticalAlign=middle;align=center;labelBackgroundColor=none;fontFamily=Tahoma;fontColor=#000000;" vertex="1" parent="1">
                    <mxGeometry x="1334.3" y="661.85" width="100" height="30" as="geometry"/>
                </mxCell>
                <mxCell id="162" value="" style="rounded=1;whiteSpace=wrap;html=1;labelBackgroundColor=none;fontFamily=Tahoma;fontSize=23;fillColor=none;strokeColor=#000000;" vertex="1" parent="1">
                    <mxGeometry x="1212.3" y="791.85" width="90" height="50" as="geometry"/>
                </mxCell>
                <mxCell id="163" value="" style="rounded=1;whiteSpace=wrap;html=1;labelBackgroundColor=none;fontFamily=Tahoma;fontSize=23;fillColor=none;strokeColor=#000000;" vertex="1" parent="1">
                    <mxGeometry x="1212.3" y="731.85" width="90" height="50" as="geometry"/>
                </mxCell>
                <mxCell id="164" value="" style="rounded=1;whiteSpace=wrap;html=1;labelBackgroundColor=none;fontFamily=Tahoma;fontSize=23;fillColor=none;strokeColor=#000000;" vertex="1" parent="1">
                    <mxGeometry x="1339.3" y="731.85" width="90" height="50" as="geometry"/>
                </mxCell>
                <mxCell id="165" value="" style="rounded=1;whiteSpace=wrap;html=1;labelBackgroundColor=none;fontFamily=Tahoma;fontSize=23;fillColor=none;strokeColor=#000000;" vertex="1" parent="1">
                    <mxGeometry x="1339.3" y="791.85" width="90" height="50" as="geometry"/>
                </mxCell>
                <mxCell id="166" value="" style="rounded=1;whiteSpace=wrap;html=1;labelBackgroundColor=none;fontFamily=Tahoma;fontSize=23;fillColor=none;strokeColor=#000000;" vertex="1" parent="1">
                    <mxGeometry x="1464.3" y="791.85" width="90" height="50" as="geometry"/>
                </mxCell>
                <mxCell id="167" value="" style="rounded=1;whiteSpace=wrap;html=1;labelBackgroundColor=none;fontFamily=Tahoma;fontSize=23;fillColor=none;strokeColor=#000000;" vertex="1" parent="1">
                    <mxGeometry x="1464.3" y="731.85" width="90" height="50" as="geometry"/>
                </mxCell>
                <mxCell id="168" value="" style="rounded=1;whiteSpace=wrap;html=1;labelBackgroundColor=none;fontFamily=Tahoma;fontSize=23;fillColor=none;strokeColor=#000000;" vertex="1" parent="1">
                    <mxGeometry x="1254.3" y="701.85" width="110" height="20" as="geometry"/>
                </mxCell>
                <mxCell id="169" value="&lt;font style=&quot;font-size: 11px;&quot;&gt;search&lt;/font&gt;" style="text;html=1;strokeColor=none;fillColor=none;align=center;verticalAlign=middle;whiteSpace=wrap;rounded=0;labelBackgroundColor=none;fontFamily=Tahoma;fontSize=23;fontColor=#000000;" vertex="1" parent="1">
                    <mxGeometry x="1280.8" y="691.85" width="57" height="30" as="geometry"/>
                </mxCell>
                <mxCell id="170" value="img" style="text;html=1;align=center;verticalAlign=middle;resizable=0;points=[];autosize=1;strokeColor=none;fillColor=none;fontSize=11;fontFamily=Tahoma;fontColor=#000000;labelBackgroundColor=none;" vertex="1" parent="1">
                    <mxGeometry x="1364.3" y="741.85" width="40" height="30" as="geometry"/>
                </mxCell>
                <mxCell id="171" value="img" style="text;html=1;align=center;verticalAlign=middle;resizable=0;points=[];autosize=1;strokeColor=none;fillColor=none;fontSize=11;fontFamily=Tahoma;fontColor=#000000;labelBackgroundColor=none;" vertex="1" parent="1">
                    <mxGeometry x="1489.3" y="741.85" width="40" height="30" as="geometry"/>
                </mxCell>
                <mxCell id="172" value="img" style="text;html=1;align=center;verticalAlign=middle;resizable=0;points=[];autosize=1;strokeColor=none;fillColor=none;fontSize=11;fontFamily=Tahoma;fontColor=#000000;labelBackgroundColor=none;" vertex="1" parent="1">
                    <mxGeometry x="1237.3" y="741.85" width="40" height="30" as="geometry"/>
                </mxCell>
                <mxCell id="173" value="img" style="text;html=1;align=center;verticalAlign=middle;resizable=0;points=[];autosize=1;strokeColor=none;fillColor=none;fontSize=11;fontFamily=Tahoma;fontColor=#000000;labelBackgroundColor=none;" vertex="1" parent="1">
                    <mxGeometry x="1237.3" y="801.85" width="40" height="30" as="geometry"/>
                </mxCell>
                <mxCell id="174" value="img" style="text;html=1;align=center;verticalAlign=middle;resizable=0;points=[];autosize=1;strokeColor=none;fillColor=none;fontSize=11;fontFamily=Tahoma;fontColor=#000000;labelBackgroundColor=none;" vertex="1" parent="1">
                    <mxGeometry x="1364.3" y="801.85" width="40" height="30" as="geometry"/>
                </mxCell>
                <mxCell id="175" value="img" style="text;html=1;align=center;verticalAlign=middle;resizable=0;points=[];autosize=1;strokeColor=none;fillColor=none;fontSize=11;fontFamily=Tahoma;fontColor=#000000;labelBackgroundColor=none;" vertex="1" parent="1">
                    <mxGeometry x="1489.3" y="801.85" width="40" height="30" as="geometry"/>
                </mxCell>
                <mxCell id="176" value="" style="rounded=1;whiteSpace=wrap;html=1;labelBackgroundColor=none;fontFamily=Tahoma;fontSize=23;fillColor=none;strokeColor=#000000;" vertex="1" parent="1">
                    <mxGeometry x="1394.3" y="701.85" width="110" height="20" as="geometry"/>
                </mxCell>
                <mxCell id="177" value="&lt;font style=&quot;font-size: 11px;&quot;&gt;⌄&amp;nbsp; filter by show&lt;/font&gt;" style="text;html=1;strokeColor=none;fillColor=none;align=center;verticalAlign=middle;whiteSpace=wrap;rounded=0;labelBackgroundColor=none;fontFamily=Tahoma;fontSize=23;fontColor=#000000;" vertex="1" parent="1">
                    <mxGeometry x="1388.8" y="691.85" width="101.5" height="30" as="geometry"/>
                </mxCell>
                <mxCell id="180" value="" style="endArrow=classic;html=1;fontFamily=Tahoma;fontSize=9;fontColor=#000000;strokeColor=#B20000;fillColor=#e51400;entryX=1.009;entryY=0.275;entryDx=0;entryDy=0;entryPerimeter=0;exitX=0.5;exitY=1;exitDx=0;exitDy=0;strokeWidth=2;" edge="1" parent="1" source="144" target="189">
                    <mxGeometry width="50" height="50" relative="1" as="geometry">
                        <mxPoint x="1931" y="211.85" as="sourcePoint"/>
                        <mxPoint x="1931" y="281.85" as="targetPoint"/>
                    </mxGeometry>
                </mxCell>
                <mxCell id="181" value="img" style="text;html=1;align=center;verticalAlign=middle;resizable=0;points=[];autosize=1;strokeColor=none;fillColor=none;fontSize=11;fontFamily=Tahoma;fontColor=#000000;labelBackgroundColor=none;" vertex="1" parent="1">
                    <mxGeometry x="2240" y="156.85" width="40" height="30" as="geometry"/>
                </mxCell>
                <mxCell id="182" value="img" style="text;html=1;align=center;verticalAlign=middle;resizable=0;points=[];autosize=1;strokeColor=none;fillColor=none;fontSize=11;fontFamily=Tahoma;fontColor=#000000;labelBackgroundColor=none;" vertex="1" parent="1">
                    <mxGeometry x="2340" y="156.85" width="40" height="30" as="geometry"/>
                </mxCell>
                <mxCell id="183" value="img" style="text;html=1;align=center;verticalAlign=middle;resizable=0;points=[];autosize=1;strokeColor=none;fillColor=none;fontSize=11;fontFamily=Tahoma;fontColor=#000000;labelBackgroundColor=none;" vertex="1" parent="1">
                    <mxGeometry x="2440" y="156.85" width="40" height="30" as="geometry"/>
                </mxCell>
                <mxCell id="184" value="img" style="text;html=1;align=center;verticalAlign=middle;resizable=0;points=[];autosize=1;strokeColor=none;fillColor=none;fontSize=11;fontFamily=Tahoma;fontColor=#000000;labelBackgroundColor=none;" vertex="1" parent="1">
                    <mxGeometry x="2541" y="156.85" width="40" height="30" as="geometry"/>
                </mxCell>
                <mxCell id="185" value="img" style="text;html=1;align=center;verticalAlign=middle;resizable=0;points=[];autosize=1;strokeColor=none;fillColor=none;fontSize=11;fontFamily=Tahoma;fontColor=#000000;labelBackgroundColor=none;" vertex="1" parent="1">
                    <mxGeometry x="2240" y="216.85" width="40" height="30" as="geometry"/>
                </mxCell>
                <mxCell id="186" value="img" style="text;html=1;align=center;verticalAlign=middle;resizable=0;points=[];autosize=1;strokeColor=none;fillColor=none;fontSize=11;fontFamily=Tahoma;fontColor=#000000;labelBackgroundColor=none;" vertex="1" parent="1">
                    <mxGeometry x="2340" y="216.85" width="40" height="30" as="geometry"/>
                </mxCell>
                <mxCell id="187" value="img" style="text;html=1;align=center;verticalAlign=middle;resizable=0;points=[];autosize=1;strokeColor=none;fillColor=none;fontSize=11;fontFamily=Tahoma;fontColor=#000000;labelBackgroundColor=none;" vertex="1" parent="1">
                    <mxGeometry x="2440.5" y="216.85" width="40" height="30" as="geometry"/>
                </mxCell>
                <mxCell id="188" value="img" style="text;html=1;align=center;verticalAlign=middle;resizable=0;points=[];autosize=1;strokeColor=none;fillColor=none;fontSize=11;fontFamily=Tahoma;fontColor=#000000;labelBackgroundColor=none;" vertex="1" parent="1">
                    <mxGeometry x="2541" y="216.85" width="40" height="30" as="geometry"/>
                </mxCell>
                <mxCell id="189" value="" style="rounded=0;whiteSpace=wrap;html=1;fillColor=#f5f5f5;strokeColor=#666666;gradientColor=none;" vertex="1" parent="1">
                    <mxGeometry x="1670" y="289.85" width="460" height="452" as="geometry"/>
                </mxCell>
                <mxCell id="190" value="" style="rounded=0;whiteSpace=wrap;html=1;fillColor=#636363;gradientColor=none;strokeColor=#666666;" vertex="1" parent="1">
                    <mxGeometry x="1670" y="289.85" width="460" height="20" as="geometry"/>
                </mxCell>
                <mxCell id="191" value="" style="ellipse;whiteSpace=wrap;html=1;aspect=fixed;fillColor=#FF0000;strokeColor=#FF0000;fontColor=#ffffff;" vertex="1" parent="1">
                    <mxGeometry x="1680" y="294.85" width="10" height="10" as="geometry"/>
                </mxCell>
                <mxCell id="192" value="" style="ellipse;whiteSpace=wrap;html=1;aspect=fixed;fillColor=#FFFF00;strokeColor=#FFFF00;fontColor=#000000;" vertex="1" parent="1">
                    <mxGeometry x="1694" y="294.85" width="10" height="10" as="geometry"/>
                </mxCell>
                <mxCell id="193" value="" style="ellipse;whiteSpace=wrap;html=1;aspect=fixed;fillColor=#66CC00;strokeColor=#66CC00;fontColor=#ffffff;" vertex="1" parent="1">
                    <mxGeometry x="1708" y="294.85" width="10" height="10" as="geometry"/>
                </mxCell>
                <mxCell id="194" value="" style="shape=ext;double=1;rounded=0;whiteSpace=wrap;html=1;strokeColor=#00FFFF;fontFamily=Tahoma;fontSize=45;fontColor=#00FFFF;fillColor=#00FFFF;gradientColor=none;" vertex="1" parent="1">
                    <mxGeometry x="1670" y="309.85" width="460" height="20" as="geometry"/>
                </mxCell>
                <mxCell id="195" value="" style="endArrow=none;html=1;fontFamily=Tahoma;fontSize=45;fontColor=#00FFFF;fillColor=#0050ef;strokeColor=#001DBC;" edge="1" parent="1">
                    <mxGeometry width="50" height="50" relative="1" as="geometry">
                        <mxPoint x="2093" y="316.85" as="sourcePoint"/>
                        <mxPoint x="2103" y="316.85" as="targetPoint"/>
                    </mxGeometry>
                </mxCell>
                <mxCell id="196" value="" style="endArrow=none;html=1;fontFamily=Tahoma;fontSize=45;fontColor=#00FFFF;fillColor=#0050ef;strokeColor=#001DBC;" edge="1" parent="1">
                    <mxGeometry width="50" height="50" relative="1" as="geometry">
                        <mxPoint x="2093" y="319.85" as="sourcePoint"/>
                        <mxPoint x="2103" y="319.85" as="targetPoint"/>
                    </mxGeometry>
                </mxCell>
                <mxCell id="197" value="" style="endArrow=none;html=1;fontFamily=Tahoma;fontSize=45;fontColor=#00FFFF;fillColor=#0050ef;strokeColor=#001DBC;" edge="1" parent="1">
                    <mxGeometry width="50" height="50" relative="1" as="geometry">
                        <mxPoint x="2093" y="322.85" as="sourcePoint"/>
                        <mxPoint x="2103" y="322.85" as="targetPoint"/>
                    </mxGeometry>
                </mxCell>
                <mxCell id="198" value="Name" style="text;strokeColor=none;fillColor=none;html=1;fontSize=24;fontStyle=1;verticalAlign=middle;align=center;labelBackgroundColor=none;fontFamily=Tahoma;fontColor=#000000;" vertex="1" parent="1">
                    <mxGeometry x="1860" y="329.85" width="100" height="30" as="geometry"/>
                </mxCell>
                <mxCell id="199" value="" style="rounded=1;whiteSpace=wrap;html=1;labelBackgroundColor=none;fontFamily=Tahoma;fontSize=23;fillColor=none;strokeColor=#000000;" vertex="1" parent="1">
                    <mxGeometry x="1708" y="374.85" width="182" height="145" as="geometry"/>
                </mxCell>
                <mxCell id="200" value="img" style="text;html=1;align=center;verticalAlign=middle;resizable=0;points=[];autosize=1;strokeColor=none;fillColor=none;fontSize=11;fontFamily=Tahoma;fontColor=#000000;labelBackgroundColor=none;" vertex="1" parent="1">
                    <mxGeometry x="1779" y="427.85" width="40" height="30" as="geometry"/>
                </mxCell>
                <mxCell id="201" value="" style="rounded=0;whiteSpace=wrap;html=1;labelBackgroundColor=none;strokeColor=#000000;fontFamily=Tahoma;fontSize=11;fontColor=#000000;fillColor=none;gradientColor=none;" vertex="1" parent="1">
                    <mxGeometry x="1930" y="374.85" width="168" height="190" as="geometry"/>
                </mxCell>
                <mxCell id="205" value="" style="edgeStyle=none;html=1;exitX=0.25;exitY=0;exitDx=0;exitDy=0;strokeColor=#FFFFFF;fontFamily=Tahoma;fontSize=12;fontColor=#000000;endArrow=none;" edge="1" parent="1">
                    <mxGeometry relative="1" as="geometry">
                        <mxPoint x="1971.9354838709678" y="380.35" as="sourcePoint"/>
                        <mxPoint x="1971.8172043010754" y="379.85" as="targetPoint"/>
                    </mxGeometry>
                </mxCell>
                <mxCell id="215" value="" style="edgeStyle=none;html=1;exitX=0.25;exitY=0;exitDx=0;exitDy=0;strokeColor=#FFFFFF;fontFamily=Tahoma;fontSize=12;fontColor=#000000;endArrow=none;" edge="1" parent="1">
                    <mxGeometry relative="1" as="geometry">
                        <mxPoint x="1971.9354838709678" y="453.35" as="sourcePoint"/>
                        <mxPoint x="1971.8172043010754" y="452.85" as="targetPoint"/>
                    </mxGeometry>
                </mxCell>
                <mxCell id="224" value="" style="edgeStyle=none;html=1;exitX=0.25;exitY=0;exitDx=0;exitDy=0;strokeColor=#FFFFFF;fontFamily=Tahoma;fontSize=12;fontColor=#000000;endArrow=none;" edge="1" parent="1">
                    <mxGeometry relative="1" as="geometry">
                        <mxPoint x="1973.9354838709678" y="526.35" as="sourcePoint"/>
                        <mxPoint x="1973.8172043010754" y="525.85" as="targetPoint"/>
                    </mxGeometry>
                </mxCell>
                <mxCell id="227" value="" style="edgeStyle=none;html=1;exitX=0.25;exitY=0;exitDx=0;exitDy=0;strokeColor=#FFFFFF;fontFamily=Tahoma;fontSize=12;fontColor=#000000;endArrow=none;" edge="1" parent="1">
                    <mxGeometry relative="1" as="geometry">
                        <mxPoint x="1973.9354838709678" y="543.35" as="sourcePoint"/>
                        <mxPoint x="1973.8172043010754" y="542.85" as="targetPoint"/>
                    </mxGeometry>
                </mxCell>
                <mxCell id="230" value="&lt;span style=&quot;font-size: 17px;&quot;&gt;Products&lt;/span&gt;" style="text;strokeColor=none;fillColor=none;html=1;fontSize=24;fontStyle=1;verticalAlign=middle;align=center;labelBackgroundColor=none;fontFamily=Tahoma;fontColor=#000000;" vertex="1" parent="1">
                    <mxGeometry x="1700" y="579.85" width="100" height="30" as="geometry"/>
                </mxCell>
                <mxCell id="231" value="" style="rounded=1;whiteSpace=wrap;html=1;labelBackgroundColor=none;fontFamily=Tahoma;fontSize=23;fillColor=none;strokeColor=#000000;" vertex="1" parent="1">
                    <mxGeometry x="1705" y="619.85" width="90" height="50" as="geometry"/>
                </mxCell>
                <mxCell id="232" value="" style="rounded=1;whiteSpace=wrap;html=1;labelBackgroundColor=none;fontFamily=Tahoma;fontSize=23;fillColor=none;strokeColor=#000000;" vertex="1" parent="1">
                    <mxGeometry x="1805" y="619.85" width="90" height="50" as="geometry"/>
                </mxCell>
                <mxCell id="233" value="" style="rounded=1;whiteSpace=wrap;html=1;labelBackgroundColor=none;fontFamily=Tahoma;fontSize=23;fillColor=none;strokeColor=#000000;" vertex="1" parent="1">
                    <mxGeometry x="1905" y="619.85" width="90" height="50" as="geometry"/>
                </mxCell>
                <mxCell id="234" value="" style="rounded=1;whiteSpace=wrap;html=1;labelBackgroundColor=none;fontFamily=Tahoma;fontSize=23;fillColor=none;strokeColor=#000000;" vertex="1" parent="1">
                    <mxGeometry x="1705" y="679.85" width="90" height="50" as="geometry"/>
                </mxCell>
                <mxCell id="235" value="" style="rounded=1;whiteSpace=wrap;html=1;labelBackgroundColor=none;fontFamily=Tahoma;fontSize=23;fillColor=none;strokeColor=#000000;" vertex="1" parent="1">
                    <mxGeometry x="1805" y="679.85" width="90" height="50" as="geometry"/>
                </mxCell>
                <mxCell id="236" value="" style="rounded=1;whiteSpace=wrap;html=1;labelBackgroundColor=none;fontFamily=Tahoma;fontSize=23;fillColor=none;strokeColor=#000000;" vertex="1" parent="1">
                    <mxGeometry x="1905" y="679.85" width="90" height="50" as="geometry"/>
                </mxCell>
                <mxCell id="237" value="" style="rounded=1;whiteSpace=wrap;html=1;labelBackgroundColor=none;fontFamily=Tahoma;fontSize=23;fillColor=none;strokeColor=#000000;" vertex="1" parent="1">
                    <mxGeometry x="2006" y="679.85" width="90" height="50" as="geometry"/>
                </mxCell>
                <mxCell id="238" value="" style="rounded=1;whiteSpace=wrap;html=1;labelBackgroundColor=none;fontFamily=Tahoma;fontSize=23;fillColor=none;strokeColor=#000000;" vertex="1" parent="1">
                    <mxGeometry x="2006" y="619.85" width="90" height="50" as="geometry"/>
                </mxCell>
                <mxCell id="239" value="img" style="text;html=1;align=center;verticalAlign=middle;resizable=0;points=[];autosize=1;strokeColor=none;fillColor=none;fontSize=11;fontFamily=Tahoma;fontColor=#000000;labelBackgroundColor=none;" vertex="1" parent="1">
                    <mxGeometry x="1730" y="629.85" width="40" height="30" as="geometry"/>
                </mxCell>
                <mxCell id="240" value="img" style="text;html=1;align=center;verticalAlign=middle;resizable=0;points=[];autosize=1;strokeColor=none;fillColor=none;fontSize=11;fontFamily=Tahoma;fontColor=#000000;labelBackgroundColor=none;" vertex="1" parent="1">
                    <mxGeometry x="1830" y="629.85" width="40" height="30" as="geometry"/>
                </mxCell>
                <mxCell id="241" value="img" style="text;html=1;align=center;verticalAlign=middle;resizable=0;points=[];autosize=1;strokeColor=none;fillColor=none;fontSize=11;fontFamily=Tahoma;fontColor=#000000;labelBackgroundColor=none;" vertex="1" parent="1">
                    <mxGeometry x="1930" y="629.85" width="40" height="30" as="geometry"/>
                </mxCell>
                <mxCell id="242" value="img" style="text;html=1;align=center;verticalAlign=middle;resizable=0;points=[];autosize=1;strokeColor=none;fillColor=none;fontSize=11;fontFamily=Tahoma;fontColor=#000000;labelBackgroundColor=none;" vertex="1" parent="1">
                    <mxGeometry x="2031" y="629.85" width="40" height="30" as="geometry"/>
                </mxCell>
                <mxCell id="243" value="img" style="text;html=1;align=center;verticalAlign=middle;resizable=0;points=[];autosize=1;strokeColor=none;fillColor=none;fontSize=11;fontFamily=Tahoma;fontColor=#000000;labelBackgroundColor=none;" vertex="1" parent="1">
                    <mxGeometry x="1730" y="689.85" width="40" height="30" as="geometry"/>
                </mxCell>
                <mxCell id="244" value="img" style="text;html=1;align=center;verticalAlign=middle;resizable=0;points=[];autosize=1;strokeColor=none;fillColor=none;fontSize=11;fontFamily=Tahoma;fontColor=#000000;labelBackgroundColor=none;" vertex="1" parent="1">
                    <mxGeometry x="1830" y="689.85" width="40" height="30" as="geometry"/>
                </mxCell>
                <mxCell id="245" value="img" style="text;html=1;align=center;verticalAlign=middle;resizable=0;points=[];autosize=1;strokeColor=none;fillColor=none;fontSize=11;fontFamily=Tahoma;fontColor=#000000;labelBackgroundColor=none;" vertex="1" parent="1">
                    <mxGeometry x="1930.5" y="689.85" width="40" height="30" as="geometry"/>
                </mxCell>
                <mxCell id="246" value="img" style="text;html=1;align=center;verticalAlign=middle;resizable=0;points=[];autosize=1;strokeColor=none;fillColor=none;fontSize=11;fontFamily=Tahoma;fontColor=#000000;labelBackgroundColor=none;" vertex="1" parent="1">
                    <mxGeometry x="2031" y="689.85" width="40" height="30" as="geometry"/>
                </mxCell>
                <mxCell id="248" value="" style="dashed=0;outlineConnect=0;html=1;align=center;labelPosition=center;verticalLabelPosition=bottom;verticalAlign=top;shape=mxgraph.weblogos.twitter;fillColor=#1DA1F2;strokeColor=none;labelBackgroundColor=none;fontFamily=Tahoma;fontSize=17;fontColor=#000000;" vertex="1" parent="1">
                    <mxGeometry x="1770" y="522.85" width="20" height="20" as="geometry"/>
                </mxCell>
                <mxCell id="249" value="" style="dashed=0;outlineConnect=0;html=1;align=center;labelPosition=center;verticalLabelPosition=bottom;verticalAlign=top;shape=mxgraph.weblogos.instagram;fillColor=#6FC0E4;gradientColor=#1E305B;labelBackgroundColor=none;strokeColor=#000000;fontFamily=Tahoma;fontSize=17;fontColor=#000000;" vertex="1" parent="1">
                    <mxGeometry x="1813.9" y="523.7" width="16.1" height="18.3" as="geometry"/>
                </mxCell>
                <mxCell id="250" value="&lt;span style=&quot;font-size: 17px;&quot;&gt;bio&lt;/span&gt;" style="text;strokeColor=none;fillColor=none;html=1;fontSize=24;fontStyle=1;verticalAlign=middle;align=center;labelBackgroundColor=none;fontFamily=Tahoma;fontColor=#000000;" vertex="1" parent="1">
                    <mxGeometry x="1910" y="374.85" width="100" height="30" as="geometry"/>
                </mxCell>
                <mxCell id="251" value="&lt;span style=&quot;font-size: 17px;&quot;&gt;seasons&lt;/span&gt;" style="text;strokeColor=none;fillColor=none;html=1;fontSize=24;fontStyle=1;verticalAlign=middle;align=center;labelBackgroundColor=none;fontFamily=Tahoma;fontColor=#000000;" vertex="1" parent="1">
                    <mxGeometry x="1931" y="457.85" width="100" height="30" as="geometry"/>
                </mxCell>
                <mxCell id="257" value="" style="rounded=0;whiteSpace=wrap;html=1;fillColor=#f5f5f5;strokeColor=#666666;gradientColor=none;" vertex="1" parent="1">
                    <mxGeometry x="1165.3" y="883.7" width="439" height="268.15" as="geometry"/>
                </mxCell>
                <mxCell id="258" value="" style="rounded=0;whiteSpace=wrap;html=1;fillColor=#636363;gradientColor=none;strokeColor=#666666;" vertex="1" parent="1">
                    <mxGeometry x="1165.3" y="883.7" width="440" height="20" as="geometry"/>
                </mxCell>
                <mxCell id="259" value="" style="ellipse;whiteSpace=wrap;html=1;aspect=fixed;fillColor=#FF0000;strokeColor=#FF0000;fontColor=#ffffff;" vertex="1" parent="1">
                    <mxGeometry x="1175.3" y="888.7" width="10" height="10" as="geometry"/>
                </mxCell>
                <mxCell id="260" value="" style="ellipse;whiteSpace=wrap;html=1;aspect=fixed;fillColor=#FFFF00;strokeColor=#FFFF00;fontColor=#000000;" vertex="1" parent="1">
                    <mxGeometry x="1189.3" y="888.7" width="10" height="10" as="geometry"/>
                </mxCell>
                <mxCell id="261" value="" style="ellipse;whiteSpace=wrap;html=1;aspect=fixed;fillColor=#66CC00;strokeColor=#66CC00;fontColor=#ffffff;" vertex="1" parent="1">
                    <mxGeometry x="1203.3" y="888.7" width="10" height="10" as="geometry"/>
                </mxCell>
                <mxCell id="262" value="" style="shape=ext;double=1;rounded=0;whiteSpace=wrap;html=1;strokeColor=#00FFFF;fontFamily=Tahoma;fontSize=45;fontColor=#00FFFF;fillColor=#00FFFF;gradientColor=none;" vertex="1" parent="1">
                    <mxGeometry x="1165.3" y="903.7" width="440" height="20" as="geometry"/>
                </mxCell>
                <mxCell id="263" value="" style="endArrow=none;html=1;fontFamily=Tahoma;fontSize=45;fontColor=#00FFFF;fillColor=#0050ef;strokeColor=#001DBC;" edge="1" parent="1">
                    <mxGeometry width="50" height="50" relative="1" as="geometry">
                        <mxPoint x="1588.3" y="910.7" as="sourcePoint"/>
                        <mxPoint x="1598.3" y="910.7" as="targetPoint"/>
                    </mxGeometry>
                </mxCell>
                <mxCell id="264" value="" style="endArrow=none;html=1;fontFamily=Tahoma;fontSize=45;fontColor=#00FFFF;fillColor=#0050ef;strokeColor=#001DBC;" edge="1" parent="1">
                    <mxGeometry width="50" height="50" relative="1" as="geometry">
                        <mxPoint x="1588.3" y="913.7" as="sourcePoint"/>
                        <mxPoint x="1598.3" y="913.7" as="targetPoint"/>
                    </mxGeometry>
                </mxCell>
                <mxCell id="265" value="" style="endArrow=none;html=1;fontFamily=Tahoma;fontSize=45;fontColor=#00FFFF;fillColor=#0050ef;strokeColor=#001DBC;" edge="1" parent="1">
                    <mxGeometry width="50" height="50" relative="1" as="geometry">
                        <mxPoint x="1588.3" y="916.7" as="sourcePoint"/>
                        <mxPoint x="1598.3" y="916.7" as="targetPoint"/>
                    </mxGeometry>
                </mxCell>
                <mxCell id="266" value="Iconic Locations" style="text;strokeColor=none;fillColor=none;html=1;fontSize=24;fontStyle=1;verticalAlign=middle;align=center;labelBackgroundColor=none;fontFamily=Tahoma;fontColor=#000000;" vertex="1" parent="1">
                    <mxGeometry x="1335.3" y="923.7" width="100" height="30" as="geometry"/>
                </mxCell>
                <mxCell id="267" value="" style="rounded=1;whiteSpace=wrap;html=1;labelBackgroundColor=none;fontFamily=Tahoma;fontSize=23;fillColor=none;strokeColor=#000000;" vertex="1" parent="1">
                    <mxGeometry x="1213.3" y="1053.7" width="90" height="50" as="geometry"/>
                </mxCell>
                <mxCell id="268" value="" style="rounded=1;whiteSpace=wrap;html=1;labelBackgroundColor=none;fontFamily=Tahoma;fontSize=23;fillColor=none;strokeColor=#000000;" vertex="1" parent="1">
                    <mxGeometry x="1213.3" y="993.7" width="90" height="50" as="geometry"/>
                </mxCell>
                <mxCell id="269" value="" style="rounded=1;whiteSpace=wrap;html=1;labelBackgroundColor=none;fontFamily=Tahoma;fontSize=23;fillColor=none;strokeColor=#000000;" vertex="1" parent="1">
                    <mxGeometry x="1340.3" y="993.7" width="90" height="50" as="geometry"/>
                </mxCell>
                <mxCell id="270" value="" style="rounded=1;whiteSpace=wrap;html=1;labelBackgroundColor=none;fontFamily=Tahoma;fontSize=23;fillColor=none;strokeColor=#000000;" vertex="1" parent="1">
                    <mxGeometry x="1340.3" y="1053.7" width="90" height="50" as="geometry"/>
                </mxCell>
                <mxCell id="271" value="" style="rounded=1;whiteSpace=wrap;html=1;labelBackgroundColor=none;fontFamily=Tahoma;fontSize=23;fillColor=none;strokeColor=#000000;" vertex="1" parent="1">
                    <mxGeometry x="1465.3" y="1053.7" width="90" height="50" as="geometry"/>
                </mxCell>
                <mxCell id="272" value="" style="rounded=1;whiteSpace=wrap;html=1;labelBackgroundColor=none;fontFamily=Tahoma;fontSize=23;fillColor=none;strokeColor=#000000;" vertex="1" parent="1">
                    <mxGeometry x="1465.3" y="993.7" width="90" height="50" as="geometry"/>
                </mxCell>
                <mxCell id="273" value="" style="rounded=1;whiteSpace=wrap;html=1;labelBackgroundColor=none;fontFamily=Tahoma;fontSize=23;fillColor=none;strokeColor=#000000;" vertex="1" parent="1">
                    <mxGeometry x="1255.3" y="963.7" width="110" height="20" as="geometry"/>
                </mxCell>
                <mxCell id="274" value="&lt;font style=&quot;font-size: 11px;&quot;&gt;search&lt;/font&gt;" style="text;html=1;strokeColor=none;fillColor=none;align=center;verticalAlign=middle;whiteSpace=wrap;rounded=0;labelBackgroundColor=none;fontFamily=Tahoma;fontSize=23;fontColor=#000000;" vertex="1" parent="1">
                    <mxGeometry x="1281.8" y="953.7" width="57" height="30" as="geometry"/>
                </mxCell>
                <mxCell id="275" value="img" style="text;html=1;align=center;verticalAlign=middle;resizable=0;points=[];autosize=1;strokeColor=none;fillColor=none;fontSize=11;fontFamily=Tahoma;fontColor=#000000;labelBackgroundColor=none;" vertex="1" parent="1">
                    <mxGeometry x="1365.3" y="1003.7" width="40" height="30" as="geometry"/>
                </mxCell>
                <mxCell id="276" value="img" style="text;html=1;align=center;verticalAlign=middle;resizable=0;points=[];autosize=1;strokeColor=none;fillColor=none;fontSize=11;fontFamily=Tahoma;fontColor=#000000;labelBackgroundColor=none;" vertex="1" parent="1">
                    <mxGeometry x="1490.3" y="1003.7" width="40" height="30" as="geometry"/>
                </mxCell>
                <mxCell id="277" value="img" style="text;html=1;align=center;verticalAlign=middle;resizable=0;points=[];autosize=1;strokeColor=none;fillColor=none;fontSize=11;fontFamily=Tahoma;fontColor=#000000;labelBackgroundColor=none;" vertex="1" parent="1">
                    <mxGeometry x="1238.3" y="1003.7" width="40" height="30" as="geometry"/>
                </mxCell>
                <mxCell id="278" value="img" style="text;html=1;align=center;verticalAlign=middle;resizable=0;points=[];autosize=1;strokeColor=none;fillColor=none;fontSize=11;fontFamily=Tahoma;fontColor=#000000;labelBackgroundColor=none;" vertex="1" parent="1">
                    <mxGeometry x="1238.3" y="1063.7" width="40" height="30" as="geometry"/>
                </mxCell>
                <mxCell id="279" value="img" style="text;html=1;align=center;verticalAlign=middle;resizable=0;points=[];autosize=1;strokeColor=none;fillColor=none;fontSize=11;fontFamily=Tahoma;fontColor=#000000;labelBackgroundColor=none;" vertex="1" parent="1">
                    <mxGeometry x="1365.3" y="1063.7" width="40" height="30" as="geometry"/>
                </mxCell>
                <mxCell id="280" value="img" style="text;html=1;align=center;verticalAlign=middle;resizable=0;points=[];autosize=1;strokeColor=none;fillColor=none;fontSize=11;fontFamily=Tahoma;fontColor=#000000;labelBackgroundColor=none;" vertex="1" parent="1">
                    <mxGeometry x="1490.3" y="1063.7" width="40" height="30" as="geometry"/>
                </mxCell>
                <mxCell id="281" value="" style="rounded=1;whiteSpace=wrap;html=1;labelBackgroundColor=none;fontFamily=Tahoma;fontSize=23;fillColor=none;strokeColor=#000000;" vertex="1" parent="1">
                    <mxGeometry x="1395.3" y="963.7" width="110" height="20" as="geometry"/>
                </mxCell>
                <mxCell id="282" value="&lt;font style=&quot;font-size: 11px;&quot;&gt;⌄&amp;nbsp; filter by show&lt;/font&gt;" style="text;html=1;strokeColor=none;fillColor=none;align=center;verticalAlign=middle;whiteSpace=wrap;rounded=0;labelBackgroundColor=none;fontFamily=Tahoma;fontSize=23;fontColor=#000000;" vertex="1" parent="1">
                    <mxGeometry x="1389.8" y="953.7" width="101.5" height="30" as="geometry"/>
                </mxCell>
                <mxCell id="283" value="" style="rounded=1;whiteSpace=wrap;html=1;labelBackgroundColor=none;fontFamily=Tahoma;fontSize=23;fillColor=none;strokeColor=#000000;" vertex="1" parent="1">
                    <mxGeometry x="1349.3" y="1121.85" width="70" height="20" as="geometry"/>
                </mxCell>
                <mxCell id="554" value="" style="edgeStyle=none;html=1;strokeColor=#FFFFFF;fontFamily=Tahoma;fontSize=13;fontColor=#000000;" edge="1" parent="1" source="285" target="280">
                    <mxGeometry relative="1" as="geometry"/>
                </mxCell>
                <mxCell id="285" value="&lt;font style=&quot;font-size: 8px;&quot;&gt;Create Location&lt;/font&gt;" style="text;html=1;strokeColor=none;fillColor=none;align=center;verticalAlign=middle;whiteSpace=wrap;rounded=0;labelBackgroundColor=none;fontFamily=Tahoma;fontSize=17;fontColor=#000000;" vertex="1" parent="1">
                    <mxGeometry x="1355.3" y="1114.85" width="60" height="30" as="geometry"/>
                </mxCell>
                <mxCell id="288" value="" style="rounded=0;whiteSpace=wrap;html=1;fillColor=#f5f5f5;strokeColor=#666666;gradientColor=none;" vertex="1" parent="1">
                    <mxGeometry x="1669" y="771.85" width="460" height="380" as="geometry"/>
                </mxCell>
                <mxCell id="289" value="" style="rounded=0;whiteSpace=wrap;html=1;fillColor=#636363;gradientColor=none;strokeColor=#666666;" vertex="1" parent="1">
                    <mxGeometry x="1669" y="771.85" width="460" height="20" as="geometry"/>
                </mxCell>
                <mxCell id="290" value="" style="ellipse;whiteSpace=wrap;html=1;aspect=fixed;fillColor=#FF0000;strokeColor=#FF0000;fontColor=#ffffff;" vertex="1" parent="1">
                    <mxGeometry x="1679" y="776.85" width="10" height="10" as="geometry"/>
                </mxCell>
                <mxCell id="291" value="" style="ellipse;whiteSpace=wrap;html=1;aspect=fixed;fillColor=#FFFF00;strokeColor=#FFFF00;fontColor=#000000;" vertex="1" parent="1">
                    <mxGeometry x="1693" y="776.85" width="10" height="10" as="geometry"/>
                </mxCell>
                <mxCell id="292" value="" style="ellipse;whiteSpace=wrap;html=1;aspect=fixed;fillColor=#66CC00;strokeColor=#66CC00;fontColor=#ffffff;" vertex="1" parent="1">
                    <mxGeometry x="1707" y="776.85" width="10" height="10" as="geometry"/>
                </mxCell>
                <mxCell id="293" value="" style="shape=ext;double=1;rounded=0;whiteSpace=wrap;html=1;strokeColor=#00FFFF;fontFamily=Tahoma;fontSize=45;fontColor=#00FFFF;fillColor=#00FFFF;gradientColor=none;" vertex="1" parent="1">
                    <mxGeometry x="1669" y="791.85" width="460" height="20" as="geometry"/>
                </mxCell>
                <mxCell id="294" value="" style="endArrow=none;html=1;fontFamily=Tahoma;fontSize=45;fontColor=#00FFFF;fillColor=#0050ef;strokeColor=#001DBC;" edge="1" parent="1">
                    <mxGeometry width="50" height="50" relative="1" as="geometry">
                        <mxPoint x="2092" y="798.85" as="sourcePoint"/>
                        <mxPoint x="2102" y="798.85" as="targetPoint"/>
                    </mxGeometry>
                </mxCell>
                <mxCell id="295" value="" style="endArrow=none;html=1;fontFamily=Tahoma;fontSize=45;fontColor=#00FFFF;fillColor=#0050ef;strokeColor=#001DBC;" edge="1" parent="1">
                    <mxGeometry width="50" height="50" relative="1" as="geometry">
                        <mxPoint x="2092" y="801.85" as="sourcePoint"/>
                        <mxPoint x="2102" y="801.85" as="targetPoint"/>
                    </mxGeometry>
                </mxCell>
                <mxCell id="296" value="" style="endArrow=none;html=1;fontFamily=Tahoma;fontSize=45;fontColor=#00FFFF;fillColor=#0050ef;strokeColor=#001DBC;" edge="1" parent="1">
                    <mxGeometry width="50" height="50" relative="1" as="geometry">
                        <mxPoint x="2092" y="804.85" as="sourcePoint"/>
                        <mxPoint x="2102" y="804.85" as="targetPoint"/>
                    </mxGeometry>
                </mxCell>
                <mxCell id="297" value="Location Name" style="text;strokeColor=none;fillColor=none;html=1;fontSize=24;fontStyle=1;verticalAlign=middle;align=center;labelBackgroundColor=none;fontFamily=Tahoma;fontColor=#000000;" vertex="1" parent="1">
                    <mxGeometry x="1849" y="821.85" width="100" height="30" as="geometry"/>
                </mxCell>
                <mxCell id="301" value="" style="edgeStyle=none;html=1;exitX=0.25;exitY=0;exitDx=0;exitDy=0;strokeColor=#FFFFFF;fontFamily=Tahoma;fontSize=12;fontColor=#000000;endArrow=none;" edge="1" parent="1">
                    <mxGeometry relative="1" as="geometry">
                        <mxPoint x="1970.9354838709678" y="862.35" as="sourcePoint"/>
                        <mxPoint x="1970.8172043010754" y="861.85" as="targetPoint"/>
                    </mxGeometry>
                </mxCell>
                <mxCell id="302" value="" style="edgeStyle=none;html=1;exitX=0.25;exitY=0;exitDx=0;exitDy=0;strokeColor=#FFFFFF;fontFamily=Tahoma;fontSize=12;fontColor=#000000;endArrow=none;" edge="1" parent="1">
                    <mxGeometry relative="1" as="geometry">
                        <mxPoint x="1970.9354838709678" y="935.3499999999996" as="sourcePoint"/>
                        <mxPoint x="1970.8172043010754" y="934.85" as="targetPoint"/>
                    </mxGeometry>
                </mxCell>
                <mxCell id="303" value="" style="edgeStyle=none;html=1;exitX=0.25;exitY=0;exitDx=0;exitDy=0;strokeColor=#FFFFFF;fontFamily=Tahoma;fontSize=12;fontColor=#000000;endArrow=none;" edge="1" parent="1">
                    <mxGeometry relative="1" as="geometry">
                        <mxPoint x="1972.9354838709678" y="1008.35" as="sourcePoint"/>
                        <mxPoint x="1972.8172043010754" y="1007.8499999999996" as="targetPoint"/>
                    </mxGeometry>
                </mxCell>
                <mxCell id="304" value="" style="edgeStyle=none;html=1;exitX=0.25;exitY=0;exitDx=0;exitDy=0;strokeColor=#FFFFFF;fontFamily=Tahoma;fontSize=12;fontColor=#000000;endArrow=none;" edge="1" parent="1">
                    <mxGeometry relative="1" as="geometry">
                        <mxPoint x="1972.9354838709678" y="1025.3499999999995" as="sourcePoint"/>
                        <mxPoint x="1972.8172043010754" y="1024.85" as="targetPoint"/>
                    </mxGeometry>
                </mxCell>
                <mxCell id="330" value="" style="edgeStyle=none;html=1;strokeColor=#FFFFFF;fontFamily=Tahoma;fontSize=8;fontColor=#000000;" edge="1" parent="1" source="305" target="315">
                    <mxGeometry relative="1" as="geometry"/>
                </mxCell>
                <mxCell id="305" value="&lt;span style=&quot;font-size: 17px;&quot;&gt;Ultimate Girls Trip (user posts)&lt;/span&gt;" style="text;strokeColor=none;fillColor=none;html=1;fontSize=24;fontStyle=1;verticalAlign=middle;align=center;labelBackgroundColor=none;fontFamily=Tahoma;fontColor=#000000;" vertex="1" parent="1">
                    <mxGeometry x="1789" y="982.85" width="100" height="30" as="geometry"/>
                </mxCell>
                <mxCell id="306" value="" style="rounded=1;whiteSpace=wrap;html=1;labelBackgroundColor=none;fontFamily=Tahoma;fontSize=23;fillColor=none;strokeColor=#000000;" vertex="1" parent="1">
                    <mxGeometry x="1706" y="1021.85" width="90" height="50" as="geometry"/>
                </mxCell>
                <mxCell id="307" value="" style="rounded=1;whiteSpace=wrap;html=1;labelBackgroundColor=none;fontFamily=Tahoma;fontSize=23;fillColor=none;strokeColor=#000000;" vertex="1" parent="1">
                    <mxGeometry x="1806" y="1021.85" width="90" height="50" as="geometry"/>
                </mxCell>
                <mxCell id="308" value="" style="rounded=1;whiteSpace=wrap;html=1;labelBackgroundColor=none;fontFamily=Tahoma;fontSize=23;fillColor=none;strokeColor=#000000;" vertex="1" parent="1">
                    <mxGeometry x="1906" y="1021.85" width="90" height="50" as="geometry"/>
                </mxCell>
                <mxCell id="309" value="" style="rounded=1;whiteSpace=wrap;html=1;labelBackgroundColor=none;fontFamily=Tahoma;fontSize=23;fillColor=none;strokeColor=#000000;" vertex="1" parent="1">
                    <mxGeometry x="1706" y="1081.85" width="90" height="50" as="geometry"/>
                </mxCell>
                <mxCell id="310" value="" style="rounded=1;whiteSpace=wrap;html=1;labelBackgroundColor=none;fontFamily=Tahoma;fontSize=23;fillColor=none;strokeColor=#000000;" vertex="1" parent="1">
                    <mxGeometry x="1806" y="1081.85" width="90" height="50" as="geometry"/>
                </mxCell>
                <mxCell id="311" value="" style="rounded=1;whiteSpace=wrap;html=1;labelBackgroundColor=none;fontFamily=Tahoma;fontSize=23;fillColor=none;strokeColor=#000000;" vertex="1" parent="1">
                    <mxGeometry x="1906" y="1081.85" width="90" height="50" as="geometry"/>
                </mxCell>
                <mxCell id="312" value="" style="rounded=1;whiteSpace=wrap;html=1;labelBackgroundColor=none;fontFamily=Tahoma;fontSize=23;fillColor=none;strokeColor=#000000;" vertex="1" parent="1">
                    <mxGeometry x="2007" y="1081.85" width="90" height="50" as="geometry"/>
                </mxCell>
                <mxCell id="313" value="" style="rounded=1;whiteSpace=wrap;html=1;labelBackgroundColor=none;fontFamily=Tahoma;fontSize=23;fillColor=none;strokeColor=#000000;" vertex="1" parent="1">
                    <mxGeometry x="2007" y="1021.85" width="90" height="50" as="geometry"/>
                </mxCell>
                <mxCell id="314" value="img" style="text;html=1;align=center;verticalAlign=middle;resizable=0;points=[];autosize=1;strokeColor=none;fillColor=none;fontSize=11;fontFamily=Tahoma;fontColor=#000000;labelBackgroundColor=none;" vertex="1" parent="1">
                    <mxGeometry x="1731" y="1031.85" width="40" height="30" as="geometry"/>
                </mxCell>
                <mxCell id="315" value="img" style="text;html=1;align=center;verticalAlign=middle;resizable=0;points=[];autosize=1;strokeColor=none;fillColor=none;fontSize=11;fontFamily=Tahoma;fontColor=#000000;labelBackgroundColor=none;" vertex="1" parent="1">
                    <mxGeometry x="1831" y="1031.85" width="40" height="30" as="geometry"/>
                </mxCell>
                <mxCell id="316" value="img" style="text;html=1;align=center;verticalAlign=middle;resizable=0;points=[];autosize=1;strokeColor=none;fillColor=none;fontSize=11;fontFamily=Tahoma;fontColor=#000000;labelBackgroundColor=none;" vertex="1" parent="1">
                    <mxGeometry x="1931" y="1031.85" width="40" height="30" as="geometry"/>
                </mxCell>
                <mxCell id="317" value="img" style="text;html=1;align=center;verticalAlign=middle;resizable=0;points=[];autosize=1;strokeColor=none;fillColor=none;fontSize=11;fontFamily=Tahoma;fontColor=#000000;labelBackgroundColor=none;" vertex="1" parent="1">
                    <mxGeometry x="2032" y="1031.85" width="40" height="30" as="geometry"/>
                </mxCell>
                <mxCell id="318" value="img" style="text;html=1;align=center;verticalAlign=middle;resizable=0;points=[];autosize=1;strokeColor=none;fillColor=none;fontSize=11;fontFamily=Tahoma;fontColor=#000000;labelBackgroundColor=none;" vertex="1" parent="1">
                    <mxGeometry x="1731" y="1091.85" width="40" height="30" as="geometry"/>
                </mxCell>
                <mxCell id="319" value="img" style="text;html=1;align=center;verticalAlign=middle;resizable=0;points=[];autosize=1;strokeColor=none;fillColor=none;fontSize=11;fontFamily=Tahoma;fontColor=#000000;labelBackgroundColor=none;" vertex="1" parent="1">
                    <mxGeometry x="1831" y="1091.85" width="40" height="30" as="geometry"/>
                </mxCell>
                <mxCell id="320" value="img" style="text;html=1;align=center;verticalAlign=middle;resizable=0;points=[];autosize=1;strokeColor=none;fillColor=none;fontSize=11;fontFamily=Tahoma;fontColor=#000000;labelBackgroundColor=none;" vertex="1" parent="1">
                    <mxGeometry x="1931.5" y="1091.85" width="40" height="30" as="geometry"/>
                </mxCell>
                <mxCell id="321" value="img" style="text;html=1;align=center;verticalAlign=middle;resizable=0;points=[];autosize=1;strokeColor=none;fillColor=none;fontSize=11;fontFamily=Tahoma;fontColor=#000000;labelBackgroundColor=none;" vertex="1" parent="1">
                    <mxGeometry x="2032" y="1091.85" width="40" height="30" as="geometry"/>
                </mxCell>
                <mxCell id="326" value="&lt;span style=&quot;font-size: 17px;&quot;&gt;franchise&lt;/span&gt;" style="text;strokeColor=none;fillColor=none;html=1;fontSize=24;fontStyle=1;verticalAlign=middle;align=center;labelBackgroundColor=none;fontFamily=Tahoma;fontColor=#000000;" vertex="1" parent="1">
                    <mxGeometry x="1719" y="856.85" width="100" height="30" as="geometry"/>
                </mxCell>
                <mxCell id="327" value="location description" style="text;html=1;align=center;verticalAlign=middle;resizable=0;points=[];autosize=1;strokeColor=none;fillColor=none;fontSize=11;fontFamily=Tahoma;fontColor=#000000;labelBackgroundColor=none;" vertex="1" parent="1">
                    <mxGeometry x="1812.9" y="894.35" width="120" height="30" as="geometry"/>
                </mxCell>
                <mxCell id="329" value="&lt;font style=&quot;font-size: 8px;&quot;&gt;New Post&lt;/font&gt;" style="text;html=1;strokeColor=none;fillColor=none;align=center;verticalAlign=middle;whiteSpace=wrap;rounded=0;labelBackgroundColor=none;fontFamily=Tahoma;fontSize=17;fontColor=#000000;" vertex="1" parent="1">
                    <mxGeometry x="1990" y="946.85" width="60" height="30" as="geometry"/>
                </mxCell>
                <mxCell id="331" value="" style="rounded=1;whiteSpace=wrap;html=1;labelBackgroundColor=none;fontFamily=Tahoma;fontSize=23;fillColor=none;strokeColor=#000000;" vertex="1" parent="1">
                    <mxGeometry x="1995" y="952.85" width="50" height="20" as="geometry"/>
                </mxCell>
                <mxCell id="334" value="" style="rounded=0;whiteSpace=wrap;html=1;fillColor=#f5f5f5;strokeColor=#666666;gradientColor=none;" vertex="1" parent="1">
                    <mxGeometry x="2170" y="771.85" width="460" height="380" as="geometry"/>
                </mxCell>
                <mxCell id="335" value="" style="rounded=0;whiteSpace=wrap;html=1;fillColor=#636363;gradientColor=none;strokeColor=#666666;" vertex="1" parent="1">
                    <mxGeometry x="2170" y="771.85" width="460" height="20" as="geometry"/>
                </mxCell>
                <mxCell id="336" value="" style="ellipse;whiteSpace=wrap;html=1;aspect=fixed;fillColor=#FF0000;strokeColor=#FF0000;fontColor=#ffffff;" vertex="1" parent="1">
                    <mxGeometry x="2180" y="776.85" width="10" height="10" as="geometry"/>
                </mxCell>
                <mxCell id="337" value="" style="ellipse;whiteSpace=wrap;html=1;aspect=fixed;fillColor=#FFFF00;strokeColor=#FFFF00;fontColor=#000000;" vertex="1" parent="1">
                    <mxGeometry x="2194" y="776.85" width="10" height="10" as="geometry"/>
                </mxCell>
                <mxCell id="338" value="" style="ellipse;whiteSpace=wrap;html=1;aspect=fixed;fillColor=#66CC00;strokeColor=#66CC00;fontColor=#ffffff;" vertex="1" parent="1">
                    <mxGeometry x="2208" y="776.85" width="10" height="10" as="geometry"/>
                </mxCell>
                <mxCell id="339" value="" style="shape=ext;double=1;rounded=0;whiteSpace=wrap;html=1;strokeColor=#00FFFF;fontFamily=Tahoma;fontSize=45;fontColor=#00FFFF;fillColor=#00FFFF;gradientColor=none;" vertex="1" parent="1">
                    <mxGeometry x="2170" y="791.85" width="460" height="20" as="geometry"/>
                </mxCell>
                <mxCell id="340" value="" style="endArrow=none;html=1;fontFamily=Tahoma;fontSize=45;fontColor=#00FFFF;fillColor=#0050ef;strokeColor=#001DBC;" edge="1" parent="1">
                    <mxGeometry width="50" height="50" relative="1" as="geometry">
                        <mxPoint x="2593" y="798.85" as="sourcePoint"/>
                        <mxPoint x="2603" y="798.85" as="targetPoint"/>
                    </mxGeometry>
                </mxCell>
                <mxCell id="341" value="" style="endArrow=none;html=1;fontFamily=Tahoma;fontSize=45;fontColor=#00FFFF;fillColor=#0050ef;strokeColor=#001DBC;" edge="1" parent="1">
                    <mxGeometry width="50" height="50" relative="1" as="geometry">
                        <mxPoint x="2593" y="801.8500000000005" as="sourcePoint"/>
                        <mxPoint x="2603" y="801.8500000000005" as="targetPoint"/>
                    </mxGeometry>
                </mxCell>
                <mxCell id="342" value="" style="endArrow=none;html=1;fontFamily=Tahoma;fontSize=45;fontColor=#00FFFF;fillColor=#0050ef;strokeColor=#001DBC;" edge="1" parent="1">
                    <mxGeometry width="50" height="50" relative="1" as="geometry">
                        <mxPoint x="2593" y="804.85" as="sourcePoint"/>
                        <mxPoint x="2603" y="804.85" as="targetPoint"/>
                    </mxGeometry>
                </mxCell>
                <mxCell id="372" value="" style="edgeStyle=none;html=1;strokeColor=#FFFFFF;fontFamily=Tahoma;fontSize=8;fontColor=#000000;" edge="1" parent="1" source="343">
                    <mxGeometry relative="1" as="geometry">
                        <mxPoint x="2425.714285714286" y="856.85" as="targetPoint"/>
                    </mxGeometry>
                </mxCell>
                <mxCell id="343" value="New Post" style="text;strokeColor=none;fillColor=none;html=1;fontSize=24;fontStyle=1;verticalAlign=middle;align=center;labelBackgroundColor=none;fontFamily=Tahoma;fontColor=#000000;" vertex="1" parent="1">
                    <mxGeometry x="2350" y="821.85" width="100" height="30" as="geometry"/>
                </mxCell>
                <mxCell id="346" value="" style="edgeStyle=none;html=1;exitX=0.25;exitY=0;exitDx=0;exitDy=0;strokeColor=#FFFFFF;fontFamily=Tahoma;fontSize=12;fontColor=#000000;endArrow=none;" edge="1" parent="1">
                    <mxGeometry relative="1" as="geometry">
                        <mxPoint x="2471.935483870968" y="862.35" as="sourcePoint"/>
                        <mxPoint x="2471.8172043010754" y="861.85" as="targetPoint"/>
                    </mxGeometry>
                </mxCell>
                <mxCell id="347" value="" style="edgeStyle=none;html=1;exitX=0.25;exitY=0;exitDx=0;exitDy=0;strokeColor=#FFFFFF;fontFamily=Tahoma;fontSize=12;fontColor=#000000;endArrow=none;" edge="1" parent="1">
                    <mxGeometry relative="1" as="geometry">
                        <mxPoint x="2471.935483870968" y="935.3499999999991" as="sourcePoint"/>
                        <mxPoint x="2471.8172043010754" y="934.85" as="targetPoint"/>
                    </mxGeometry>
                </mxCell>
                <mxCell id="348" value="" style="edgeStyle=none;html=1;exitX=0.25;exitY=0;exitDx=0;exitDy=0;strokeColor=#FFFFFF;fontFamily=Tahoma;fontSize=12;fontColor=#000000;endArrow=none;" edge="1" parent="1">
                    <mxGeometry relative="1" as="geometry">
                        <mxPoint x="2473.935483870968" y="1008.35" as="sourcePoint"/>
                        <mxPoint x="2473.8172043010754" y="1007.8499999999991" as="targetPoint"/>
                    </mxGeometry>
                </mxCell>
                <mxCell id="349" value="" style="edgeStyle=none;html=1;exitX=0.25;exitY=0;exitDx=0;exitDy=0;strokeColor=#FFFFFF;fontFamily=Tahoma;fontSize=12;fontColor=#000000;endArrow=none;" edge="1" parent="1">
                    <mxGeometry relative="1" as="geometry">
                        <mxPoint x="2473.935483870968" y="1025.349999999999" as="sourcePoint"/>
                        <mxPoint x="2473.8172043010754" y="1024.85" as="targetPoint"/>
                    </mxGeometry>
                </mxCell>
                <mxCell id="350" value="" style="edgeStyle=none;html=1;strokeColor=#FFFFFF;fontFamily=Tahoma;fontSize=8;fontColor=#000000;" edge="1" parent="1">
                    <mxGeometry relative="1" as="geometry">
                        <mxPoint x="2343.673469387755" y="1012.85" as="sourcePoint"/>
                        <mxPoint x="2348.326530612245" y="1031.85" as="targetPoint"/>
                    </mxGeometry>
                </mxCell>
                <mxCell id="373" value="" style="rounded=1;whiteSpace=wrap;html=1;labelBackgroundColor=none;fontFamily=Tahoma;fontSize=23;fillColor=none;strokeColor=#000000;" vertex="1" parent="1">
                    <mxGeometry x="2208" y="874.35" width="382" height="27.5" as="geometry"/>
                </mxCell>
                <mxCell id="374" value="img upload" style="text;html=1;align=center;verticalAlign=middle;resizable=0;points=[];autosize=1;strokeColor=none;fillColor=none;fontSize=11;fontFamily=Tahoma;fontColor=#000000;labelBackgroundColor=none;" vertex="1" parent="1">
                    <mxGeometry x="2204" y="873.1" width="80" height="30" as="geometry"/>
                </mxCell>
                <mxCell id="375" value="" style="rounded=1;whiteSpace=wrap;html=1;labelBackgroundColor=none;fontFamily=Tahoma;fontSize=23;fillColor=none;strokeColor=#000000;" vertex="1" parent="1">
                    <mxGeometry x="2208" y="916.85" width="382" height="125" as="geometry"/>
                </mxCell>
                <mxCell id="376" value="journal entry" style="text;html=1;align=center;verticalAlign=middle;resizable=0;points=[];autosize=1;strokeColor=none;fillColor=none;fontSize=11;fontFamily=Tahoma;fontColor=#000000;labelBackgroundColor=none;" vertex="1" parent="1">
                    <mxGeometry x="2203" y="924.35" width="90" height="30" as="geometry"/>
                </mxCell>
                <mxCell id="377" value="" style="rounded=1;whiteSpace=wrap;html=1;labelBackgroundColor=none;fontFamily=Tahoma;fontSize=23;fillColor=none;strokeColor=#000000;" vertex="1" parent="1">
                    <mxGeometry x="2209" y="1054.35" width="382" height="27.5" as="geometry"/>
                </mxCell>
                <mxCell id="378" value="date visited" style="text;html=1;align=center;verticalAlign=middle;resizable=0;points=[];autosize=1;strokeColor=none;fillColor=none;fontSize=11;fontFamily=Tahoma;fontColor=#000000;labelBackgroundColor=none;" vertex="1" parent="1">
                    <mxGeometry x="2209" y="1054.35" width="80" height="30" as="geometry"/>
                </mxCell>
                <mxCell id="379" value="" style="rounded=0;whiteSpace=wrap;html=1;fillColor=#f5f5f5;strokeColor=#666666;gradientColor=none;" vertex="1" parent="1">
                    <mxGeometry x="542" y="804.85" width="460" height="340" as="geometry"/>
                </mxCell>
                <mxCell id="380" value="" style="rounded=0;whiteSpace=wrap;html=1;fillColor=#636363;gradientColor=none;strokeColor=#666666;" vertex="1" parent="1">
                    <mxGeometry x="542" y="804.85" width="460" height="20" as="geometry"/>
                </mxCell>
                <mxCell id="381" value="" style="ellipse;whiteSpace=wrap;html=1;aspect=fixed;fillColor=#FF0000;strokeColor=#FF0000;fontColor=#ffffff;" vertex="1" parent="1">
                    <mxGeometry x="552" y="809.85" width="10" height="10" as="geometry"/>
                </mxCell>
                <mxCell id="382" value="" style="ellipse;whiteSpace=wrap;html=1;aspect=fixed;fillColor=#FFFF00;strokeColor=#FFFF00;fontColor=#000000;" vertex="1" parent="1">
                    <mxGeometry x="566" y="809.85" width="10" height="10" as="geometry"/>
                </mxCell>
                <mxCell id="383" value="" style="ellipse;whiteSpace=wrap;html=1;aspect=fixed;fillColor=#66CC00;strokeColor=#66CC00;fontColor=#ffffff;" vertex="1" parent="1">
                    <mxGeometry x="580" y="809.85" width="10" height="10" as="geometry"/>
                </mxCell>
                <mxCell id="384" value="" style="shape=ext;double=1;rounded=0;whiteSpace=wrap;html=1;strokeColor=#00FFFF;fontFamily=Tahoma;fontSize=45;fontColor=#00FFFF;fillColor=#00FFFF;gradientColor=none;" vertex="1" parent="1">
                    <mxGeometry x="542" y="824.85" width="460" height="20" as="geometry"/>
                </mxCell>
                <mxCell id="385" value="" style="endArrow=none;html=1;fontFamily=Tahoma;fontSize=45;fontColor=#00FFFF;fillColor=#0050ef;strokeColor=#001DBC;" edge="1" parent="1">
                    <mxGeometry width="50" height="50" relative="1" as="geometry">
                        <mxPoint x="965" y="831.85" as="sourcePoint"/>
                        <mxPoint x="975" y="831.85" as="targetPoint"/>
                    </mxGeometry>
                </mxCell>
                <mxCell id="386" value="" style="endArrow=none;html=1;fontFamily=Tahoma;fontSize=45;fontColor=#00FFFF;fillColor=#0050ef;strokeColor=#001DBC;" edge="1" parent="1">
                    <mxGeometry width="50" height="50" relative="1" as="geometry">
                        <mxPoint x="965" y="834.8500000000005" as="sourcePoint"/>
                        <mxPoint x="975" y="834.8500000000005" as="targetPoint"/>
                    </mxGeometry>
                </mxCell>
                <mxCell id="387" value="" style="endArrow=none;html=1;fontFamily=Tahoma;fontSize=45;fontColor=#00FFFF;fillColor=#0050ef;strokeColor=#001DBC;" edge="1" parent="1">
                    <mxGeometry width="50" height="50" relative="1" as="geometry">
                        <mxPoint x="965" y="837.85" as="sourcePoint"/>
                        <mxPoint x="975" y="837.85" as="targetPoint"/>
                    </mxGeometry>
                </mxCell>
                <mxCell id="388" value="" style="edgeStyle=none;html=1;strokeColor=#FFFFFF;fontFamily=Tahoma;fontSize=8;fontColor=#000000;" edge="1" parent="1" source="389">
                    <mxGeometry relative="1" as="geometry">
                        <mxPoint x="797.7142857142858" y="889.8499999999999" as="targetPoint"/>
                    </mxGeometry>
                </mxCell>
                <mxCell id="389" value="New Location" style="text;strokeColor=none;fillColor=none;html=1;fontSize=24;fontStyle=1;verticalAlign=middle;align=center;labelBackgroundColor=none;fontFamily=Tahoma;fontColor=#000000;" vertex="1" parent="1">
                    <mxGeometry x="722" y="854.85" width="100" height="30" as="geometry"/>
                </mxCell>
                <mxCell id="390" value="" style="edgeStyle=none;html=1;exitX=0.25;exitY=0;exitDx=0;exitDy=0;strokeColor=#FFFFFF;fontFamily=Tahoma;fontSize=12;fontColor=#000000;endArrow=none;" edge="1" parent="1">
                    <mxGeometry relative="1" as="geometry">
                        <mxPoint x="843.9354838709678" y="895.3499999999999" as="sourcePoint"/>
                        <mxPoint x="843.8172043010754" y="894.8499999999999" as="targetPoint"/>
                    </mxGeometry>
                </mxCell>
                <mxCell id="391" value="" style="edgeStyle=none;html=1;exitX=0.25;exitY=0;exitDx=0;exitDy=0;strokeColor=#FFFFFF;fontFamily=Tahoma;fontSize=12;fontColor=#000000;endArrow=none;" edge="1" parent="1">
                    <mxGeometry relative="1" as="geometry">
                        <mxPoint x="843.9354838709678" y="968.3499999999992" as="sourcePoint"/>
                        <mxPoint x="843.8172043010754" y="967.8500000000001" as="targetPoint"/>
                    </mxGeometry>
                </mxCell>
                <mxCell id="392" value="" style="edgeStyle=none;html=1;exitX=0.25;exitY=0;exitDx=0;exitDy=0;strokeColor=#FFFFFF;fontFamily=Tahoma;fontSize=12;fontColor=#000000;endArrow=none;" edge="1" parent="1">
                    <mxGeometry relative="1" as="geometry">
                        <mxPoint x="845.9354838709678" y="1041.3500000000001" as="sourcePoint"/>
                        <mxPoint x="845.8172043010754" y="1040.8499999999992" as="targetPoint"/>
                    </mxGeometry>
                </mxCell>
                <mxCell id="393" value="" style="edgeStyle=none;html=1;exitX=0.25;exitY=0;exitDx=0;exitDy=0;strokeColor=#FFFFFF;fontFamily=Tahoma;fontSize=12;fontColor=#000000;endArrow=none;" edge="1" parent="1">
                    <mxGeometry relative="1" as="geometry">
                        <mxPoint x="845.9354838709678" y="1058.3499999999992" as="sourcePoint"/>
                        <mxPoint x="845.8172043010754" y="1057.8500000000001" as="targetPoint"/>
                    </mxGeometry>
                </mxCell>
                <mxCell id="394" value="" style="edgeStyle=none;html=1;strokeColor=#FFFFFF;fontFamily=Tahoma;fontSize=8;fontColor=#000000;" edge="1" parent="1">
                    <mxGeometry relative="1" as="geometry">
                        <mxPoint x="715.6734693877552" y="1045.8500000000001" as="sourcePoint"/>
                        <mxPoint x="720.3265306122448" y="1064.8500000000001" as="targetPoint"/>
                    </mxGeometry>
                </mxCell>
                <mxCell id="395" value="" style="rounded=1;whiteSpace=wrap;html=1;labelBackgroundColor=none;fontFamily=Tahoma;fontSize=23;fillColor=none;strokeColor=#000000;" vertex="1" parent="1">
                    <mxGeometry x="580" y="907.3499999999999" width="382" height="27.5" as="geometry"/>
                </mxCell>
                <mxCell id="396" value="Name" style="text;html=1;align=center;verticalAlign=middle;resizable=0;points=[];autosize=1;strokeColor=none;fillColor=none;fontSize=11;fontFamily=Tahoma;fontColor=#000000;labelBackgroundColor=none;" vertex="1" parent="1">
                    <mxGeometry x="580" y="906.0999999999999" width="50" height="30" as="geometry"/>
                </mxCell>
                <mxCell id="397" value="" style="rounded=1;whiteSpace=wrap;html=1;labelBackgroundColor=none;fontFamily=Tahoma;fontSize=23;fillColor=none;strokeColor=#000000;" vertex="1" parent="1">
                    <mxGeometry x="580" y="949.8500000000001" width="382" height="125" as="geometry"/>
                </mxCell>
                <mxCell id="398" value="description" style="text;html=1;align=center;verticalAlign=middle;resizable=0;points=[];autosize=1;strokeColor=none;fillColor=none;fontSize=11;fontFamily=Tahoma;fontColor=#000000;labelBackgroundColor=none;" vertex="1" parent="1">
                    <mxGeometry x="580" y="957.3500000000001" width="80" height="30" as="geometry"/>
                </mxCell>
                <mxCell id="399" value="" style="rounded=1;whiteSpace=wrap;html=1;labelBackgroundColor=none;fontFamily=Tahoma;fontSize=23;fillColor=none;strokeColor=#000000;" vertex="1" parent="1">
                    <mxGeometry x="581" y="1087.3500000000001" width="382" height="27.5" as="geometry"/>
                </mxCell>
                <mxCell id="400" value="&lt;span style=&quot;&quot;&gt;⌄&amp;nbsp; franchise&amp;nbsp;&lt;/span&gt;" style="text;html=1;align=center;verticalAlign=middle;resizable=0;points=[];autosize=1;strokeColor=none;fillColor=none;fontSize=11;fontFamily=Tahoma;fontColor=#000000;labelBackgroundColor=none;" vertex="1" parent="1">
                    <mxGeometry x="581" y="1087.3500000000001" width="80" height="30" as="geometry"/>
                </mxCell>
                <mxCell id="402" value="" style="rounded=1;whiteSpace=wrap;html=1;labelBackgroundColor=none;strokeColor=#000000;fontFamily=Tahoma;fontSize=8;fontColor=#000000;fillColor=none;gradientColor=none;" vertex="1" parent="1">
                    <mxGeometry x="1694" y="856.85" width="381" height="130" as="geometry"/>
                </mxCell>
                <mxCell id="404" value="" style="rounded=0;whiteSpace=wrap;html=1;fillColor=#f5f5f5;strokeColor=#666666;gradientColor=none;" vertex="1" parent="1">
                    <mxGeometry x="540" y="353.70000000000005" width="443" height="246.3" as="geometry"/>
                </mxCell>
                <mxCell id="405" value="" style="rounded=0;whiteSpace=wrap;html=1;fillColor=#636363;gradientColor=none;strokeColor=#666666;" vertex="1" parent="1">
                    <mxGeometry x="542" y="353.70000000000005" width="440" height="20" as="geometry"/>
                </mxCell>
                <mxCell id="406" value="" style="ellipse;whiteSpace=wrap;html=1;aspect=fixed;fillColor=#FF0000;strokeColor=#FF0000;fontColor=#ffffff;" vertex="1" parent="1">
                    <mxGeometry x="552" y="358.70000000000005" width="10" height="10" as="geometry"/>
                </mxCell>
                <mxCell id="407" value="" style="ellipse;whiteSpace=wrap;html=1;aspect=fixed;fillColor=#FFFF00;strokeColor=#FFFF00;fontColor=#000000;" vertex="1" parent="1">
                    <mxGeometry x="566" y="358.70000000000005" width="10" height="10" as="geometry"/>
                </mxCell>
                <mxCell id="408" value="" style="ellipse;whiteSpace=wrap;html=1;aspect=fixed;fillColor=#66CC00;strokeColor=#66CC00;fontColor=#ffffff;" vertex="1" parent="1">
                    <mxGeometry x="580" y="358.70000000000005" width="10" height="10" as="geometry"/>
                </mxCell>
                <mxCell id="409" value="" style="shape=ext;double=1;rounded=0;whiteSpace=wrap;html=1;strokeColor=#00FFFF;fontFamily=Tahoma;fontSize=45;fontColor=#00FFFF;fillColor=#00FFFF;gradientColor=none;" vertex="1" parent="1">
                    <mxGeometry x="542" y="373.70000000000005" width="440" height="20" as="geometry"/>
                </mxCell>
                <mxCell id="410" value="" style="endArrow=none;html=1;fontFamily=Tahoma;fontSize=45;fontColor=#00FFFF;fillColor=#0050ef;strokeColor=#001DBC;" edge="1" parent="1">
                    <mxGeometry width="50" height="50" relative="1" as="geometry">
                        <mxPoint x="965" y="380.69999999999993" as="sourcePoint"/>
                        <mxPoint x="975" y="380.69999999999993" as="targetPoint"/>
                    </mxGeometry>
                </mxCell>
                <mxCell id="411" value="" style="endArrow=none;html=1;fontFamily=Tahoma;fontSize=45;fontColor=#00FFFF;fillColor=#0050ef;strokeColor=#001DBC;" edge="1" parent="1">
                    <mxGeometry width="50" height="50" relative="1" as="geometry">
                        <mxPoint x="965" y="383.69999999999993" as="sourcePoint"/>
                        <mxPoint x="975" y="383.69999999999993" as="targetPoint"/>
                    </mxGeometry>
                </mxCell>
                <mxCell id="412" value="" style="endArrow=none;html=1;fontFamily=Tahoma;fontSize=45;fontColor=#00FFFF;fillColor=#0050ef;strokeColor=#001DBC;" edge="1" parent="1">
                    <mxGeometry width="50" height="50" relative="1" as="geometry">
                        <mxPoint x="965" y="386.69999999999993" as="sourcePoint"/>
                        <mxPoint x="975" y="386.69999999999993" as="targetPoint"/>
                    </mxGeometry>
                </mxCell>
                <mxCell id="432" value="" style="edgeStyle=none;html=1;strokeColor=#FFFFFF;fontFamily=Tahoma;fontSize=8;fontColor=#000000;" edge="1" parent="1" source="413" target="429">
                    <mxGeometry relative="1" as="geometry"/>
                </mxCell>
                <mxCell id="413" value="products" style="text;strokeColor=none;fillColor=none;html=1;fontSize=24;fontStyle=1;verticalAlign=middle;align=center;labelBackgroundColor=none;fontFamily=Tahoma;fontColor=#000000;" vertex="1" parent="1">
                    <mxGeometry x="712" y="393.70000000000005" width="100" height="30" as="geometry"/>
                </mxCell>
                <mxCell id="414" value="" style="rounded=1;whiteSpace=wrap;html=1;labelBackgroundColor=none;fontFamily=Tahoma;fontSize=23;fillColor=none;strokeColor=#000000;" vertex="1" parent="1">
                    <mxGeometry x="590" y="523.7" width="90" height="50" as="geometry"/>
                </mxCell>
                <mxCell id="415" value="" style="rounded=1;whiteSpace=wrap;html=1;labelBackgroundColor=none;fontFamily=Tahoma;fontSize=23;fillColor=none;strokeColor=#000000;" vertex="1" parent="1">
                    <mxGeometry x="590" y="463.70000000000005" width="90" height="50" as="geometry"/>
                </mxCell>
                <mxCell id="416" value="" style="rounded=1;whiteSpace=wrap;html=1;labelBackgroundColor=none;fontFamily=Tahoma;fontSize=23;fillColor=none;strokeColor=#000000;" vertex="1" parent="1">
                    <mxGeometry x="717" y="463.70000000000005" width="90" height="50" as="geometry"/>
                </mxCell>
                <mxCell id="417" value="" style="rounded=1;whiteSpace=wrap;html=1;labelBackgroundColor=none;fontFamily=Tahoma;fontSize=23;fillColor=none;strokeColor=#000000;" vertex="1" parent="1">
                    <mxGeometry x="717" y="523.7" width="90" height="50" as="geometry"/>
                </mxCell>
                <mxCell id="418" value="" style="rounded=1;whiteSpace=wrap;html=1;labelBackgroundColor=none;fontFamily=Tahoma;fontSize=23;fillColor=none;strokeColor=#000000;" vertex="1" parent="1">
                    <mxGeometry x="842" y="523.7" width="90" height="50" as="geometry"/>
                </mxCell>
                <mxCell id="419" value="" style="rounded=1;whiteSpace=wrap;html=1;labelBackgroundColor=none;fontFamily=Tahoma;fontSize=23;fillColor=none;strokeColor=#000000;" vertex="1" parent="1">
                    <mxGeometry x="842" y="463.70000000000005" width="90" height="50" as="geometry"/>
                </mxCell>
                <mxCell id="420" value="" style="rounded=1;whiteSpace=wrap;html=1;labelBackgroundColor=none;fontFamily=Tahoma;fontSize=23;fillColor=none;strokeColor=#000000;" vertex="1" parent="1">
                    <mxGeometry x="590" y="431.85" width="90" height="20" as="geometry"/>
                </mxCell>
                <mxCell id="421" value="&lt;font style=&quot;font-size: 11px;&quot;&gt;search&lt;/font&gt;" style="text;html=1;strokeColor=none;fillColor=none;align=center;verticalAlign=middle;whiteSpace=wrap;rounded=0;labelBackgroundColor=none;fontFamily=Tahoma;fontSize=23;fontColor=#000000;" vertex="1" parent="1">
                    <mxGeometry x="590" y="421.85" width="57" height="30" as="geometry"/>
                </mxCell>
                <mxCell id="428" value="" style="rounded=1;whiteSpace=wrap;html=1;labelBackgroundColor=none;fontFamily=Tahoma;fontSize=23;fillColor=none;strokeColor=#000000;" vertex="1" parent="1">
                    <mxGeometry x="842" y="431.85" width="90" height="20" as="geometry"/>
                </mxCell>
                <mxCell id="429" value="&lt;font style=&quot;font-size: 11px;&quot;&gt;⌄&amp;nbsp; filter by type&lt;/font&gt;" style="text;html=1;strokeColor=none;fillColor=none;align=center;verticalAlign=middle;whiteSpace=wrap;rounded=0;labelBackgroundColor=none;fontFamily=Tahoma;fontSize=23;fontColor=#000000;" vertex="1" parent="1">
                    <mxGeometry x="842" y="428.70000000000005" width="90" height="20" as="geometry"/>
                </mxCell>
                <mxCell id="434" value="&lt;font style=&quot;font-size: 11px;&quot;&gt;⌄&amp;nbsp; filter by cast&amp;nbsp;&lt;/font&gt;" style="text;html=1;strokeColor=none;fillColor=none;align=center;verticalAlign=middle;whiteSpace=wrap;rounded=0;labelBackgroundColor=none;fontFamily=Tahoma;fontSize=23;fontColor=#000000;" vertex="1" parent="1">
                    <mxGeometry x="685.25" y="423.70000000000005" width="153.5" height="30" as="geometry"/>
                </mxCell>
                <mxCell id="437" value="" style="rounded=1;whiteSpace=wrap;html=1;labelBackgroundColor=none;fontFamily=Tahoma;fontSize=23;fillColor=none;strokeColor=#000000;" vertex="1" parent="1">
                    <mxGeometry x="716.5" y="433.70000000000005" width="90" height="20" as="geometry"/>
                </mxCell>
                <mxCell id="439" value="" style="ellipse;whiteSpace=wrap;html=1;aspect=fixed;labelBackgroundColor=none;strokeColor=#000000;fontFamily=Tahoma;fontSize=8;fontColor=#000000;fillColor=none;gradientColor=none;" vertex="1" parent="1">
                    <mxGeometry x="663.5" y="499" width="10" height="10" as="geometry"/>
                </mxCell>
                <mxCell id="440" value="" style="ellipse;whiteSpace=wrap;html=1;aspect=fixed;labelBackgroundColor=none;strokeColor=#000000;fontFamily=Tahoma;fontSize=8;fontColor=#000000;fillColor=none;gradientColor=none;" vertex="1" parent="1">
                    <mxGeometry x="788.5" y="499" width="10" height="10" as="geometry"/>
                </mxCell>
                <mxCell id="441" value="" style="ellipse;whiteSpace=wrap;html=1;aspect=fixed;labelBackgroundColor=none;strokeColor=#000000;fontFamily=Tahoma;fontSize=8;fontColor=#000000;fillColor=none;gradientColor=none;" vertex="1" parent="1">
                    <mxGeometry x="915" y="500" width="10" height="10" as="geometry"/>
                </mxCell>
                <mxCell id="442" value="" style="ellipse;whiteSpace=wrap;html=1;aspect=fixed;labelBackgroundColor=none;strokeColor=#000000;fontFamily=Tahoma;fontSize=8;fontColor=#000000;fillColor=none;gradientColor=none;" vertex="1" parent="1">
                    <mxGeometry x="665" y="557" width="10" height="10" as="geometry"/>
                </mxCell>
                <mxCell id="443" value="" style="ellipse;whiteSpace=wrap;html=1;aspect=fixed;labelBackgroundColor=none;strokeColor=#000000;fontFamily=Tahoma;fontSize=8;fontColor=#000000;fillColor=none;gradientColor=none;" vertex="1" parent="1">
                    <mxGeometry x="790.5" y="557" width="10" height="10" as="geometry"/>
                </mxCell>
                <mxCell id="444" value="" style="ellipse;whiteSpace=wrap;html=1;aspect=fixed;labelBackgroundColor=none;strokeColor=#000000;fontFamily=Tahoma;fontSize=8;fontColor=#000000;fillColor=none;gradientColor=none;" vertex="1" parent="1">
                    <mxGeometry x="916" y="559" width="10" height="10" as="geometry"/>
                </mxCell>
                <mxCell id="446" value="&lt;font style=&quot;font-size: 18px;&quot;&gt;toggles owned/ not owned&lt;/font&gt;" style="whiteSpace=wrap;html=1;align=center;verticalAlign=middle;treeFolding=1;treeMoving=1;newEdgeStyle={&quot;edgeStyle&quot;:&quot;elbowEdgeStyle&quot;,&quot;startArrow&quot;:&quot;none&quot;,&quot;endArrow&quot;:&quot;none&quot;};labelBackgroundColor=none;strokeColor=#B20000;fontFamily=Tahoma;fontSize=8;fontColor=#ffffff;fillColor=#e51400;" vertex="1" parent="1">
                    <mxGeometry x="826" y="689.85" width="134" height="70.15" as="geometry"/>
                </mxCell>
                <mxCell id="447" value="" style="edgeStyle=elbowEdgeStyle;elbow=vertical;sourcePerimeterSpacing=0;targetPerimeterSpacing=0;startArrow=none;endArrow=none;rounded=0;curved=0;strokeColor=#B20000;fontFamily=Tahoma;fontSize=8;fontColor=#000000;fillColor=#e51400;exitX=1;exitY=0;exitDx=0;exitDy=0;strokeWidth=2;" edge="1" target="446" parent="1" source="443">
                    <mxGeometry relative="1" as="geometry">
                        <mxPoint x="895" y="811.85" as="sourcePoint"/>
                    </mxGeometry>
                </mxCell>
                <mxCell id="449" value="" style="rounded=0;whiteSpace=wrap;html=1;fillColor=#f5f5f5;strokeColor=#666666;gradientColor=none;" vertex="1" parent="1">
                    <mxGeometry x="1154.3" y="-478.15" width="450" height="788.15" as="geometry"/>
                </mxCell>
                <mxCell id="450" value="" style="rounded=0;whiteSpace=wrap;html=1;fillColor=#636363;gradientColor=none;strokeColor=#666666;" vertex="1" parent="1">
                    <mxGeometry x="1155.3" y="-478.15" width="449" height="20" as="geometry"/>
                </mxCell>
                <mxCell id="451" value="" style="ellipse;whiteSpace=wrap;html=1;aspect=fixed;fillColor=#FF0000;strokeColor=#FF0000;fontColor=#ffffff;" vertex="1" parent="1">
                    <mxGeometry x="1165.3" y="-473.15" width="10" height="10" as="geometry"/>
                </mxCell>
                <mxCell id="452" value="" style="ellipse;whiteSpace=wrap;html=1;aspect=fixed;fillColor=#FFFF00;strokeColor=#FFFF00;fontColor=#000000;" vertex="1" parent="1">
                    <mxGeometry x="1179.3" y="-473.15" width="10" height="10" as="geometry"/>
                </mxCell>
                <mxCell id="453" value="" style="ellipse;whiteSpace=wrap;html=1;aspect=fixed;fillColor=#66CC00;strokeColor=#66CC00;fontColor=#ffffff;" vertex="1" parent="1">
                    <mxGeometry x="1193.3" y="-473.15" width="10" height="10" as="geometry"/>
                </mxCell>
                <mxCell id="454" value="" style="shape=ext;double=1;rounded=0;whiteSpace=wrap;html=1;strokeColor=#00FFFF;fontFamily=Tahoma;fontSize=45;fontColor=#00FFFF;fillColor=#00FFFF;gradientColor=none;" vertex="1" parent="1">
                    <mxGeometry x="1155.3" y="-458.15" width="449" height="20" as="geometry"/>
                </mxCell>
                <mxCell id="455" value="" style="endArrow=none;html=1;fontFamily=Tahoma;fontSize=45;fontColor=#00FFFF;fillColor=#0050ef;strokeColor=#001DBC;" edge="1" parent="1">
                    <mxGeometry width="50" height="50" relative="1" as="geometry">
                        <mxPoint x="1578.3" y="-451.15" as="sourcePoint"/>
                        <mxPoint x="1588.3" y="-451.15" as="targetPoint"/>
                    </mxGeometry>
                </mxCell>
                <mxCell id="456" value="" style="endArrow=none;html=1;fontFamily=Tahoma;fontSize=45;fontColor=#00FFFF;fillColor=#0050ef;strokeColor=#001DBC;" edge="1" parent="1">
                    <mxGeometry width="50" height="50" relative="1" as="geometry">
                        <mxPoint x="1578.3" y="-448.15" as="sourcePoint"/>
                        <mxPoint x="1588.3" y="-448.15" as="targetPoint"/>
                    </mxGeometry>
                </mxCell>
                <mxCell id="457" value="" style="endArrow=none;html=1;fontFamily=Tahoma;fontSize=45;fontColor=#00FFFF;fillColor=#0050ef;strokeColor=#001DBC;" edge="1" parent="1">
                    <mxGeometry width="50" height="50" relative="1" as="geometry">
                        <mxPoint x="1578.3" y="-445.15" as="sourcePoint"/>
                        <mxPoint x="1588.3" y="-445.15" as="targetPoint"/>
                    </mxGeometry>
                </mxCell>
                <mxCell id="458" value="Profile" style="text;strokeColor=none;fillColor=none;html=1;fontSize=24;fontStyle=1;verticalAlign=middle;align=center;labelBackgroundColor=none;fontFamily=Tahoma;fontColor=#000000;" vertex="1" parent="1">
                    <mxGeometry x="1334.3" y="-437.15" width="100" height="30" as="geometry"/>
                </mxCell>
                <mxCell id="459" value="" style="rounded=1;whiteSpace=wrap;html=1;labelBackgroundColor=none;fontFamily=Tahoma;fontSize=23;fillColor=none;strokeColor=#000000;" vertex="1" parent="1">
                    <mxGeometry x="1188.3" y="-377.15" width="172" height="135" as="geometry"/>
                </mxCell>
                <mxCell id="460" value="img" style="text;html=1;align=center;verticalAlign=middle;resizable=0;points=[];autosize=1;strokeColor=none;fillColor=none;fontSize=11;fontFamily=Tahoma;fontColor=#000000;labelBackgroundColor=none;" vertex="1" parent="1">
                    <mxGeometry x="1249.3" y="-329.15" width="40" height="30" as="geometry"/>
                </mxCell>
                <mxCell id="461" value="" style="rounded=0;whiteSpace=wrap;html=1;labelBackgroundColor=none;strokeColor=#000000;fontFamily=Tahoma;fontSize=11;fontColor=#000000;fillColor=none;gradientColor=none;" vertex="1" parent="1">
                    <mxGeometry x="1389.8" y="-388.15" width="185" height="249" as="geometry"/>
                </mxCell>
                <mxCell id="462" value="" style="triangle;whiteSpace=wrap;html=1;labelBackgroundColor=none;strokeColor=#000000;fontFamily=Tahoma;fontSize=11;fontColor=#000000;fillColor=default;gradientColor=none;rotation=90;" vertex="1" parent="1">
                    <mxGeometry x="1414.8" y="-329.65" width="5" height="9" as="geometry"/>
                </mxCell>
                <mxCell id="463" value="&lt;font style=&quot;font-size: 12px;&quot;&gt;Season 1&lt;/font&gt;" style="text;strokeColor=none;fillColor=none;html=1;fontSize=24;fontStyle=1;verticalAlign=middle;align=center;labelBackgroundColor=none;fontFamily=Tahoma;fontColor=#000000;" vertex="1" parent="1">
                    <mxGeometry x="1436.8" y="-339.15" width="80" height="20" as="geometry"/>
                </mxCell>
                <mxCell id="464" value="&lt;font style=&quot;font-size: 11px;&quot;&gt;Episode 1&lt;/font&gt;" style="text;html=1;strokeColor=none;fillColor=none;align=center;verticalAlign=middle;whiteSpace=wrap;rounded=0;labelBackgroundColor=none;fontFamily=Tahoma;fontSize=12;fontColor=#000000;" vertex="1" parent="1">
                    <mxGeometry x="1455.8" y="-323.65" width="60" height="30" as="geometry"/>
                </mxCell>
                <mxCell id="465" value="" style="edgeStyle=none;html=1;exitX=0.25;exitY=0;exitDx=0;exitDy=0;strokeColor=#FFFFFF;fontFamily=Tahoma;fontSize=12;fontColor=#000000;endArrow=none;" edge="1" parent="1" target="466">
                    <mxGeometry relative="1" as="geometry">
                        <mxPoint x="1438.7354838709678" y="-329.65" as="sourcePoint"/>
                        <mxPoint x="1435.832258064516" y="-337.15" as="targetPoint"/>
                    </mxGeometry>
                </mxCell>
                <mxCell id="466" value="" style="rounded=0;whiteSpace=wrap;html=1;labelBackgroundColor=none;strokeColor=#000000;fontFamily=Tahoma;fontSize=12;fontColor=#000000;fillColor=none;gradientColor=none;" vertex="1" parent="1">
                    <mxGeometry x="1434.8" y="-330.15" width="10" height="10" as="geometry"/>
                </mxCell>
                <mxCell id="467" value="" style="rounded=0;whiteSpace=wrap;html=1;labelBackgroundColor=none;strokeColor=#000000;fontFamily=Tahoma;fontSize=12;fontColor=#000000;fillColor=none;gradientColor=none;" vertex="1" parent="1">
                    <mxGeometry x="1448.8" y="-313.15" width="10" height="10" as="geometry"/>
                </mxCell>
                <mxCell id="468" value="&lt;font style=&quot;font-size: 8px;&quot;&gt;episode description&lt;/font&gt;" style="text;html=1;strokeColor=none;fillColor=none;align=center;verticalAlign=middle;whiteSpace=wrap;rounded=0;labelBackgroundColor=none;fontFamily=Tahoma;fontSize=11;fontColor=#000000;" vertex="1" parent="1">
                    <mxGeometry x="1457.8" y="-309.15" width="89" height="30" as="geometry"/>
                </mxCell>
                <mxCell id="469" value="&lt;font style=&quot;font-size: 8px;&quot;&gt;episode description&lt;/font&gt;" style="text;html=1;strokeColor=none;fillColor=none;align=center;verticalAlign=middle;whiteSpace=wrap;rounded=0;labelBackgroundColor=none;fontFamily=Tahoma;fontSize=11;fontColor=#000000;" vertex="1" parent="1">
                    <mxGeometry x="1456.8" y="-282.15" width="89" height="30" as="geometry"/>
                </mxCell>
                <mxCell id="470" value="&lt;font style=&quot;font-size: 11px;&quot;&gt;Episode 2&lt;/font&gt;" style="text;html=1;strokeColor=none;fillColor=none;align=center;verticalAlign=middle;whiteSpace=wrap;rounded=0;labelBackgroundColor=none;fontFamily=Tahoma;fontSize=12;fontColor=#000000;" vertex="1" parent="1">
                    <mxGeometry x="1455.8" y="-296.15" width="60" height="30" as="geometry"/>
                </mxCell>
                <mxCell id="471" value="" style="rounded=0;whiteSpace=wrap;html=1;labelBackgroundColor=none;strokeColor=#000000;fontFamily=Tahoma;fontSize=12;fontColor=#000000;fillColor=none;gradientColor=none;" vertex="1" parent="1">
                    <mxGeometry x="1449.8" y="-286.15" width="10" height="10" as="geometry"/>
                </mxCell>
                <mxCell id="472" value="" style="triangle;whiteSpace=wrap;html=1;labelBackgroundColor=none;strokeColor=#000000;fontFamily=Tahoma;fontSize=11;fontColor=#000000;fillColor=default;gradientColor=none;rotation=90;" vertex="1" parent="1">
                    <mxGeometry x="1414.8" y="-255.65" width="5" height="9" as="geometry"/>
                </mxCell>
                <mxCell id="473" value="&lt;font style=&quot;font-size: 12px;&quot;&gt;Season 2&lt;/font&gt;" style="text;strokeColor=none;fillColor=none;html=1;fontSize=24;fontStyle=1;verticalAlign=middle;align=center;labelBackgroundColor=none;fontFamily=Tahoma;fontColor=#000000;" vertex="1" parent="1">
                    <mxGeometry x="1436.8" y="-266.15" width="80" height="20" as="geometry"/>
                </mxCell>
                <mxCell id="474" value="&lt;font style=&quot;font-size: 11px;&quot;&gt;Episode 1&lt;/font&gt;" style="text;html=1;strokeColor=none;fillColor=none;align=center;verticalAlign=middle;whiteSpace=wrap;rounded=0;labelBackgroundColor=none;fontFamily=Tahoma;fontSize=12;fontColor=#000000;" vertex="1" parent="1">
                    <mxGeometry x="1455.8" y="-249.65" width="60" height="30" as="geometry"/>
                </mxCell>
                <mxCell id="475" value="" style="edgeStyle=none;html=1;exitX=0.25;exitY=0;exitDx=0;exitDy=0;strokeColor=#FFFFFF;fontFamily=Tahoma;fontSize=12;fontColor=#000000;endArrow=none;" edge="1" parent="1" target="476">
                    <mxGeometry relative="1" as="geometry">
                        <mxPoint x="1438.7354838709678" y="-255.65" as="sourcePoint"/>
                        <mxPoint x="1435.832258064516" y="-263.15" as="targetPoint"/>
                    </mxGeometry>
                </mxCell>
                <mxCell id="476" value="" style="rounded=0;whiteSpace=wrap;html=1;labelBackgroundColor=none;strokeColor=#000000;fontFamily=Tahoma;fontSize=12;fontColor=#000000;fillColor=none;gradientColor=none;" vertex="1" parent="1">
                    <mxGeometry x="1434.8" y="-256.15" width="10" height="10" as="geometry"/>
                </mxCell>
                <mxCell id="477" value="" style="rounded=0;whiteSpace=wrap;html=1;labelBackgroundColor=none;strokeColor=#000000;fontFamily=Tahoma;fontSize=12;fontColor=#000000;fillColor=none;gradientColor=none;" vertex="1" parent="1">
                    <mxGeometry x="1448.8" y="-239.15" width="10" height="10" as="geometry"/>
                </mxCell>
                <mxCell id="478" value="&lt;font style=&quot;font-size: 8px;&quot;&gt;episode description&lt;/font&gt;" style="text;html=1;strokeColor=none;fillColor=none;align=center;verticalAlign=middle;whiteSpace=wrap;rounded=0;labelBackgroundColor=none;fontFamily=Tahoma;fontSize=11;fontColor=#000000;" vertex="1" parent="1">
                    <mxGeometry x="1457.8" y="-235.15" width="89" height="30" as="geometry"/>
                </mxCell>
                <mxCell id="479" value="&lt;font style=&quot;font-size: 8px;&quot;&gt;episode description&lt;/font&gt;" style="text;html=1;strokeColor=none;fillColor=none;align=center;verticalAlign=middle;whiteSpace=wrap;rounded=0;labelBackgroundColor=none;fontFamily=Tahoma;fontSize=11;fontColor=#000000;" vertex="1" parent="1">
                    <mxGeometry x="1456.8" y="-208.15" width="89" height="30" as="geometry"/>
                </mxCell>
                <mxCell id="480" value="&lt;font style=&quot;font-size: 11px;&quot;&gt;Episode 2&lt;/font&gt;" style="text;html=1;strokeColor=none;fillColor=none;align=center;verticalAlign=middle;whiteSpace=wrap;rounded=0;labelBackgroundColor=none;fontFamily=Tahoma;fontSize=12;fontColor=#000000;" vertex="1" parent="1">
                    <mxGeometry x="1455.8" y="-222.15" width="60" height="30" as="geometry"/>
                </mxCell>
                <mxCell id="481" value="" style="rounded=0;whiteSpace=wrap;html=1;labelBackgroundColor=none;strokeColor=#000000;fontFamily=Tahoma;fontSize=12;fontColor=#000000;fillColor=none;gradientColor=none;" vertex="1" parent="1">
                    <mxGeometry x="1449.8" y="-212.15" width="10" height="10" as="geometry"/>
                </mxCell>
                <mxCell id="482" value="" style="triangle;whiteSpace=wrap;html=1;labelBackgroundColor=none;strokeColor=#000000;fontFamily=Tahoma;fontSize=11;fontColor=#000000;fillColor=default;gradientColor=none;rotation=0;" vertex="1" parent="1">
                    <mxGeometry x="1416.8" y="-182.65" width="5" height="9" as="geometry"/>
                </mxCell>
                <mxCell id="483" value="&lt;font style=&quot;font-size: 12px;&quot;&gt;Season 4&lt;/font&gt;" style="text;strokeColor=none;fillColor=none;html=1;fontSize=24;fontStyle=1;verticalAlign=middle;align=center;labelBackgroundColor=none;fontFamily=Tahoma;fontColor=#000000;" vertex="1" parent="1">
                    <mxGeometry x="1438.8" y="-192.15" width="80" height="20" as="geometry"/>
                </mxCell>
                <mxCell id="484" value="" style="edgeStyle=none;html=1;exitX=0.25;exitY=0;exitDx=0;exitDy=0;strokeColor=#FFFFFF;fontFamily=Tahoma;fontSize=12;fontColor=#000000;endArrow=none;" edge="1" parent="1" target="485">
                    <mxGeometry relative="1" as="geometry">
                        <mxPoint x="1440.7354838709682" y="-182.65" as="sourcePoint"/>
                        <mxPoint x="1437.832258064516" y="-190.15" as="targetPoint"/>
                    </mxGeometry>
                </mxCell>
                <mxCell id="485" value="" style="rounded=0;whiteSpace=wrap;html=1;labelBackgroundColor=none;strokeColor=#000000;fontFamily=Tahoma;fontSize=12;fontColor=#000000;fillColor=none;gradientColor=none;" vertex="1" parent="1">
                    <mxGeometry x="1436.8" y="-183.15" width="10" height="10" as="geometry"/>
                </mxCell>
                <mxCell id="486" value="&lt;font style=&quot;font-size: 12px;&quot;&gt;Season 5&lt;/font&gt;" style="text;strokeColor=none;fillColor=none;html=1;fontSize=24;fontStyle=1;verticalAlign=middle;align=center;labelBackgroundColor=none;fontFamily=Tahoma;fontColor=#000000;" vertex="1" parent="1">
                    <mxGeometry x="1438.8" y="-175.15" width="80" height="20" as="geometry"/>
                </mxCell>
                <mxCell id="487" value="" style="edgeStyle=none;html=1;exitX=0.25;exitY=0;exitDx=0;exitDy=0;strokeColor=#FFFFFF;fontFamily=Tahoma;fontSize=12;fontColor=#000000;endArrow=none;" edge="1" parent="1" target="488">
                    <mxGeometry relative="1" as="geometry">
                        <mxPoint x="1440.7354838709682" y="-165.65" as="sourcePoint"/>
                        <mxPoint x="1437.832258064516" y="-173.15" as="targetPoint"/>
                    </mxGeometry>
                </mxCell>
                <mxCell id="488" value="" style="rounded=0;whiteSpace=wrap;html=1;labelBackgroundColor=none;strokeColor=#000000;fontFamily=Tahoma;fontSize=12;fontColor=#000000;fillColor=none;gradientColor=none;" vertex="1" parent="1">
                    <mxGeometry x="1436.8" y="-166.15" width="10" height="10" as="geometry"/>
                </mxCell>
                <mxCell id="489" value="" style="triangle;whiteSpace=wrap;html=1;labelBackgroundColor=none;strokeColor=#000000;fontFamily=Tahoma;fontSize=11;fontColor=#000000;fillColor=default;gradientColor=none;rotation=0;" vertex="1" parent="1">
                    <mxGeometry x="1416.8" y="-166.65" width="5" height="9" as="geometry"/>
                </mxCell>
                <mxCell id="491" value="" style="rounded=1;whiteSpace=wrap;html=1;labelBackgroundColor=none;fontFamily=Tahoma;fontSize=23;fillColor=none;strokeColor=#000000;" vertex="1" parent="1">
                    <mxGeometry x="1184.3" y="-98.15" width="90" height="50" as="geometry"/>
                </mxCell>
                <mxCell id="492" value="" style="rounded=1;whiteSpace=wrap;html=1;labelBackgroundColor=none;fontFamily=Tahoma;fontSize=23;fillColor=none;strokeColor=#000000;" vertex="1" parent="1">
                    <mxGeometry x="1284.3" y="-98.15" width="90" height="50" as="geometry"/>
                </mxCell>
                <mxCell id="493" value="" style="rounded=1;whiteSpace=wrap;html=1;labelBackgroundColor=none;fontFamily=Tahoma;fontSize=23;fillColor=none;strokeColor=#000000;" vertex="1" parent="1">
                    <mxGeometry x="1384.3" y="-98.15" width="90" height="50" as="geometry"/>
                </mxCell>
                <mxCell id="494" value="" style="rounded=1;whiteSpace=wrap;html=1;labelBackgroundColor=none;fontFamily=Tahoma;fontSize=23;fillColor=none;strokeColor=#000000;" vertex="1" parent="1">
                    <mxGeometry x="1184.3" y="-38.15" width="90" height="50" as="geometry"/>
                </mxCell>
                <mxCell id="495" value="" style="rounded=1;whiteSpace=wrap;html=1;labelBackgroundColor=none;fontFamily=Tahoma;fontSize=23;fillColor=none;strokeColor=#000000;" vertex="1" parent="1">
                    <mxGeometry x="1284.3" y="-38.15" width="90" height="50" as="geometry"/>
                </mxCell>
                <mxCell id="496" value="" style="rounded=1;whiteSpace=wrap;html=1;labelBackgroundColor=none;fontFamily=Tahoma;fontSize=23;fillColor=none;strokeColor=#000000;" vertex="1" parent="1">
                    <mxGeometry x="1384.3" y="-38.15" width="90" height="50" as="geometry"/>
                </mxCell>
                <mxCell id="497" value="" style="rounded=1;whiteSpace=wrap;html=1;labelBackgroundColor=none;fontFamily=Tahoma;fontSize=23;fillColor=none;strokeColor=#000000;" vertex="1" parent="1">
                    <mxGeometry x="1485.3" y="-38.15" width="90" height="50" as="geometry"/>
                </mxCell>
                <mxCell id="498" value="" style="rounded=1;whiteSpace=wrap;html=1;labelBackgroundColor=none;fontFamily=Tahoma;fontSize=23;fillColor=none;strokeColor=#000000;" vertex="1" parent="1">
                    <mxGeometry x="1485.3" y="-98.15" width="90" height="50" as="geometry"/>
                </mxCell>
                <mxCell id="499" value="post" style="text;html=1;align=center;verticalAlign=middle;resizable=0;points=[];autosize=1;strokeColor=none;fillColor=none;fontSize=11;fontFamily=Tahoma;fontColor=#000000;labelBackgroundColor=none;" vertex="1" parent="1">
                    <mxGeometry x="1209.3" y="-88.15" width="40" height="30" as="geometry"/>
                </mxCell>
                <mxCell id="500" value="post" style="text;html=1;align=center;verticalAlign=middle;resizable=0;points=[];autosize=1;strokeColor=none;fillColor=none;fontSize=11;fontFamily=Tahoma;fontColor=#000000;labelBackgroundColor=none;" vertex="1" parent="1">
                    <mxGeometry x="1309.3" y="-88.15" width="40" height="30" as="geometry"/>
                </mxCell>
                <mxCell id="501" value="post" style="text;html=1;align=center;verticalAlign=middle;resizable=0;points=[];autosize=1;strokeColor=none;fillColor=none;fontSize=11;fontFamily=Tahoma;fontColor=#000000;labelBackgroundColor=none;" vertex="1" parent="1">
                    <mxGeometry x="1409.3" y="-88.15" width="40" height="30" as="geometry"/>
                </mxCell>
                <mxCell id="502" value="post" style="text;html=1;align=center;verticalAlign=middle;resizable=0;points=[];autosize=1;strokeColor=none;fillColor=none;fontSize=11;fontFamily=Tahoma;fontColor=#000000;labelBackgroundColor=none;" vertex="1" parent="1">
                    <mxGeometry x="1510.3" y="-88.15" width="40" height="30" as="geometry"/>
                </mxCell>
                <mxCell id="503" value="post" style="text;html=1;align=center;verticalAlign=middle;resizable=0;points=[];autosize=1;strokeColor=none;fillColor=none;fontSize=11;fontFamily=Tahoma;fontColor=#000000;labelBackgroundColor=none;" vertex="1" parent="1">
                    <mxGeometry x="1209.3" y="-28.15" width="40" height="30" as="geometry"/>
                </mxCell>
                <mxCell id="504" value="post" style="text;html=1;align=center;verticalAlign=middle;resizable=0;points=[];autosize=1;strokeColor=none;fillColor=none;fontSize=11;fontFamily=Tahoma;fontColor=#000000;labelBackgroundColor=none;" vertex="1" parent="1">
                    <mxGeometry x="1309.3" y="-28.15" width="40" height="30" as="geometry"/>
                </mxCell>
                <mxCell id="505" value="post" style="text;html=1;align=center;verticalAlign=middle;resizable=0;points=[];autosize=1;strokeColor=none;fillColor=none;fontSize=11;fontFamily=Tahoma;fontColor=#000000;labelBackgroundColor=none;" vertex="1" parent="1">
                    <mxGeometry x="1409.8" y="-28.15" width="40" height="30" as="geometry"/>
                </mxCell>
                <mxCell id="506" value="post" style="text;html=1;align=center;verticalAlign=middle;resizable=0;points=[];autosize=1;strokeColor=none;fillColor=none;fontSize=11;fontFamily=Tahoma;fontColor=#000000;labelBackgroundColor=none;" vertex="1" parent="1">
                    <mxGeometry x="1510.3" y="-28.15" width="40" height="30" as="geometry"/>
                </mxCell>
                <mxCell id="507" value="&lt;font style=&quot;font-size: 17px;&quot;&gt;Name&lt;/font&gt;" style="text;strokeColor=none;fillColor=none;html=1;fontSize=24;fontStyle=1;verticalAlign=middle;align=center;labelBackgroundColor=none;fontFamily=Tahoma;fontColor=#000000;" vertex="1" parent="1">
                    <mxGeometry x="1177.3" y="-407.15" width="100" height="30" as="geometry"/>
                </mxCell>
                <mxCell id="509" value="&lt;font style=&quot;font-size: 13px;&quot;&gt;FRANCHISE 1&lt;/font&gt;" style="text;html=1;align=center;verticalAlign=middle;resizable=0;points=[];autosize=1;strokeColor=none;fillColor=none;fontSize=12;fontFamily=Tahoma;fontColor=#000000;labelBackgroundColor=none;" vertex="1" parent="1">
                    <mxGeometry x="1392.3" y="-359.15" width="100" height="30" as="geometry"/>
                </mxCell>
                <mxCell id="510" value="&lt;span style=&quot;color: rgb(0, 0, 0); font-family: Tahoma; font-size: 14px; font-style: normal; font-variant-ligatures: normal; font-variant-caps: normal; letter-spacing: normal; orphans: 2; text-align: center; text-indent: 0px; text-transform: none; widows: 2; word-spacing: 0px; -webkit-text-stroke-width: 0px; text-decoration-thickness: initial; text-decoration-style: initial; text-decoration-color: initial; float: none; display: inline !important;&quot;&gt;&lt;b&gt;EPISODES WATCHED&lt;/b&gt;&lt;/span&gt;" style="text;whiteSpace=wrap;html=1;fontSize=12;fontFamily=Tahoma;fontColor=#000000;" vertex="1" parent="1">
                    <mxGeometry x="1407.8" y="-388.15" width="160" height="40" as="geometry"/>
                </mxCell>
                <mxCell id="511" value="&lt;span style=&quot;font-size: 17px;&quot;&gt;Locations visited&lt;/span&gt;" style="text;strokeColor=none;fillColor=none;html=1;fontSize=24;fontStyle=1;verticalAlign=middle;align=center;labelBackgroundColor=none;fontFamily=Tahoma;fontColor=#000000;" vertex="1" parent="1">
                    <mxGeometry x="1193.3" y="-128.15" width="100" height="30" as="geometry"/>
                </mxCell>
                <mxCell id="512" value="&lt;span style=&quot;font-size: 17px;&quot;&gt;Bookshelf&lt;/span&gt;" style="text;strokeColor=none;fillColor=none;html=1;fontSize=24;fontStyle=1;verticalAlign=middle;align=center;labelBackgroundColor=none;fontFamily=Tahoma;fontColor=#000000;" vertex="1" parent="1">
                    <mxGeometry x="1169.3" y="11.850000000000001" width="100" height="30" as="geometry"/>
                </mxCell>
                <mxCell id="516" value="" style="rounded=1;whiteSpace=wrap;html=1;labelBackgroundColor=none;fontFamily=Tahoma;fontSize=23;fillColor=none;strokeColor=#000000;" vertex="1" parent="1">
                    <mxGeometry x="1179.3" y="46.85" width="90" height="50" as="geometry"/>
                </mxCell>
                <mxCell id="517" value="" style="rounded=1;whiteSpace=wrap;html=1;labelBackgroundColor=none;fontFamily=Tahoma;fontSize=23;fillColor=none;strokeColor=#000000;" vertex="1" parent="1">
                    <mxGeometry x="1279.3" y="46.85" width="90" height="50" as="geometry"/>
                </mxCell>
                <mxCell id="518" value="" style="rounded=1;whiteSpace=wrap;html=1;labelBackgroundColor=none;fontFamily=Tahoma;fontSize=23;fillColor=none;strokeColor=#000000;" vertex="1" parent="1">
                    <mxGeometry x="1379.3" y="46.85" width="90" height="50" as="geometry"/>
                </mxCell>
                <mxCell id="519" value="" style="rounded=1;whiteSpace=wrap;html=1;labelBackgroundColor=none;fontFamily=Tahoma;fontSize=23;fillColor=none;strokeColor=#000000;" vertex="1" parent="1">
                    <mxGeometry x="1179.3" y="128.85" width="90" height="50" as="geometry"/>
                </mxCell>
                <mxCell id="520" value="" style="rounded=1;whiteSpace=wrap;html=1;labelBackgroundColor=none;fontFamily=Tahoma;fontSize=23;fillColor=none;strokeColor=#000000;" vertex="1" parent="1">
                    <mxGeometry x="1279.3" y="128.85" width="90" height="50" as="geometry"/>
                </mxCell>
                <mxCell id="521" value="" style="rounded=1;whiteSpace=wrap;html=1;labelBackgroundColor=none;fontFamily=Tahoma;fontSize=23;fillColor=none;strokeColor=#000000;" vertex="1" parent="1">
                    <mxGeometry x="1379.3" y="128.85" width="90" height="50" as="geometry"/>
                </mxCell>
                <mxCell id="522" value="" style="rounded=1;whiteSpace=wrap;html=1;labelBackgroundColor=none;fontFamily=Tahoma;fontSize=23;fillColor=none;strokeColor=#000000;" vertex="1" parent="1">
                    <mxGeometry x="1480.3" y="128.85" width="90" height="50" as="geometry"/>
                </mxCell>
                <mxCell id="523" value="" style="rounded=1;whiteSpace=wrap;html=1;labelBackgroundColor=none;fontFamily=Tahoma;fontSize=23;fillColor=none;strokeColor=#000000;" vertex="1" parent="1">
                    <mxGeometry x="1480.3" y="46.85" width="90" height="50" as="geometry"/>
                </mxCell>
                <mxCell id="524" value="product" style="text;html=1;align=center;verticalAlign=middle;resizable=0;points=[];autosize=1;strokeColor=none;fillColor=none;fontSize=11;fontFamily=Tahoma;fontColor=#000000;labelBackgroundColor=none;" vertex="1" parent="1">
                    <mxGeometry x="1194.3" y="56.85" width="60" height="30" as="geometry"/>
                </mxCell>
                <mxCell id="525" value="product" style="text;html=1;align=center;verticalAlign=middle;resizable=0;points=[];autosize=1;strokeColor=none;fillColor=none;fontSize=11;fontFamily=Tahoma;fontColor=#000000;labelBackgroundColor=none;" vertex="1" parent="1">
                    <mxGeometry x="1294.3" y="56.85" width="60" height="30" as="geometry"/>
                </mxCell>
                <mxCell id="526" value="product" style="text;html=1;align=center;verticalAlign=middle;resizable=0;points=[];autosize=1;strokeColor=none;fillColor=none;fontSize=11;fontFamily=Tahoma;fontColor=#000000;labelBackgroundColor=none;" vertex="1" parent="1">
                    <mxGeometry x="1394.3" y="56.85" width="60" height="30" as="geometry"/>
                </mxCell>
                <mxCell id="527" value="product" style="text;html=1;align=center;verticalAlign=middle;resizable=0;points=[];autosize=1;strokeColor=none;fillColor=none;fontSize=11;fontFamily=Tahoma;fontColor=#000000;labelBackgroundColor=none;" vertex="1" parent="1">
                    <mxGeometry x="1495.3" y="56.85" width="60" height="30" as="geometry"/>
                </mxCell>
                <mxCell id="528" value="product" style="text;html=1;align=center;verticalAlign=middle;resizable=0;points=[];autosize=1;strokeColor=none;fillColor=none;fontSize=11;fontFamily=Tahoma;fontColor=#000000;labelBackgroundColor=none;" vertex="1" parent="1">
                    <mxGeometry x="1194.3" y="138.85" width="60" height="30" as="geometry"/>
                </mxCell>
                <mxCell id="529" value="product" style="text;html=1;align=center;verticalAlign=middle;resizable=0;points=[];autosize=1;strokeColor=none;fillColor=none;fontSize=11;fontFamily=Tahoma;fontColor=#000000;labelBackgroundColor=none;" vertex="1" parent="1">
                    <mxGeometry x="1294.3" y="138.85" width="60" height="30" as="geometry"/>
                </mxCell>
                <mxCell id="530" value="product" style="text;html=1;align=center;verticalAlign=middle;resizable=0;points=[];autosize=1;strokeColor=none;fillColor=none;fontSize=11;fontFamily=Tahoma;fontColor=#000000;labelBackgroundColor=none;" vertex="1" parent="1">
                    <mxGeometry x="1394.8" y="138.85" width="60" height="30" as="geometry"/>
                </mxCell>
                <mxCell id="531" value="product" style="text;html=1;align=center;verticalAlign=middle;resizable=0;points=[];autosize=1;strokeColor=none;fillColor=none;fontSize=11;fontFamily=Tahoma;fontColor=#000000;labelBackgroundColor=none;" vertex="1" parent="1">
                    <mxGeometry x="1495.3" y="138.85" width="60" height="30" as="geometry"/>
                </mxCell>
                <mxCell id="532" value="&lt;span style=&quot;font-size: 17px;&quot;&gt;Pantry&lt;/span&gt;" style="text;strokeColor=none;fillColor=none;html=1;fontSize=24;fontStyle=1;verticalAlign=middle;align=center;labelBackgroundColor=none;fontFamily=Tahoma;fontColor=#000000;" vertex="1" parent="1">
                    <mxGeometry x="1161.3" y="96.85" width="100" height="30" as="geometry"/>
                </mxCell>
                <mxCell id="534" value="&lt;span style=&quot;font-size: 17px;&quot;&gt;Cosmetics&lt;/span&gt;" style="text;strokeColor=none;fillColor=none;html=1;fontSize=24;fontStyle=1;verticalAlign=middle;align=center;labelBackgroundColor=none;fontFamily=Tahoma;fontColor=#000000;" vertex="1" parent="1">
                    <mxGeometry x="1170.3" y="181.85" width="100" height="30" as="geometry"/>
                </mxCell>
                <mxCell id="535" value="" style="rounded=1;whiteSpace=wrap;html=1;labelBackgroundColor=none;fontFamily=Tahoma;fontSize=23;fillColor=none;strokeColor=#000000;" vertex="1" parent="1">
                    <mxGeometry x="1183.8" y="211.85" width="90" height="50" as="geometry"/>
                </mxCell>
                <mxCell id="536" value="" style="rounded=1;whiteSpace=wrap;html=1;labelBackgroundColor=none;fontFamily=Tahoma;fontSize=23;fillColor=none;strokeColor=#000000;" vertex="1" parent="1">
                    <mxGeometry x="1283.8" y="211.85" width="90" height="50" as="geometry"/>
                </mxCell>
                <mxCell id="537" value="" style="rounded=1;whiteSpace=wrap;html=1;labelBackgroundColor=none;fontFamily=Tahoma;fontSize=23;fillColor=none;strokeColor=#000000;" vertex="1" parent="1">
                    <mxGeometry x="1383.8" y="211.85" width="90" height="50" as="geometry"/>
                </mxCell>
                <mxCell id="538" value="" style="rounded=1;whiteSpace=wrap;html=1;labelBackgroundColor=none;fontFamily=Tahoma;fontSize=23;fillColor=none;strokeColor=#000000;" vertex="1" parent="1">
                    <mxGeometry x="1484.8" y="211.85" width="90" height="50" as="geometry"/>
                </mxCell>
                <mxCell id="539" value="product" style="text;html=1;align=center;verticalAlign=middle;resizable=0;points=[];autosize=1;strokeColor=none;fillColor=none;fontSize=11;fontFamily=Tahoma;fontColor=#000000;labelBackgroundColor=none;" vertex="1" parent="1">
                    <mxGeometry x="1198.8" y="221.85" width="60" height="30" as="geometry"/>
                </mxCell>
                <mxCell id="540" value="product" style="text;html=1;align=center;verticalAlign=middle;resizable=0;points=[];autosize=1;strokeColor=none;fillColor=none;fontSize=11;fontFamily=Tahoma;fontColor=#000000;labelBackgroundColor=none;" vertex="1" parent="1">
                    <mxGeometry x="1298.8" y="221.85" width="60" height="30" as="geometry"/>
                </mxCell>
                <mxCell id="541" value="product" style="text;html=1;align=center;verticalAlign=middle;resizable=0;points=[];autosize=1;strokeColor=none;fillColor=none;fontSize=11;fontFamily=Tahoma;fontColor=#000000;labelBackgroundColor=none;" vertex="1" parent="1">
                    <mxGeometry x="1399.3" y="221.85" width="60" height="30" as="geometry"/>
                </mxCell>
                <mxCell id="542" value="product" style="text;html=1;align=center;verticalAlign=middle;resizable=0;points=[];autosize=1;strokeColor=none;fillColor=none;fontSize=11;fontFamily=Tahoma;fontColor=#000000;labelBackgroundColor=none;" vertex="1" parent="1">
                    <mxGeometry x="1499.8" y="221.85" width="60" height="30" as="geometry"/>
                </mxCell>
                <mxCell id="543" value="" style="endArrow=classic;html=1;fontFamily=Tahoma;fontSize=9;fontColor=#000000;strokeColor=#B20000;fillColor=#e51400;entryX=0;entryY=0.5;entryDx=0;entryDy=0;strokeWidth=2;" edge="1" parent="1" target="334">
                    <mxGeometry width="50" height="50" relative="1" as="geometry">
                        <mxPoint x="2040" y="970" as="sourcePoint"/>
                        <mxPoint x="2008" y="1216" as="targetPoint"/>
                    </mxGeometry>
                </mxCell>
                <mxCell id="150" value="" style="endArrow=classic;html=1;fontFamily=Tahoma;fontSize=9;fontColor=#000000;strokeColor=#B20000;fillColor=#e51400;entryX=0;entryY=0.75;entryDx=0;entryDy=0;exitX=1;exitY=0.5;exitDx=0;exitDy=0;strokeWidth=2;" edge="1" parent="1" source="167" target="189">
                    <mxGeometry width="50" height="50" relative="1" as="geometry">
                        <mxPoint x="1555.3" y="750.7" as="sourcePoint"/>
                        <mxPoint x="1615.3" y="703" as="targetPoint"/>
                    </mxGeometry>
                </mxCell>
                <mxCell id="545" value="" style="endArrow=classic;html=1;fontFamily=Tahoma;fontSize=9;fontColor=#000000;strokeColor=#B20000;fillColor=#e51400;entryX=0.004;entryY=0.475;entryDx=0;entryDy=0;entryPerimeter=0;strokeWidth=2;" edge="1" parent="1" target="288">
                    <mxGeometry width="50" height="50" relative="1" as="geometry">
                        <mxPoint x="1553.6867187500006" y="1020.1999999999999" as="sourcePoint"/>
                        <mxPoint x="1670" y="930" as="targetPoint"/>
                    </mxGeometry>
                </mxCell>
                <mxCell id="546" value="" style="endArrow=classic;html=1;fontFamily=Tahoma;fontSize=9;fontColor=#000000;strokeColor=#B20000;fillColor=#e51400;exitX=0;exitY=0.75;exitDx=0;exitDy=0;entryX=1;entryY=0.703;entryDx=0;entryDy=0;entryPerimeter=0;strokeWidth=2;" edge="1" parent="1" source="283" target="379">
                    <mxGeometry width="50" height="50" relative="1" as="geometry">
                        <mxPoint x="1415" y="1140" as="sourcePoint"/>
                        <mxPoint x="1532.4500000000003" y="1071.85" as="targetPoint"/>
                    </mxGeometry>
                </mxCell>
                <mxCell id="548" value="" style="endArrow=classic;html=1;fontFamily=Tahoma;fontSize=9;fontColor=#000000;strokeColor=#B20000;fillColor=#e51400;exitX=1;exitY=0.5;exitDx=0;exitDy=0;strokeWidth=2;" edge="1" parent="1">
                    <mxGeometry width="50" height="50" relative="1" as="geometry">
                        <mxPoint x="1098.6000000000001" y="74.99999999999989" as="sourcePoint"/>
                        <mxPoint x="1150" y="40" as="targetPoint"/>
                        <Array as="points">
                            <mxPoint x="1130" y="75"/>
                            <mxPoint x="1130" y="40"/>
                        </Array>
                    </mxGeometry>
                </mxCell>
                <mxCell id="549" value="" style="endArrow=classic;html=1;fontFamily=Tahoma;fontSize=9;fontColor=#000000;strokeColor=#B20000;fillColor=#e51400;exitX=1;exitY=0.5;exitDx=0;exitDy=0;entryX=0;entryY=0.25;entryDx=0;entryDy=0;strokeWidth=2;" edge="1" parent="1" target="60">
                    <mxGeometry width="50" height="50" relative="1" as="geometry">
                        <mxPoint x="1090.0000000000005" y="96.85" as="sourcePoint"/>
                        <mxPoint x="1142.5500000000002" y="23.409999999999947" as="targetPoint"/>
                        <Array as="points">
                            <mxPoint x="1140" y="97"/>
                            <mxPoint x="1140" y="392"/>
                        </Array>
                    </mxGeometry>
                </mxCell>
                <mxCell id="550" value="" style="endArrow=classic;html=1;fontFamily=Tahoma;fontSize=9;fontColor=#000000;strokeColor=#B20000;fillColor=#e51400;entryX=0;entryY=0.25;entryDx=0;entryDy=0;strokeWidth=2;" edge="1" parent="1" target="152">
                    <mxGeometry width="50" height="50" relative="1" as="geometry">
                        <mxPoint x="1110" y="120" as="sourcePoint"/>
                        <mxPoint x="1144.3000000000002" y="413.9699999999999" as="targetPoint"/>
                        <Array as="points">
                            <mxPoint x="1130" y="119"/>
                            <mxPoint x="1140" y="682"/>
                        </Array>
                    </mxGeometry>
                </mxCell>
                <mxCell id="551" value="" style="endArrow=classic;html=1;fontFamily=Tahoma;fontSize=9;fontColor=#000000;strokeColor=#B20000;fillColor=#e51400;entryX=0.001;entryY=0.306;entryDx=0;entryDy=0;entryPerimeter=0;strokeWidth=2;" edge="1" parent="1" target="257">
                    <mxGeometry width="50" height="50" relative="1" as="geometry">
                        <mxPoint x="1100" y="136.35" as="sourcePoint"/>
                        <mxPoint x="1154.3000000000002" y="698.1999999999999" as="targetPoint"/>
                        <Array as="points">
                            <mxPoint x="1120" y="135.35"/>
                            <mxPoint x="1130" y="970"/>
                        </Array>
                    </mxGeometry>
                </mxCell>
                <mxCell id="547" value="" style="endArrow=classic;html=1;fontFamily=Tahoma;fontSize=9;fontColor=#000000;strokeColor=#B20000;fillColor=#e51400;entryX=1;entryY=0.25;entryDx=0;entryDy=0;exitX=0.148;exitY=0.92;exitDx=0;exitDy=0;exitPerimeter=0;strokeWidth=2;" edge="1" parent="1" source="58" target="404">
                    <mxGeometry width="50" height="50" relative="1" as="geometry">
                        <mxPoint x="1035" y="159" as="sourcePoint"/>
                        <mxPoint x="1125.7" y="280.9999999999999" as="targetPoint"/>
                        <Array as="points">
                            <mxPoint x="1000" y="158"/>
                            <mxPoint x="1000" y="415"/>
                        </Array>
                    </mxGeometry>
                </mxCell>
                <mxCell id="552" value="&lt;font style=&quot;font-size: 8px;&quot;&gt;edit profile&lt;/font&gt;" style="text;html=1;strokeColor=none;fillColor=none;align=center;verticalAlign=middle;whiteSpace=wrap;rounded=0;labelBackgroundColor=none;fontFamily=Tahoma;fontSize=17;fontColor=#000000;" vertex="1" parent="1">
                    <mxGeometry x="1354.3" y="269.9999999999999" width="60" height="30" as="geometry"/>
                </mxCell>
                <mxCell id="555" value="" style="rounded=1;whiteSpace=wrap;html=1;labelBackgroundColor=none;fontFamily=Tahoma;fontSize=23;fillColor=none;strokeColor=#000000;" vertex="1" parent="1">
                    <mxGeometry x="1326.3" y="277" width="110" height="20" as="geometry"/>
                </mxCell>
                <mxCell id="556" value="" style="endArrow=classic;html=1;fontFamily=Tahoma;fontSize=9;fontColor=#000000;strokeColor=#B20000;fillColor=#e51400;strokeWidth=2;" edge="1" parent="1">
                    <mxGeometry width="50" height="50" relative="1" as="geometry">
                        <mxPoint x="1438.8000000000002" y="290.8499999999999" as="sourcePoint"/>
                        <mxPoint x="1670" y="100" as="targetPoint"/>
                        <Array as="points">
                            <mxPoint x="1620" y="290"/>
                            <mxPoint x="1620" y="100"/>
                        </Array>
                    </mxGeometry>
                </mxCell>
                <mxCell id="558" value="" style="rounded=0;whiteSpace=wrap;html=1;fillColor=#f5f5f5;strokeColor=#666666;gradientColor=none;" vertex="1" parent="1">
                    <mxGeometry x="1680" y="-153" width="460" height="380" as="geometry"/>
                </mxCell>
                <mxCell id="559" value="" style="rounded=0;whiteSpace=wrap;html=1;fillColor=#636363;gradientColor=none;strokeColor=#666666;" vertex="1" parent="1">
                    <mxGeometry x="1680" y="-153" width="460" height="20" as="geometry"/>
                </mxCell>
                <mxCell id="560" value="" style="ellipse;whiteSpace=wrap;html=1;aspect=fixed;fillColor=#FF0000;strokeColor=#FF0000;fontColor=#ffffff;" vertex="1" parent="1">
                    <mxGeometry x="1690" y="-148" width="10" height="10" as="geometry"/>
                </mxCell>
                <mxCell id="561" value="" style="ellipse;whiteSpace=wrap;html=1;aspect=fixed;fillColor=#FFFF00;strokeColor=#FFFF00;fontColor=#000000;" vertex="1" parent="1">
                    <mxGeometry x="1704" y="-148" width="10" height="10" as="geometry"/>
                </mxCell>
                <mxCell id="562" value="" style="ellipse;whiteSpace=wrap;html=1;aspect=fixed;fillColor=#66CC00;strokeColor=#66CC00;fontColor=#ffffff;" vertex="1" parent="1">
                    <mxGeometry x="1718" y="-148" width="10" height="10" as="geometry"/>
                </mxCell>
                <mxCell id="563" value="" style="shape=ext;double=1;rounded=0;whiteSpace=wrap;html=1;strokeColor=#00FFFF;fontFamily=Tahoma;fontSize=45;fontColor=#00FFFF;fillColor=#00FFFF;gradientColor=none;" vertex="1" parent="1">
                    <mxGeometry x="1680" y="-133" width="460" height="20" as="geometry"/>
                </mxCell>
                <mxCell id="564" value="" style="endArrow=none;html=1;fontFamily=Tahoma;fontSize=45;fontColor=#00FFFF;fillColor=#0050ef;strokeColor=#001DBC;" edge="1" parent="1">
                    <mxGeometry width="50" height="50" relative="1" as="geometry">
                        <mxPoint x="2103" y="-126.00000000000011" as="sourcePoint"/>
                        <mxPoint x="2113" y="-126.00000000000011" as="targetPoint"/>
                    </mxGeometry>
                </mxCell>
                <mxCell id="565" value="" style="endArrow=none;html=1;fontFamily=Tahoma;fontSize=45;fontColor=#00FFFF;fillColor=#0050ef;strokeColor=#001DBC;" edge="1" parent="1">
                    <mxGeometry width="50" height="50" relative="1" as="geometry">
                        <mxPoint x="2103" y="-122.99999999999966" as="sourcePoint"/>
                        <mxPoint x="2113" y="-122.99999999999966" as="targetPoint"/>
                    </mxGeometry>
                </mxCell>
                <mxCell id="566" value="" style="endArrow=none;html=1;fontFamily=Tahoma;fontSize=45;fontColor=#00FFFF;fillColor=#0050ef;strokeColor=#001DBC;" edge="1" parent="1">
                    <mxGeometry width="50" height="50" relative="1" as="geometry">
                        <mxPoint x="2103" y="-119.99999999999966" as="sourcePoint"/>
                        <mxPoint x="2113" y="-119.99999999999966" as="targetPoint"/>
                    </mxGeometry>
                </mxCell>
                <mxCell id="567" value="" style="edgeStyle=none;html=1;strokeColor=#FFFFFF;fontFamily=Tahoma;fontSize=8;fontColor=#000000;" edge="1" parent="1" source="568">
                    <mxGeometry relative="1" as="geometry">
                        <mxPoint x="1935.7142857142862" y="-68.00000000000011" as="targetPoint"/>
                    </mxGeometry>
                </mxCell>
                <mxCell id="568" value="edit profile" style="text;strokeColor=none;fillColor=none;html=1;fontSize=24;fontStyle=1;verticalAlign=middle;align=center;labelBackgroundColor=none;fontFamily=Tahoma;fontColor=#000000;" vertex="1" parent="1">
                    <mxGeometry x="1860" y="-103.08" width="100" height="30" as="geometry"/>
                </mxCell>
                <mxCell id="569" value="" style="edgeStyle=none;html=1;exitX=0.25;exitY=0;exitDx=0;exitDy=0;strokeColor=#FFFFFF;fontFamily=Tahoma;fontSize=12;fontColor=#000000;endArrow=none;" edge="1" parent="1">
                    <mxGeometry relative="1" as="geometry">
                        <mxPoint x="1981.9354838709678" y="-62.49999999999966" as="sourcePoint"/>
                        <mxPoint x="1981.8172043010754" y="-63.000000000000114" as="targetPoint"/>
                    </mxGeometry>
                </mxCell>
                <mxCell id="570" value="" style="edgeStyle=none;html=1;exitX=0.25;exitY=0;exitDx=0;exitDy=0;strokeColor=#FFFFFF;fontFamily=Tahoma;fontSize=12;fontColor=#000000;endArrow=none;" edge="1" parent="1">
                    <mxGeometry relative="1" as="geometry">
                        <mxPoint x="1981.9354838709678" y="10.499999999999432" as="sourcePoint"/>
                        <mxPoint x="1981.8172043010754" y="10.000000000000341" as="targetPoint"/>
                    </mxGeometry>
                </mxCell>
                <mxCell id="571" value="" style="edgeStyle=none;html=1;exitX=0.25;exitY=0;exitDx=0;exitDy=0;strokeColor=#FFFFFF;fontFamily=Tahoma;fontSize=12;fontColor=#000000;endArrow=none;" edge="1" parent="1">
                    <mxGeometry relative="1" as="geometry">
                        <mxPoint x="1983.9354838709678" y="83.49999999999989" as="sourcePoint"/>
                        <mxPoint x="1983.8172043010754" y="82.99999999999943" as="targetPoint"/>
                    </mxGeometry>
                </mxCell>
                <mxCell id="572" value="" style="edgeStyle=none;html=1;exitX=0.25;exitY=0;exitDx=0;exitDy=0;strokeColor=#FFFFFF;fontFamily=Tahoma;fontSize=12;fontColor=#000000;endArrow=none;" edge="1" parent="1">
                    <mxGeometry relative="1" as="geometry">
                        <mxPoint x="1983.9354838709678" y="100.49999999999943" as="sourcePoint"/>
                        <mxPoint x="1983.8172043010754" y="100.00000000000034" as="targetPoint"/>
                    </mxGeometry>
                </mxCell>
                <mxCell id="573" value="" style="edgeStyle=none;html=1;strokeColor=#FFFFFF;fontFamily=Tahoma;fontSize=8;fontColor=#000000;" edge="1" parent="1">
                    <mxGeometry relative="1" as="geometry">
                        <mxPoint x="1853.6734693877552" y="87.99999999999989" as="sourcePoint"/>
                        <mxPoint x="1858.3265306122448" y="106.99999999999989" as="targetPoint"/>
                    </mxGeometry>
                </mxCell>
                <mxCell id="574" value="" style="rounded=1;whiteSpace=wrap;html=1;labelBackgroundColor=none;fontFamily=Tahoma;fontSize=23;fillColor=none;strokeColor=#000000;" vertex="1" parent="1">
                    <mxGeometry x="1718" y="-50.5" width="382" height="27.5" as="geometry"/>
                </mxCell>
                <mxCell id="575" value="img upload" style="text;html=1;align=center;verticalAlign=middle;resizable=0;points=[];autosize=1;strokeColor=none;fillColor=none;fontSize=11;fontFamily=Tahoma;fontColor=#000000;labelBackgroundColor=none;" vertex="1" parent="1">
                    <mxGeometry x="1714" y="-51.75" width="80" height="30" as="geometry"/>
                </mxCell>
                <mxCell id="576" value="" style="rounded=1;whiteSpace=wrap;html=1;labelBackgroundColor=none;fontFamily=Tahoma;fontSize=23;fillColor=none;strokeColor=#000000;" vertex="1" parent="1">
                    <mxGeometry x="1718" y="-8" width="382" height="125" as="geometry"/>
                </mxCell>
                <mxCell id="577" value="bio" style="text;html=1;align=center;verticalAlign=middle;resizable=0;points=[];autosize=1;strokeColor=none;fillColor=none;fontSize=11;fontFamily=Tahoma;fontColor=#000000;labelBackgroundColor=none;" vertex="1" parent="1">
                    <mxGeometry x="1720" y="-0.5" width="40" height="30" as="geometry"/>
                </mxCell>
                <mxCell id="578" value="" style="rounded=1;whiteSpace=wrap;html=1;labelBackgroundColor=none;fontFamily=Tahoma;fontSize=23;fillColor=none;strokeColor=#000000;" vertex="1" parent="1">
                    <mxGeometry x="1719" y="129.4999999999999" width="382" height="27.5" as="geometry"/>
                </mxCell>
                <mxCell id="579" value="⌄&amp;nbsp; favorite franchise&amp;nbsp;" style="text;html=1;align=center;verticalAlign=middle;resizable=0;points=[];autosize=1;strokeColor=none;fillColor=none;fontSize=11;fontFamily=Tahoma;fontColor=#000000;labelBackgroundColor=none;" vertex="1" parent="1">
                    <mxGeometry x="1720" y="126.84999999999988" width="120" height="30" as="geometry"/>
                </mxCell>
                <mxCell id="581" value="" style="verticalLabelPosition=bottom;verticalAlign=top;html=1;shape=mxgraph.basic.4_point_star_2;dx=0.83;labelBackgroundColor=none;strokeColor=#ae4132;fontFamily=Tahoma;fontSize=13;fillColor=#fad9d5;" vertex="1" parent="1">
                    <mxGeometry x="1441.3" y="359.85" width="48" height="48.15" as="geometry"/>
                </mxCell>
                <mxCell id="584" value="" style="verticalLabelPosition=bottom;verticalAlign=top;html=1;shape=mxgraph.basic.4_point_star_2;dx=0.83;labelBackgroundColor=none;strokeColor=#ae4132;fontFamily=Tahoma;fontSize=13;fillColor=#fad9d5;" vertex="1" parent="1">
                    <mxGeometry x="1516.8" y="-361.29999999999995" width="48" height="48.15" as="geometry"/>
                </mxCell>
                <mxCell id="585" value="" style="verticalLabelPosition=bottom;verticalAlign=top;html=1;shape=mxgraph.basic.4_point_star_2;dx=0.83;labelBackgroundColor=none;strokeColor=#ae4132;fontFamily=Tahoma;fontSize=13;fillColor=#fad9d5;" vertex="1" parent="1">
                    <mxGeometry x="1971.5" y="-120.29999999999997" width="48" height="48.15" as="geometry"/>
                </mxCell>
                <mxCell id="586" value="" style="verticalLabelPosition=bottom;verticalAlign=top;html=1;shape=mxgraph.basic.4_point_star_2;dx=0.83;labelBackgroundColor=none;strokeColor=#ae4132;fontFamily=Tahoma;fontSize=13;fillColor=#fad9d5;" vertex="1" parent="1">
                    <mxGeometry x="2562" y="-112.14999999999998" width="48" height="48.15" as="geometry"/>
                </mxCell>
                <mxCell id="587" value="" style="verticalLabelPosition=bottom;verticalAlign=top;html=1;shape=mxgraph.basic.4_point_star_2;dx=0.83;labelBackgroundColor=none;strokeColor=#ae4132;fontFamily=Tahoma;fontSize=13;fillColor=#fad9d5;" vertex="1" parent="1">
                    <mxGeometry x="2249.5" y="451.93" width="48" height="48.15" as="geometry"/>
                </mxCell>
                <mxCell id="590" value="" style="verticalLabelPosition=bottom;verticalAlign=top;html=1;shape=mxgraph.basic.6_point_star;labelBackgroundColor=none;strokeColor=#b46504;fontFamily=Tahoma;fontSize=13;fillColor=#fad7ac;" vertex="1" parent="1">
                    <mxGeometry x="2254" y="519.8499999999999" width="40" height="30.3" as="geometry"/>
                </mxCell>
                <mxCell id="591" value="" style="verticalLabelPosition=bottom;verticalAlign=top;html=1;shape=mxgraph.basic.6_point_star;labelBackgroundColor=none;strokeColor=#b46504;fontFamily=Tahoma;fontSize=13;fillColor=#fad7ac;" vertex="1" parent="1">
                    <mxGeometry x="1967" y="323.54999999999995" width="40" height="36.6" as="geometry"/>
                </mxCell>
                <mxCell id="592" value="" style="verticalLabelPosition=bottom;verticalAlign=top;html=1;shape=mxgraph.basic.6_point_star;labelBackgroundColor=none;strokeColor=#b46504;fontFamily=Tahoma;fontSize=13;fillColor=#fad7ac;" vertex="1" parent="1">
                    <mxGeometry x="2442" y="103.54999999999997" width="40" height="36.6" as="geometry"/>
                </mxCell>
                <mxCell id="593" value="" style="verticalLabelPosition=bottom;verticalAlign=top;html=1;shape=mxgraph.basic.6_point_star;labelBackgroundColor=none;strokeColor=#b46504;fontFamily=Tahoma;fontSize=13;fillColor=#fad7ac;" vertex="1" parent="1">
                    <mxGeometry x="1459.8" y="653.25" width="40" height="36.6" as="geometry"/>
                </mxCell>
                <mxCell id="594" value="" style="verticalLabelPosition=bottom;verticalAlign=top;html=1;shape=mxgraph.basic.8_point_star;labelBackgroundColor=none;strokeColor=#82b366;fontFamily=Tahoma;fontSize=13;fillColor=#d5e8d4;gradientColor=#97d077;" vertex="1" parent="1">
                    <mxGeometry x="2255.5" y="571.5" width="40" height="40" as="geometry"/>
                </mxCell>
                <mxCell id="595" value="" style="verticalLabelPosition=bottom;verticalAlign=top;html=1;shape=mxgraph.basic.8_point_star;labelBackgroundColor=none;strokeColor=#82b366;fontFamily=Tahoma;fontSize=13;fillColor=#d5e8d4;gradientColor=#97d077;" vertex="1" parent="1">
                    <mxGeometry x="1806" y="566.7" width="40" height="40" as="geometry"/>
                </mxCell>
                <mxCell id="596" value="" style="verticalLabelPosition=bottom;verticalAlign=top;html=1;shape=mxgraph.basic.8_point_star;labelBackgroundColor=none;strokeColor=#82b366;fontFamily=Tahoma;fontSize=13;fillColor=#d5e8d4;gradientColor=#97d077;" vertex="1" parent="1">
                    <mxGeometry x="826" y="381.8499999999999" width="40" height="40" as="geometry"/>
                </mxCell>
                <mxCell id="597" value="" style="verticalLabelPosition=bottom;verticalAlign=top;html=1;shape=mxgraph.basic.8_point_star;labelBackgroundColor=none;strokeColor=#82b366;fontFamily=Tahoma;fontSize=13;fillColor=#d5e8d4;gradientColor=#97d077;" vertex="1" parent="1">
                    <mxGeometry x="1565.3" y="110.00000000000003" width="40" height="40" as="geometry"/>
                </mxCell>
                <mxCell id="598" value="" style="verticalLabelPosition=bottom;verticalAlign=top;html=1;shape=mxgraph.basic.8_point_star;labelBackgroundColor=none;strokeColor=#82b366;fontFamily=Tahoma;fontSize=13;fillColor=#d5e8d4;gradientColor=#97d077;" vertex="1" parent="1">
                    <mxGeometry x="1564.8" y="20.00000000000003" width="40" height="40" as="geometry"/>
                </mxCell>
                <mxCell id="599" value="" style="verticalLabelPosition=bottom;verticalAlign=top;html=1;shape=mxgraph.basic.8_point_star;labelBackgroundColor=none;strokeColor=#82b366;fontFamily=Tahoma;fontSize=13;fillColor=#d5e8d4;gradientColor=#97d077;" vertex="1" parent="1">
                    <mxGeometry x="1565.3" y="180.85000000000002" width="40" height="40" as="geometry"/>
                </mxCell>
                <mxCell id="600" value="" style="verticalLabelPosition=bottom;verticalAlign=top;html=1;shape=mxgraph.basic.star;labelBackgroundColor=none;strokeColor=#6c8ebf;fontFamily=Tahoma;fontSize=13;fillColor=#dae8fc;gradientColor=#7ea6e0;" vertex="1" parent="1">
                    <mxGeometry x="2254.75" y="629.0799999999999" width="41.5" height="36.15" as="geometry"/>
                </mxCell>
                <mxCell id="601" value="" style="verticalLabelPosition=bottom;verticalAlign=top;html=1;shape=mxgraph.basic.star;labelBackgroundColor=none;strokeColor=#6c8ebf;fontFamily=Tahoma;fontSize=13;fillColor=#dae8fc;gradientColor=#7ea6e0;" vertex="1" parent="1">
                    <mxGeometry x="1313.8" y="-138.15" width="41.5" height="36.15" as="geometry"/>
                </mxCell>
                <mxCell id="603" value="" style="verticalLabelPosition=bottom;verticalAlign=top;html=1;shape=mxgraph.basic.star;labelBackgroundColor=none;strokeColor=#6c8ebf;fontFamily=Tahoma;fontSize=13;fillColor=#dae8fc;gradientColor=#7ea6e0;" vertex="1" parent="1">
                    <mxGeometry x="857" y="847.55" width="41.5" height="36.15" as="geometry"/>
                </mxCell>
                <mxCell id="604" value="" style="verticalLabelPosition=bottom;verticalAlign=top;html=1;shape=mxgraph.basic.star;labelBackgroundColor=none;strokeColor=#6c8ebf;fontFamily=Tahoma;fontSize=13;fillColor=#dae8fc;gradientColor=#7ea6e0;" vertex="1" parent="1">
                    <mxGeometry x="1495.3" y="918.3499999999999" width="41.5" height="36.15" as="geometry"/>
                </mxCell>
                <mxCell id="605" value="" style="verticalLabelPosition=bottom;verticalAlign=top;html=1;shape=mxgraph.basic.star;labelBackgroundColor=none;strokeColor=#6c8ebf;fontFamily=Tahoma;fontSize=13;fillColor=#dae8fc;gradientColor=#7ea6e0;" vertex="1" parent="1">
                    <mxGeometry x="1999.25" y="811.85" width="41.5" height="36.15" as="geometry"/>
                </mxCell>
                <mxCell id="606" value="" style="verticalLabelPosition=bottom;verticalAlign=top;html=1;shape=mxgraph.basic.star;labelBackgroundColor=none;strokeColor=#6c8ebf;fontFamily=Tahoma;fontSize=13;fillColor=#dae8fc;gradientColor=#7ea6e0;" vertex="1" parent="1">
                    <mxGeometry x="2470" y="819.8499999999999" width="41.5" height="36.15" as="geometry"/>
                </mxCell>
                <mxCell id="612" value="&lt;font style=&quot;font-size: 36px;&quot;&gt;&lt;b&gt;KEY&lt;/b&gt;&lt;/font&gt;" style="text;html=1;strokeColor=none;fillColor=none;align=center;verticalAlign=middle;whiteSpace=wrap;rounded=0;labelBackgroundColor=none;fontFamily=Tahoma;fontSize=13;fontColor=#000000;" vertex="1" parent="1">
                    <mxGeometry x="2366" y="381.85" width="60" height="30" as="geometry"/>
                </mxCell>
                <mxCell id="613" value="MVP" style="text;html=1;strokeColor=none;fillColor=none;align=center;verticalAlign=middle;whiteSpace=wrap;rounded=0;labelBackgroundColor=none;fontFamily=Tahoma;fontSize=36;fontColor=#000000;" vertex="1" parent="1">
                    <mxGeometry x="2318.5" y="461.01" width="60" height="30" as="geometry"/>
                </mxCell>
                <mxCell id="616" value="" style="endArrow=none;html=1;fontFamily=Tahoma;fontSize=36;fontColor=#000000;entryX=1.011;entryY=0.194;entryDx=0;entryDy=0;entryPerimeter=0;labelBorderColor=#000000;strokeColor=#000000;strokeWidth=6;" edge="1" parent="1" target="611">
                    <mxGeometry width="50" height="50" relative="1" as="geometry">
                        <mxPoint x="2214" y="424.15" as="sourcePoint"/>
                        <mxPoint x="2626" y="485" as="targetPoint"/>
                    </mxGeometry>
                </mxCell>
                <mxCell id="618" value="First stretch" style="text;html=1;strokeColor=none;fillColor=none;align=center;verticalAlign=middle;whiteSpace=wrap;rounded=0;labelBackgroundColor=none;fontFamily=Tahoma;fontSize=36;fontColor=#000000;" vertex="1" parent="1">
                    <mxGeometry x="2287" y="520" width="245.5" height="30" as="geometry"/>
                </mxCell>
                <mxCell id="619" value="Second stretch" style="text;html=1;strokeColor=none;fillColor=none;align=center;verticalAlign=middle;whiteSpace=wrap;rounded=0;labelBackgroundColor=none;fontFamily=Tahoma;fontSize=36;fontColor=#000000;" vertex="1" parent="1">
                    <mxGeometry x="2308" y="576.5" width="245.5" height="30" as="geometry"/>
                </mxCell>
                <mxCell id="621" value="Third stretch" style="text;html=1;strokeColor=none;fillColor=none;align=center;verticalAlign=middle;whiteSpace=wrap;rounded=0;labelBackgroundColor=none;fontFamily=Tahoma;fontSize=36;fontColor=#000000;" vertex="1" parent="1">
                    <mxGeometry x="2291.5" y="632.5" width="245.5" height="30" as="geometry"/>
                </mxCell>
                <mxCell id="623" value="&lt;font style=&quot;font-size: 48px;&quot; color=&quot;#ffffff&quot;&gt;copyable reusable pieses:&lt;/font&gt;" style="text;strokeColor=none;fillColor=none;html=1;fontSize=24;fontStyle=1;verticalAlign=middle;align=center;labelBackgroundColor=none;strokeWidth=7;fontFamily=Tahoma;fontColor=#000000;" vertex="1" parent="1">
                    <mxGeometry x="1600" y="1700" width="100" height="40" as="geometry"/>
                </mxCell>
                <mxCell id="624" value="" style="rounded=0;whiteSpace=wrap;html=1;fillColor=#f5f5f5;strokeColor=#666666;gradientColor=none;" vertex="1" parent="1">
                    <mxGeometry x="884.2" y="1850" width="440" height="240" as="geometry"/>
                </mxCell>
                <mxCell id="625" value="" style="rounded=0;whiteSpace=wrap;html=1;fillColor=#636363;gradientColor=none;strokeColor=#666666;" vertex="1" parent="1">
                    <mxGeometry x="884.2" y="1850" width="440" height="20" as="geometry"/>
                </mxCell>
                <mxCell id="626" value="" style="ellipse;whiteSpace=wrap;html=1;aspect=fixed;fillColor=#FF0000;strokeColor=#FF0000;fontColor=#ffffff;" vertex="1" parent="1">
                    <mxGeometry x="894.2" y="1855" width="10" height="10" as="geometry"/>
                </mxCell>
                <mxCell id="627" value="" style="ellipse;whiteSpace=wrap;html=1;aspect=fixed;fillColor=#FFFF00;strokeColor=#FFFF00;fontColor=#000000;" vertex="1" parent="1">
                    <mxGeometry x="908.2" y="1855" width="10" height="10" as="geometry"/>
                </mxCell>
                <mxCell id="628" value="" style="ellipse;whiteSpace=wrap;html=1;aspect=fixed;fillColor=#66CC00;strokeColor=#66CC00;fontColor=#ffffff;" vertex="1" parent="1">
                    <mxGeometry x="922.2" y="1855" width="10" height="10" as="geometry"/>
                </mxCell>
                <mxCell id="629" value="" style="whiteSpace=wrap;html=1;shape=mxgraph.basic.roundRectCallout;dx=30;dy=15;size=5;boundedLbl=1;strokeColor=#000000;fillColor=#000000;" vertex="1" parent="1">
                    <mxGeometry x="1009.2" y="1920" width="190" height="110" as="geometry"/>
                </mxCell>
                <mxCell id="630" value="&lt;font style=&quot;font-size: 45px;&quot;&gt;bravo&lt;/font&gt;" style="text;strokeColor=none;fillColor=none;html=1;fontSize=24;fontStyle=1;verticalAlign=middle;align=center;" vertex="1" parent="1">
                    <mxGeometry x="1013.7" y="1940" width="181" height="42" as="geometry"/>
                </mxCell>
                <mxCell id="631" value="&lt;font color=&quot;#00ffff&quot;&gt;bestie&lt;/font&gt;" style="text;strokeColor=none;fillColor=none;html=1;fontSize=24;fontStyle=1;verticalAlign=middle;align=center;fontFamily=Tahoma;fontColor=#FFFFFF;" vertex="1" parent="1">
                    <mxGeometry x="1104.2" y="1978" width="100" height="40" as="geometry"/>
                </mxCell>
                <mxCell id="634" value="" style="endArrow=none;html=1;labelBorderColor=#000000;strokeColor=#FFFFFF;strokeWidth=6;fontFamily=Tahoma;fontSize=48;fontColor=#FFFFFF;" edge="1" parent="1">
                    <mxGeometry width="50" height="50" relative="1" as="geometry">
                        <mxPoint x="10" y="1560" as="sourcePoint"/>
                        <mxPoint x="3395" y="1560" as="targetPoint"/>
                    </mxGeometry>
                </mxCell>
                <mxCell id="636" value="&lt;p style=&quot;line-height: 0%; font-size: 18px;&quot;&gt;&lt;font style=&quot;font-size: 18px;&quot;&gt;delete button to &quot;unwatch&quot;&lt;/font&gt;&lt;/p&gt;&lt;p style=&quot;line-height: 0%; font-size: 18px;&quot;&gt;&lt;span style=&quot;background-color: initial;&quot;&gt;&lt;font style=&quot;font-size: 19px;&quot;&gt;-will delete instance&lt;/font&gt;&lt;/span&gt;&lt;/p&gt;" style="whiteSpace=wrap;html=1;align=center;verticalAlign=middle;treeFolding=1;treeMoving=1;newEdgeStyle={&quot;edgeStyle&quot;:&quot;elbowEdgeStyle&quot;,&quot;startArrow&quot;:&quot;none&quot;,&quot;endArrow&quot;:&quot;none&quot;};labelBackgroundColor=none;strokeColor=#B20000;strokeWidth=2;fontFamily=Tahoma;fontSize=48;fontColor=#ffffff;fillColor=#e51400;" vertex="1" parent="1">
                    <mxGeometry x="1628" y="-348.15" width="224" height="140" as="geometry"/>
                </mxCell>
                <mxCell id="637" value="" style="edgeStyle=elbowEdgeStyle;elbow=vertical;sourcePerimeterSpacing=0;targetPerimeterSpacing=0;startArrow=none;endArrow=none;rounded=0;curved=0;labelBorderColor=#000000;strokeColor=#B20000;strokeWidth=2;fontFamily=Tahoma;fontSize=48;fontColor=#FFFFFF;fillColor=#e51400;" edge="1" target="636" parent="1">
                    <mxGeometry relative="1" as="geometry">
                        <mxPoint x="1439.8" y="-161.07" as="sourcePoint"/>
                    </mxGeometry>
                </mxCell>
                <mxCell id="638" value="&lt;font style=&quot;font-size: 18px;&quot;&gt;either check/uncheck box OR&lt;br&gt;toggling add/delete button&lt;br&gt;&lt;br&gt;&lt;/font&gt;&lt;div style=&quot;font-size: 18px;&quot;&gt;&lt;span style=&quot;background-color: initial;&quot;&gt;&lt;font style=&quot;font-size: 18px;&quot;&gt;-will add/delete instance of userEpisode&lt;/font&gt;&lt;/span&gt;&lt;/div&gt;" style="whiteSpace=wrap;html=1;align=center;verticalAlign=middle;treeFolding=1;treeMoving=1;newEdgeStyle={&quot;edgeStyle&quot;:&quot;elbowEdgeStyle&quot;,&quot;startArrow&quot;:&quot;none&quot;,&quot;endArrow&quot;:&quot;none&quot;};labelBackgroundColor=none;strokeColor=#B20000;strokeWidth=2;fontFamily=Tahoma;fontSize=12;fontColor=#ffffff;fillColor=#e51400;" vertex="1" parent="1">
                    <mxGeometry x="2238" y="-404.65" width="240" height="190" as="geometry"/>
                </mxCell>
                <mxCell id="639" value="" style="edgeStyle=elbowEdgeStyle;elbow=vertical;sourcePerimeterSpacing=0;targetPerimeterSpacing=0;startArrow=none;endArrow=none;rounded=0;curved=0;labelBorderColor=#000000;strokeColor=#B20000;strokeWidth=2;fontFamily=Tahoma;fontSize=12;fontColor=#FFFFFF;fillColor=#e51400;" edge="1" target="638" parent="1">
                    <mxGeometry relative="1" as="geometry">
                        <mxPoint x="2499" y="30" as="sourcePoint"/>
                        <Array as="points">
                            <mxPoint x="2630" y="52"/>
                        </Array>
                    </mxGeometry>
                </mxCell>
                <mxCell id="646" value="" style="rounded=0;whiteSpace=wrap;html=1;fillColor=#f5f5f5;strokeColor=#666666;gradientColor=none;" vertex="1" parent="1">
                    <mxGeometry x="520" y="-372.15" width="460" height="380" as="geometry"/>
                </mxCell>
                <mxCell id="647" value="" style="rounded=0;whiteSpace=wrap;html=1;fillColor=#636363;gradientColor=none;strokeColor=#666666;" vertex="1" parent="1">
                    <mxGeometry x="520" y="-372.15" width="460" height="20" as="geometry"/>
                </mxCell>
                <mxCell id="648" value="" style="ellipse;whiteSpace=wrap;html=1;aspect=fixed;fillColor=#FF0000;strokeColor=#FF0000;fontColor=#ffffff;" vertex="1" parent="1">
                    <mxGeometry x="530" y="-367.15" width="10" height="10" as="geometry"/>
                </mxCell>
                <mxCell id="649" value="" style="ellipse;whiteSpace=wrap;html=1;aspect=fixed;fillColor=#FFFF00;strokeColor=#FFFF00;fontColor=#000000;" vertex="1" parent="1">
                    <mxGeometry x="544" y="-367.15" width="10" height="10" as="geometry"/>
                </mxCell>
                <mxCell id="650" value="" style="ellipse;whiteSpace=wrap;html=1;aspect=fixed;fillColor=#66CC00;strokeColor=#66CC00;fontColor=#ffffff;" vertex="1" parent="1">
                    <mxGeometry x="558" y="-367.15" width="10" height="10" as="geometry"/>
                </mxCell>
                <mxCell id="651" value="" style="shape=ext;double=1;rounded=0;whiteSpace=wrap;html=1;strokeColor=#00FFFF;fontFamily=Tahoma;fontSize=45;fontColor=#00FFFF;fillColor=#00FFFF;gradientColor=none;" vertex="1" parent="1">
                    <mxGeometry x="520" y="-352.15" width="460" height="20" as="geometry"/>
                </mxCell>
                <mxCell id="652" value="" style="endArrow=none;html=1;fontFamily=Tahoma;fontSize=45;fontColor=#00FFFF;fillColor=#0050ef;strokeColor=#001DBC;" edge="1" parent="1">
                    <mxGeometry width="50" height="50" relative="1" as="geometry">
                        <mxPoint x="943" y="-345.15" as="sourcePoint"/>
                        <mxPoint x="953" y="-345.15" as="targetPoint"/>
                    </mxGeometry>
                </mxCell>
                <mxCell id="653" value="" style="endArrow=none;html=1;fontFamily=Tahoma;fontSize=45;fontColor=#00FFFF;fillColor=#0050ef;strokeColor=#001DBC;" edge="1" parent="1">
                    <mxGeometry width="50" height="50" relative="1" as="geometry">
                        <mxPoint x="943" y="-342.1499999999995" as="sourcePoint"/>
                        <mxPoint x="953" y="-342.1499999999995" as="targetPoint"/>
                    </mxGeometry>
                </mxCell>
                <mxCell id="654" value="" style="endArrow=none;html=1;fontFamily=Tahoma;fontSize=45;fontColor=#00FFFF;fillColor=#0050ef;strokeColor=#001DBC;" edge="1" parent="1">
                    <mxGeometry width="50" height="50" relative="1" as="geometry">
                        <mxPoint x="943" y="-339.1499999999995" as="sourcePoint"/>
                        <mxPoint x="953" y="-339.1499999999995" as="targetPoint"/>
                    </mxGeometry>
                </mxCell>
                <mxCell id="655" value="" style="edgeStyle=none;html=1;strokeColor=#FFFFFF;fontFamily=Tahoma;fontSize=8;fontColor=#000000;" edge="1" parent="1" source="656">
                    <mxGeometry relative="1" as="geometry">
                        <mxPoint x="775.7142857142862" y="-287.15" as="targetPoint"/>
                    </mxGeometry>
                </mxCell>
                <mxCell id="670" value="" style="edgeStyle=none;html=1;labelBorderColor=#000000;strokeColor=#FFFFFF;strokeWidth=2;fontFamily=Tahoma;fontSize=18;fontColor=#000000;" edge="1" parent="1" source="656" target="668">
                    <mxGeometry relative="1" as="geometry"/>
                </mxCell>
                <mxCell id="656" value="register/ create profile" style="text;strokeColor=none;fillColor=none;html=1;fontSize=24;fontStyle=1;verticalAlign=middle;align=center;labelBackgroundColor=none;fontFamily=Tahoma;fontColor=#000000;" vertex="1" parent="1">
                    <mxGeometry x="693.5" y="-323.65" width="100" height="30" as="geometry"/>
                </mxCell>
                <mxCell id="657" value="" style="edgeStyle=none;html=1;exitX=0.25;exitY=0;exitDx=0;exitDy=0;strokeColor=#FFFFFF;fontFamily=Tahoma;fontSize=12;fontColor=#000000;endArrow=none;" edge="1" parent="1">
                    <mxGeometry relative="1" as="geometry">
                        <mxPoint x="821.9354838709678" y="-281.6499999999995" as="sourcePoint"/>
                        <mxPoint x="821.8172043010754" y="-282.15" as="targetPoint"/>
                    </mxGeometry>
                </mxCell>
                <mxCell id="658" value="" style="edgeStyle=none;html=1;exitX=0.25;exitY=0;exitDx=0;exitDy=0;strokeColor=#FFFFFF;fontFamily=Tahoma;fontSize=12;fontColor=#000000;endArrow=none;" edge="1" parent="1">
                    <mxGeometry relative="1" as="geometry">
                        <mxPoint x="821.9354838709678" y="-208.65000000000043" as="sourcePoint"/>
                        <mxPoint x="821.8172043010754" y="-209.14999999999952" as="targetPoint"/>
                    </mxGeometry>
                </mxCell>
                <mxCell id="659" value="" style="edgeStyle=none;html=1;exitX=0.25;exitY=0;exitDx=0;exitDy=0;strokeColor=#FFFFFF;fontFamily=Tahoma;fontSize=12;fontColor=#000000;endArrow=none;" edge="1" parent="1">
                    <mxGeometry relative="1" as="geometry">
                        <mxPoint x="823.9354838709678" y="-135.64999999999998" as="sourcePoint"/>
                        <mxPoint x="823.8172043010754" y="-136.15000000000043" as="targetPoint"/>
                    </mxGeometry>
                </mxCell>
                <mxCell id="660" value="" style="edgeStyle=none;html=1;exitX=0.25;exitY=0;exitDx=0;exitDy=0;strokeColor=#FFFFFF;fontFamily=Tahoma;fontSize=12;fontColor=#000000;endArrow=none;" edge="1" parent="1">
                    <mxGeometry relative="1" as="geometry">
                        <mxPoint x="823.9354838709678" y="-118.65000000000043" as="sourcePoint"/>
                        <mxPoint x="823.8172043010754" y="-119.14999999999952" as="targetPoint"/>
                    </mxGeometry>
                </mxCell>
                <mxCell id="661" value="" style="edgeStyle=none;html=1;strokeColor=#FFFFFF;fontFamily=Tahoma;fontSize=8;fontColor=#000000;" edge="1" parent="1">
                    <mxGeometry relative="1" as="geometry">
                        <mxPoint x="693.6734693877552" y="-131.14999999999998" as="sourcePoint"/>
                        <mxPoint x="698.3265306122448" y="-112.14999999999998" as="targetPoint"/>
                    </mxGeometry>
                </mxCell>
                <mxCell id="662" value="" style="rounded=1;whiteSpace=wrap;html=1;labelBackgroundColor=none;fontFamily=Tahoma;fontSize=23;fillColor=none;strokeColor=#000000;" vertex="1" parent="1">
                    <mxGeometry x="558" y="-209.14999999999998" width="382" height="27.5" as="geometry"/>
                </mxCell>
                <mxCell id="663" value="img upload" style="text;html=1;align=center;verticalAlign=middle;resizable=0;points=[];autosize=1;strokeColor=none;fillColor=none;fontSize=11;fontFamily=Tahoma;fontColor=#000000;labelBackgroundColor=none;" vertex="1" parent="1">
                    <mxGeometry x="556" y="-212.14999999999998" width="80" height="30" as="geometry"/>
                </mxCell>
                <mxCell id="664" value="" style="rounded=1;whiteSpace=wrap;html=1;labelBackgroundColor=none;fontFamily=Tahoma;fontSize=23;fillColor=none;strokeColor=#000000;" vertex="1" parent="1">
                    <mxGeometry x="558" y="-171.49999999999997" width="382" height="125" as="geometry"/>
                </mxCell>
                <mxCell id="665" value="bio" style="text;html=1;align=center;verticalAlign=middle;resizable=0;points=[];autosize=1;strokeColor=none;fillColor=none;fontSize=11;fontFamily=Tahoma;fontColor=#000000;labelBackgroundColor=none;" vertex="1" parent="1">
                    <mxGeometry x="565" y="-172.14999999999998" width="40" height="30" as="geometry"/>
                </mxCell>
                <mxCell id="666" value="" style="rounded=1;whiteSpace=wrap;html=1;labelBackgroundColor=none;fontFamily=Tahoma;fontSize=23;fillColor=none;strokeColor=#000000;" vertex="1" parent="1">
                    <mxGeometry x="559" y="-37.15000000000009" width="382" height="27.5" as="geometry"/>
                </mxCell>
                <mxCell id="667" value="⌄&amp;nbsp; favorite franchise&amp;nbsp;" style="text;html=1;align=center;verticalAlign=middle;resizable=0;points=[];autosize=1;strokeColor=none;fillColor=none;fontSize=11;fontFamily=Tahoma;fontColor=#000000;labelBackgroundColor=none;" vertex="1" parent="1">
                    <mxGeometry x="565.25" y="-40.15000000000007" width="120" height="30" as="geometry"/>
                </mxCell>
                <mxCell id="668" value="" style="verticalLabelPosition=bottom;verticalAlign=top;html=1;shape=mxgraph.basic.4_point_star_2;dx=0.83;labelBackgroundColor=none;strokeColor=#ae4132;fontFamily=Tahoma;fontSize=13;fillColor=#fad9d5;" vertex="1" parent="1">
                    <mxGeometry x="883" y="-343.44999999999993" width="48" height="48.15" as="geometry"/>
                </mxCell>
                <mxCell id="671" value="" style="endArrow=classic;html=1;fontFamily=Tahoma;fontSize=9;fontColor=#000000;strokeColor=#B20000;fillColor=#e51400;exitX=1;exitY=0.5;exitDx=0;exitDy=0;strokeWidth=2;entryX=0.482;entryY=-0.121;entryDx=0;entryDy=0;entryPerimeter=0;" edge="1" parent="1" target="43">
                    <mxGeometry width="50" height="50" relative="1" as="geometry">
                        <mxPoint x="754.5000000000002" y="1.849999999999909" as="sourcePoint"/>
                        <mxPoint x="755" y="50" as="targetPoint"/>
                    </mxGeometry>
                </mxCell>
                <mxCell id="678" value="" style="edgeStyle=none;html=1;labelBorderColor=#000000;strokeColor=#FFFFFF;strokeWidth=2;fontFamily=Tahoma;fontSize=18;fontColor=#000000;" edge="1" parent="1" source="677" target="656">
                    <mxGeometry relative="1" as="geometry"/>
                </mxCell>
                <mxCell id="677" value="" style="rounded=1;whiteSpace=wrap;html=1;labelBackgroundColor=none;fontFamily=Tahoma;fontSize=23;fillColor=none;strokeColor=#000000;" vertex="1" parent="1">
                    <mxGeometry x="558" y="-246.89999999999998" width="382" height="27.5" as="geometry"/>
                </mxCell>
                <mxCell id="679" value="" style="rounded=1;whiteSpace=wrap;html=1;labelBackgroundColor=none;fontFamily=Tahoma;fontSize=23;fillColor=none;strokeColor=#000000;" vertex="1" parent="1">
                    <mxGeometry x="558" y="-284.9" width="382" height="27.5" as="geometry"/>
                </mxCell>
                <mxCell id="681" value="register user fields" style="text;html=1;align=center;verticalAlign=middle;resizable=0;points=[];autosize=1;strokeColor=none;fillColor=none;fontSize=11;fontFamily=Tahoma;fontColor=#000000;labelBackgroundColor=none;" vertex="1" parent="1">
                    <mxGeometry x="554" y="-248.14999999999998" width="110" height="30" as="geometry"/>
                </mxCell>
                <mxCell id="682" value="register user fields" style="text;html=1;align=center;verticalAlign=middle;resizable=0;points=[];autosize=1;strokeColor=none;fillColor=none;fontSize=11;fontFamily=Tahoma;fontColor=#000000;labelBackgroundColor=none;" vertex="1" parent="1">
                    <mxGeometry x="555" y="-285.15" width="110" height="30" as="geometry"/>
                </mxCell>
            </root>
        </mxGraphModel>
    </diagram>
</mxfile>